G75*
%MOIN*%
%OFA0B0*%
%FSLAX25Y25*%
%IPPOS*%
%LPD*%
%AMOC8*
5,1,8,0,0,1.08239X$1,22.5*
%
%ADD10C,0.00000*%
%ADD11R,0.05150X0.05150*%
%ADD12C,0.05150*%
%ADD13OC8,0.06300*%
%ADD14C,0.05200*%
%ADD15OC8,0.05200*%
%ADD16C,0.04400*%
%ADD17C,0.05543*%
%ADD18C,0.01600*%
%ADD19C,0.01200*%
D10*
X0006800Y0010705D02*
X0006800Y0205665D01*
X0350501Y0205665D01*
X0350501Y0010705D01*
X0006800Y0010705D01*
X0078300Y0020705D02*
X0078302Y0020823D01*
X0078308Y0020941D01*
X0078318Y0021059D01*
X0078332Y0021176D01*
X0078350Y0021293D01*
X0078372Y0021410D01*
X0078397Y0021525D01*
X0078427Y0021639D01*
X0078461Y0021753D01*
X0078498Y0021865D01*
X0078539Y0021976D01*
X0078584Y0022085D01*
X0078632Y0022193D01*
X0078684Y0022299D01*
X0078740Y0022404D01*
X0078799Y0022506D01*
X0078861Y0022606D01*
X0078927Y0022704D01*
X0078996Y0022800D01*
X0079069Y0022894D01*
X0079144Y0022985D01*
X0079223Y0023073D01*
X0079304Y0023159D01*
X0079389Y0023242D01*
X0079476Y0023322D01*
X0079565Y0023399D01*
X0079658Y0023473D01*
X0079752Y0023543D01*
X0079849Y0023611D01*
X0079949Y0023675D01*
X0080050Y0023736D01*
X0080153Y0023793D01*
X0080259Y0023847D01*
X0080366Y0023898D01*
X0080474Y0023944D01*
X0080584Y0023987D01*
X0080696Y0024026D01*
X0080809Y0024062D01*
X0080923Y0024093D01*
X0081038Y0024121D01*
X0081153Y0024145D01*
X0081270Y0024165D01*
X0081387Y0024181D01*
X0081505Y0024193D01*
X0081623Y0024201D01*
X0081741Y0024205D01*
X0081859Y0024205D01*
X0081977Y0024201D01*
X0082095Y0024193D01*
X0082213Y0024181D01*
X0082330Y0024165D01*
X0082447Y0024145D01*
X0082562Y0024121D01*
X0082677Y0024093D01*
X0082791Y0024062D01*
X0082904Y0024026D01*
X0083016Y0023987D01*
X0083126Y0023944D01*
X0083234Y0023898D01*
X0083341Y0023847D01*
X0083447Y0023793D01*
X0083550Y0023736D01*
X0083651Y0023675D01*
X0083751Y0023611D01*
X0083848Y0023543D01*
X0083942Y0023473D01*
X0084035Y0023399D01*
X0084124Y0023322D01*
X0084211Y0023242D01*
X0084296Y0023159D01*
X0084377Y0023073D01*
X0084456Y0022985D01*
X0084531Y0022894D01*
X0084604Y0022800D01*
X0084673Y0022704D01*
X0084739Y0022606D01*
X0084801Y0022506D01*
X0084860Y0022404D01*
X0084916Y0022299D01*
X0084968Y0022193D01*
X0085016Y0022085D01*
X0085061Y0021976D01*
X0085102Y0021865D01*
X0085139Y0021753D01*
X0085173Y0021639D01*
X0085203Y0021525D01*
X0085228Y0021410D01*
X0085250Y0021293D01*
X0085268Y0021176D01*
X0085282Y0021059D01*
X0085292Y0020941D01*
X0085298Y0020823D01*
X0085300Y0020705D01*
X0085298Y0020587D01*
X0085292Y0020469D01*
X0085282Y0020351D01*
X0085268Y0020234D01*
X0085250Y0020117D01*
X0085228Y0020000D01*
X0085203Y0019885D01*
X0085173Y0019771D01*
X0085139Y0019657D01*
X0085102Y0019545D01*
X0085061Y0019434D01*
X0085016Y0019325D01*
X0084968Y0019217D01*
X0084916Y0019111D01*
X0084860Y0019006D01*
X0084801Y0018904D01*
X0084739Y0018804D01*
X0084673Y0018706D01*
X0084604Y0018610D01*
X0084531Y0018516D01*
X0084456Y0018425D01*
X0084377Y0018337D01*
X0084296Y0018251D01*
X0084211Y0018168D01*
X0084124Y0018088D01*
X0084035Y0018011D01*
X0083942Y0017937D01*
X0083848Y0017867D01*
X0083751Y0017799D01*
X0083651Y0017735D01*
X0083550Y0017674D01*
X0083447Y0017617D01*
X0083341Y0017563D01*
X0083234Y0017512D01*
X0083126Y0017466D01*
X0083016Y0017423D01*
X0082904Y0017384D01*
X0082791Y0017348D01*
X0082677Y0017317D01*
X0082562Y0017289D01*
X0082447Y0017265D01*
X0082330Y0017245D01*
X0082213Y0017229D01*
X0082095Y0017217D01*
X0081977Y0017209D01*
X0081859Y0017205D01*
X0081741Y0017205D01*
X0081623Y0017209D01*
X0081505Y0017217D01*
X0081387Y0017229D01*
X0081270Y0017245D01*
X0081153Y0017265D01*
X0081038Y0017289D01*
X0080923Y0017317D01*
X0080809Y0017348D01*
X0080696Y0017384D01*
X0080584Y0017423D01*
X0080474Y0017466D01*
X0080366Y0017512D01*
X0080259Y0017563D01*
X0080153Y0017617D01*
X0080050Y0017674D01*
X0079949Y0017735D01*
X0079849Y0017799D01*
X0079752Y0017867D01*
X0079658Y0017937D01*
X0079565Y0018011D01*
X0079476Y0018088D01*
X0079389Y0018168D01*
X0079304Y0018251D01*
X0079223Y0018337D01*
X0079144Y0018425D01*
X0079069Y0018516D01*
X0078996Y0018610D01*
X0078927Y0018706D01*
X0078861Y0018804D01*
X0078799Y0018904D01*
X0078740Y0019006D01*
X0078684Y0019111D01*
X0078632Y0019217D01*
X0078584Y0019325D01*
X0078539Y0019434D01*
X0078498Y0019545D01*
X0078461Y0019657D01*
X0078427Y0019771D01*
X0078397Y0019885D01*
X0078372Y0020000D01*
X0078350Y0020117D01*
X0078332Y0020234D01*
X0078318Y0020351D01*
X0078308Y0020469D01*
X0078302Y0020587D01*
X0078300Y0020705D01*
X0138300Y0020705D02*
X0138302Y0020823D01*
X0138308Y0020941D01*
X0138318Y0021059D01*
X0138332Y0021176D01*
X0138350Y0021293D01*
X0138372Y0021410D01*
X0138397Y0021525D01*
X0138427Y0021639D01*
X0138461Y0021753D01*
X0138498Y0021865D01*
X0138539Y0021976D01*
X0138584Y0022085D01*
X0138632Y0022193D01*
X0138684Y0022299D01*
X0138740Y0022404D01*
X0138799Y0022506D01*
X0138861Y0022606D01*
X0138927Y0022704D01*
X0138996Y0022800D01*
X0139069Y0022894D01*
X0139144Y0022985D01*
X0139223Y0023073D01*
X0139304Y0023159D01*
X0139389Y0023242D01*
X0139476Y0023322D01*
X0139565Y0023399D01*
X0139658Y0023473D01*
X0139752Y0023543D01*
X0139849Y0023611D01*
X0139949Y0023675D01*
X0140050Y0023736D01*
X0140153Y0023793D01*
X0140259Y0023847D01*
X0140366Y0023898D01*
X0140474Y0023944D01*
X0140584Y0023987D01*
X0140696Y0024026D01*
X0140809Y0024062D01*
X0140923Y0024093D01*
X0141038Y0024121D01*
X0141153Y0024145D01*
X0141270Y0024165D01*
X0141387Y0024181D01*
X0141505Y0024193D01*
X0141623Y0024201D01*
X0141741Y0024205D01*
X0141859Y0024205D01*
X0141977Y0024201D01*
X0142095Y0024193D01*
X0142213Y0024181D01*
X0142330Y0024165D01*
X0142447Y0024145D01*
X0142562Y0024121D01*
X0142677Y0024093D01*
X0142791Y0024062D01*
X0142904Y0024026D01*
X0143016Y0023987D01*
X0143126Y0023944D01*
X0143234Y0023898D01*
X0143341Y0023847D01*
X0143447Y0023793D01*
X0143550Y0023736D01*
X0143651Y0023675D01*
X0143751Y0023611D01*
X0143848Y0023543D01*
X0143942Y0023473D01*
X0144035Y0023399D01*
X0144124Y0023322D01*
X0144211Y0023242D01*
X0144296Y0023159D01*
X0144377Y0023073D01*
X0144456Y0022985D01*
X0144531Y0022894D01*
X0144604Y0022800D01*
X0144673Y0022704D01*
X0144739Y0022606D01*
X0144801Y0022506D01*
X0144860Y0022404D01*
X0144916Y0022299D01*
X0144968Y0022193D01*
X0145016Y0022085D01*
X0145061Y0021976D01*
X0145102Y0021865D01*
X0145139Y0021753D01*
X0145173Y0021639D01*
X0145203Y0021525D01*
X0145228Y0021410D01*
X0145250Y0021293D01*
X0145268Y0021176D01*
X0145282Y0021059D01*
X0145292Y0020941D01*
X0145298Y0020823D01*
X0145300Y0020705D01*
X0145298Y0020587D01*
X0145292Y0020469D01*
X0145282Y0020351D01*
X0145268Y0020234D01*
X0145250Y0020117D01*
X0145228Y0020000D01*
X0145203Y0019885D01*
X0145173Y0019771D01*
X0145139Y0019657D01*
X0145102Y0019545D01*
X0145061Y0019434D01*
X0145016Y0019325D01*
X0144968Y0019217D01*
X0144916Y0019111D01*
X0144860Y0019006D01*
X0144801Y0018904D01*
X0144739Y0018804D01*
X0144673Y0018706D01*
X0144604Y0018610D01*
X0144531Y0018516D01*
X0144456Y0018425D01*
X0144377Y0018337D01*
X0144296Y0018251D01*
X0144211Y0018168D01*
X0144124Y0018088D01*
X0144035Y0018011D01*
X0143942Y0017937D01*
X0143848Y0017867D01*
X0143751Y0017799D01*
X0143651Y0017735D01*
X0143550Y0017674D01*
X0143447Y0017617D01*
X0143341Y0017563D01*
X0143234Y0017512D01*
X0143126Y0017466D01*
X0143016Y0017423D01*
X0142904Y0017384D01*
X0142791Y0017348D01*
X0142677Y0017317D01*
X0142562Y0017289D01*
X0142447Y0017265D01*
X0142330Y0017245D01*
X0142213Y0017229D01*
X0142095Y0017217D01*
X0141977Y0017209D01*
X0141859Y0017205D01*
X0141741Y0017205D01*
X0141623Y0017209D01*
X0141505Y0017217D01*
X0141387Y0017229D01*
X0141270Y0017245D01*
X0141153Y0017265D01*
X0141038Y0017289D01*
X0140923Y0017317D01*
X0140809Y0017348D01*
X0140696Y0017384D01*
X0140584Y0017423D01*
X0140474Y0017466D01*
X0140366Y0017512D01*
X0140259Y0017563D01*
X0140153Y0017617D01*
X0140050Y0017674D01*
X0139949Y0017735D01*
X0139849Y0017799D01*
X0139752Y0017867D01*
X0139658Y0017937D01*
X0139565Y0018011D01*
X0139476Y0018088D01*
X0139389Y0018168D01*
X0139304Y0018251D01*
X0139223Y0018337D01*
X0139144Y0018425D01*
X0139069Y0018516D01*
X0138996Y0018610D01*
X0138927Y0018706D01*
X0138861Y0018804D01*
X0138799Y0018904D01*
X0138740Y0019006D01*
X0138684Y0019111D01*
X0138632Y0019217D01*
X0138584Y0019325D01*
X0138539Y0019434D01*
X0138498Y0019545D01*
X0138461Y0019657D01*
X0138427Y0019771D01*
X0138397Y0019885D01*
X0138372Y0020000D01*
X0138350Y0020117D01*
X0138332Y0020234D01*
X0138318Y0020351D01*
X0138308Y0020469D01*
X0138302Y0020587D01*
X0138300Y0020705D01*
X0138300Y0180705D02*
X0138302Y0180823D01*
X0138308Y0180941D01*
X0138318Y0181059D01*
X0138332Y0181176D01*
X0138350Y0181293D01*
X0138372Y0181410D01*
X0138397Y0181525D01*
X0138427Y0181639D01*
X0138461Y0181753D01*
X0138498Y0181865D01*
X0138539Y0181976D01*
X0138584Y0182085D01*
X0138632Y0182193D01*
X0138684Y0182299D01*
X0138740Y0182404D01*
X0138799Y0182506D01*
X0138861Y0182606D01*
X0138927Y0182704D01*
X0138996Y0182800D01*
X0139069Y0182894D01*
X0139144Y0182985D01*
X0139223Y0183073D01*
X0139304Y0183159D01*
X0139389Y0183242D01*
X0139476Y0183322D01*
X0139565Y0183399D01*
X0139658Y0183473D01*
X0139752Y0183543D01*
X0139849Y0183611D01*
X0139949Y0183675D01*
X0140050Y0183736D01*
X0140153Y0183793D01*
X0140259Y0183847D01*
X0140366Y0183898D01*
X0140474Y0183944D01*
X0140584Y0183987D01*
X0140696Y0184026D01*
X0140809Y0184062D01*
X0140923Y0184093D01*
X0141038Y0184121D01*
X0141153Y0184145D01*
X0141270Y0184165D01*
X0141387Y0184181D01*
X0141505Y0184193D01*
X0141623Y0184201D01*
X0141741Y0184205D01*
X0141859Y0184205D01*
X0141977Y0184201D01*
X0142095Y0184193D01*
X0142213Y0184181D01*
X0142330Y0184165D01*
X0142447Y0184145D01*
X0142562Y0184121D01*
X0142677Y0184093D01*
X0142791Y0184062D01*
X0142904Y0184026D01*
X0143016Y0183987D01*
X0143126Y0183944D01*
X0143234Y0183898D01*
X0143341Y0183847D01*
X0143447Y0183793D01*
X0143550Y0183736D01*
X0143651Y0183675D01*
X0143751Y0183611D01*
X0143848Y0183543D01*
X0143942Y0183473D01*
X0144035Y0183399D01*
X0144124Y0183322D01*
X0144211Y0183242D01*
X0144296Y0183159D01*
X0144377Y0183073D01*
X0144456Y0182985D01*
X0144531Y0182894D01*
X0144604Y0182800D01*
X0144673Y0182704D01*
X0144739Y0182606D01*
X0144801Y0182506D01*
X0144860Y0182404D01*
X0144916Y0182299D01*
X0144968Y0182193D01*
X0145016Y0182085D01*
X0145061Y0181976D01*
X0145102Y0181865D01*
X0145139Y0181753D01*
X0145173Y0181639D01*
X0145203Y0181525D01*
X0145228Y0181410D01*
X0145250Y0181293D01*
X0145268Y0181176D01*
X0145282Y0181059D01*
X0145292Y0180941D01*
X0145298Y0180823D01*
X0145300Y0180705D01*
X0145298Y0180587D01*
X0145292Y0180469D01*
X0145282Y0180351D01*
X0145268Y0180234D01*
X0145250Y0180117D01*
X0145228Y0180000D01*
X0145203Y0179885D01*
X0145173Y0179771D01*
X0145139Y0179657D01*
X0145102Y0179545D01*
X0145061Y0179434D01*
X0145016Y0179325D01*
X0144968Y0179217D01*
X0144916Y0179111D01*
X0144860Y0179006D01*
X0144801Y0178904D01*
X0144739Y0178804D01*
X0144673Y0178706D01*
X0144604Y0178610D01*
X0144531Y0178516D01*
X0144456Y0178425D01*
X0144377Y0178337D01*
X0144296Y0178251D01*
X0144211Y0178168D01*
X0144124Y0178088D01*
X0144035Y0178011D01*
X0143942Y0177937D01*
X0143848Y0177867D01*
X0143751Y0177799D01*
X0143651Y0177735D01*
X0143550Y0177674D01*
X0143447Y0177617D01*
X0143341Y0177563D01*
X0143234Y0177512D01*
X0143126Y0177466D01*
X0143016Y0177423D01*
X0142904Y0177384D01*
X0142791Y0177348D01*
X0142677Y0177317D01*
X0142562Y0177289D01*
X0142447Y0177265D01*
X0142330Y0177245D01*
X0142213Y0177229D01*
X0142095Y0177217D01*
X0141977Y0177209D01*
X0141859Y0177205D01*
X0141741Y0177205D01*
X0141623Y0177209D01*
X0141505Y0177217D01*
X0141387Y0177229D01*
X0141270Y0177245D01*
X0141153Y0177265D01*
X0141038Y0177289D01*
X0140923Y0177317D01*
X0140809Y0177348D01*
X0140696Y0177384D01*
X0140584Y0177423D01*
X0140474Y0177466D01*
X0140366Y0177512D01*
X0140259Y0177563D01*
X0140153Y0177617D01*
X0140050Y0177674D01*
X0139949Y0177735D01*
X0139849Y0177799D01*
X0139752Y0177867D01*
X0139658Y0177937D01*
X0139565Y0178011D01*
X0139476Y0178088D01*
X0139389Y0178168D01*
X0139304Y0178251D01*
X0139223Y0178337D01*
X0139144Y0178425D01*
X0139069Y0178516D01*
X0138996Y0178610D01*
X0138927Y0178706D01*
X0138861Y0178804D01*
X0138799Y0178904D01*
X0138740Y0179006D01*
X0138684Y0179111D01*
X0138632Y0179217D01*
X0138584Y0179325D01*
X0138539Y0179434D01*
X0138498Y0179545D01*
X0138461Y0179657D01*
X0138427Y0179771D01*
X0138397Y0179885D01*
X0138372Y0180000D01*
X0138350Y0180117D01*
X0138332Y0180234D01*
X0138318Y0180351D01*
X0138308Y0180469D01*
X0138302Y0180587D01*
X0138300Y0180705D01*
X0078300Y0180705D02*
X0078302Y0180823D01*
X0078308Y0180941D01*
X0078318Y0181059D01*
X0078332Y0181176D01*
X0078350Y0181293D01*
X0078372Y0181410D01*
X0078397Y0181525D01*
X0078427Y0181639D01*
X0078461Y0181753D01*
X0078498Y0181865D01*
X0078539Y0181976D01*
X0078584Y0182085D01*
X0078632Y0182193D01*
X0078684Y0182299D01*
X0078740Y0182404D01*
X0078799Y0182506D01*
X0078861Y0182606D01*
X0078927Y0182704D01*
X0078996Y0182800D01*
X0079069Y0182894D01*
X0079144Y0182985D01*
X0079223Y0183073D01*
X0079304Y0183159D01*
X0079389Y0183242D01*
X0079476Y0183322D01*
X0079565Y0183399D01*
X0079658Y0183473D01*
X0079752Y0183543D01*
X0079849Y0183611D01*
X0079949Y0183675D01*
X0080050Y0183736D01*
X0080153Y0183793D01*
X0080259Y0183847D01*
X0080366Y0183898D01*
X0080474Y0183944D01*
X0080584Y0183987D01*
X0080696Y0184026D01*
X0080809Y0184062D01*
X0080923Y0184093D01*
X0081038Y0184121D01*
X0081153Y0184145D01*
X0081270Y0184165D01*
X0081387Y0184181D01*
X0081505Y0184193D01*
X0081623Y0184201D01*
X0081741Y0184205D01*
X0081859Y0184205D01*
X0081977Y0184201D01*
X0082095Y0184193D01*
X0082213Y0184181D01*
X0082330Y0184165D01*
X0082447Y0184145D01*
X0082562Y0184121D01*
X0082677Y0184093D01*
X0082791Y0184062D01*
X0082904Y0184026D01*
X0083016Y0183987D01*
X0083126Y0183944D01*
X0083234Y0183898D01*
X0083341Y0183847D01*
X0083447Y0183793D01*
X0083550Y0183736D01*
X0083651Y0183675D01*
X0083751Y0183611D01*
X0083848Y0183543D01*
X0083942Y0183473D01*
X0084035Y0183399D01*
X0084124Y0183322D01*
X0084211Y0183242D01*
X0084296Y0183159D01*
X0084377Y0183073D01*
X0084456Y0182985D01*
X0084531Y0182894D01*
X0084604Y0182800D01*
X0084673Y0182704D01*
X0084739Y0182606D01*
X0084801Y0182506D01*
X0084860Y0182404D01*
X0084916Y0182299D01*
X0084968Y0182193D01*
X0085016Y0182085D01*
X0085061Y0181976D01*
X0085102Y0181865D01*
X0085139Y0181753D01*
X0085173Y0181639D01*
X0085203Y0181525D01*
X0085228Y0181410D01*
X0085250Y0181293D01*
X0085268Y0181176D01*
X0085282Y0181059D01*
X0085292Y0180941D01*
X0085298Y0180823D01*
X0085300Y0180705D01*
X0085298Y0180587D01*
X0085292Y0180469D01*
X0085282Y0180351D01*
X0085268Y0180234D01*
X0085250Y0180117D01*
X0085228Y0180000D01*
X0085203Y0179885D01*
X0085173Y0179771D01*
X0085139Y0179657D01*
X0085102Y0179545D01*
X0085061Y0179434D01*
X0085016Y0179325D01*
X0084968Y0179217D01*
X0084916Y0179111D01*
X0084860Y0179006D01*
X0084801Y0178904D01*
X0084739Y0178804D01*
X0084673Y0178706D01*
X0084604Y0178610D01*
X0084531Y0178516D01*
X0084456Y0178425D01*
X0084377Y0178337D01*
X0084296Y0178251D01*
X0084211Y0178168D01*
X0084124Y0178088D01*
X0084035Y0178011D01*
X0083942Y0177937D01*
X0083848Y0177867D01*
X0083751Y0177799D01*
X0083651Y0177735D01*
X0083550Y0177674D01*
X0083447Y0177617D01*
X0083341Y0177563D01*
X0083234Y0177512D01*
X0083126Y0177466D01*
X0083016Y0177423D01*
X0082904Y0177384D01*
X0082791Y0177348D01*
X0082677Y0177317D01*
X0082562Y0177289D01*
X0082447Y0177265D01*
X0082330Y0177245D01*
X0082213Y0177229D01*
X0082095Y0177217D01*
X0081977Y0177209D01*
X0081859Y0177205D01*
X0081741Y0177205D01*
X0081623Y0177209D01*
X0081505Y0177217D01*
X0081387Y0177229D01*
X0081270Y0177245D01*
X0081153Y0177265D01*
X0081038Y0177289D01*
X0080923Y0177317D01*
X0080809Y0177348D01*
X0080696Y0177384D01*
X0080584Y0177423D01*
X0080474Y0177466D01*
X0080366Y0177512D01*
X0080259Y0177563D01*
X0080153Y0177617D01*
X0080050Y0177674D01*
X0079949Y0177735D01*
X0079849Y0177799D01*
X0079752Y0177867D01*
X0079658Y0177937D01*
X0079565Y0178011D01*
X0079476Y0178088D01*
X0079389Y0178168D01*
X0079304Y0178251D01*
X0079223Y0178337D01*
X0079144Y0178425D01*
X0079069Y0178516D01*
X0078996Y0178610D01*
X0078927Y0178706D01*
X0078861Y0178804D01*
X0078799Y0178904D01*
X0078740Y0179006D01*
X0078684Y0179111D01*
X0078632Y0179217D01*
X0078584Y0179325D01*
X0078539Y0179434D01*
X0078498Y0179545D01*
X0078461Y0179657D01*
X0078427Y0179771D01*
X0078397Y0179885D01*
X0078372Y0180000D01*
X0078350Y0180117D01*
X0078332Y0180234D01*
X0078318Y0180351D01*
X0078308Y0180469D01*
X0078302Y0180587D01*
X0078300Y0180705D01*
D11*
X0081800Y0170705D03*
D12*
X0081800Y0160705D03*
X0081800Y0150705D03*
X0081800Y0140705D03*
X0081800Y0130705D03*
X0081800Y0120705D03*
X0081800Y0110705D03*
X0081800Y0100705D03*
X0081800Y0090705D03*
X0081800Y0080705D03*
X0081800Y0070705D03*
X0081800Y0060705D03*
X0081800Y0050705D03*
X0081800Y0040705D03*
X0081800Y0030705D03*
X0141800Y0030705D03*
X0141800Y0040705D03*
X0141800Y0050705D03*
X0141800Y0060705D03*
X0141800Y0070705D03*
X0141800Y0080705D03*
X0141800Y0090705D03*
X0141800Y0100705D03*
X0141800Y0110705D03*
X0141800Y0120705D03*
X0141800Y0130705D03*
X0141800Y0140705D03*
X0141800Y0150705D03*
X0141800Y0160705D03*
X0141800Y0170705D03*
D13*
X0234300Y0043205D03*
X0234300Y0023205D03*
D14*
X0209400Y0025705D02*
X0204200Y0025705D01*
X0204200Y0035705D02*
X0209400Y0035705D01*
X0209400Y0045705D02*
X0204200Y0045705D01*
X0204200Y0055705D02*
X0209400Y0055705D01*
X0179400Y0055705D02*
X0174200Y0055705D01*
X0174200Y0045705D02*
X0179400Y0045705D01*
X0179400Y0035705D02*
X0174200Y0035705D01*
X0174200Y0025705D02*
X0179400Y0025705D01*
X0279200Y0025705D02*
X0284400Y0025705D01*
X0284400Y0035705D02*
X0279200Y0035705D01*
X0279200Y0045705D02*
X0284400Y0045705D01*
X0284400Y0055705D02*
X0279200Y0055705D01*
X0309200Y0055705D02*
X0314400Y0055705D01*
X0314400Y0045705D02*
X0309200Y0045705D01*
X0309200Y0035705D02*
X0314400Y0035705D01*
X0314400Y0025705D02*
X0309200Y0025705D01*
X0209400Y0120705D02*
X0204200Y0120705D01*
X0204200Y0130705D02*
X0209400Y0130705D01*
X0209400Y0140705D02*
X0204200Y0140705D01*
X0204200Y0150705D02*
X0209400Y0150705D01*
X0209400Y0160705D02*
X0204200Y0160705D01*
X0204200Y0170705D02*
X0209400Y0170705D01*
X0209400Y0180705D02*
X0204200Y0180705D01*
X0179400Y0180705D02*
X0174200Y0180705D01*
X0174200Y0170705D02*
X0179400Y0170705D01*
X0179400Y0160705D02*
X0174200Y0160705D01*
X0174200Y0150705D02*
X0179400Y0150705D01*
X0179400Y0140705D02*
X0174200Y0140705D01*
X0174200Y0130705D02*
X0179400Y0130705D01*
X0179400Y0120705D02*
X0174200Y0120705D01*
X0059400Y0125705D02*
X0054200Y0125705D01*
X0054200Y0135705D02*
X0059400Y0135705D01*
X0059400Y0145705D02*
X0054200Y0145705D01*
X0029400Y0145705D02*
X0024200Y0145705D01*
X0024200Y0135705D02*
X0029400Y0135705D01*
X0029400Y0125705D02*
X0024200Y0125705D01*
X0024200Y0115705D02*
X0029400Y0115705D01*
X0029400Y0105705D02*
X0024200Y0105705D01*
X0024200Y0095705D02*
X0029400Y0095705D01*
X0029400Y0085705D02*
X0024200Y0085705D01*
X0054200Y0085705D02*
X0059400Y0085705D01*
X0059400Y0095705D02*
X0054200Y0095705D01*
X0054200Y0105705D02*
X0059400Y0105705D01*
X0059400Y0115705D02*
X0054200Y0115705D01*
D15*
X0021800Y0060705D03*
X0021800Y0020705D03*
X0161800Y0025705D03*
X0161800Y0065705D03*
X0231800Y0060705D03*
X0256800Y0060705D03*
X0256800Y0083205D03*
X0276800Y0090705D03*
X0316800Y0090705D03*
X0331800Y0075705D03*
X0331800Y0035705D03*
X0256800Y0020705D03*
X0231800Y0100705D03*
X0256800Y0123205D03*
X0156800Y0155705D03*
X0156800Y0195705D03*
D16*
X0181800Y0080705D03*
X0191800Y0080705D03*
X0201800Y0080705D03*
D17*
X0059674Y0029642D03*
X0051800Y0029642D03*
X0043926Y0029642D03*
X0043926Y0021768D03*
X0051800Y0021768D03*
X0059674Y0021768D03*
D18*
X0063908Y0023493D02*
X0073971Y0023493D01*
X0073500Y0022356D02*
X0074764Y0025406D01*
X0077098Y0027741D01*
X0078144Y0028174D01*
X0078091Y0028227D01*
X0077425Y0029835D01*
X0077425Y0031575D01*
X0078091Y0033183D01*
X0079322Y0034413D01*
X0080930Y0035080D01*
X0082670Y0035080D01*
X0084278Y0034413D01*
X0085509Y0033183D01*
X0086175Y0031575D01*
X0086175Y0029835D01*
X0085509Y0028227D01*
X0085456Y0028174D01*
X0086502Y0027741D01*
X0088836Y0025406D01*
X0090100Y0022356D01*
X0090100Y0019054D01*
X0088836Y0016003D01*
X0088338Y0015505D01*
X0135262Y0015505D01*
X0134764Y0016003D01*
X0133500Y0019054D01*
X0133500Y0022356D01*
X0134764Y0025406D01*
X0137098Y0027741D01*
X0138144Y0028174D01*
X0138091Y0028227D01*
X0137425Y0029835D01*
X0137425Y0031575D01*
X0138091Y0033183D01*
X0139322Y0034413D01*
X0140930Y0035080D01*
X0142670Y0035080D01*
X0144278Y0034413D01*
X0145509Y0033183D01*
X0146175Y0031575D01*
X0146175Y0029835D01*
X0145509Y0028227D01*
X0145456Y0028174D01*
X0146502Y0027741D01*
X0148836Y0025406D01*
X0150100Y0022356D01*
X0150100Y0019054D01*
X0148836Y0016003D01*
X0148338Y0015505D01*
X0345701Y0015505D01*
X0345701Y0200865D01*
X0011600Y0200865D01*
X0011600Y0015505D01*
X0023606Y0015505D01*
X0022806Y0016305D01*
X0019977Y0016305D01*
X0017400Y0018882D01*
X0017400Y0022527D01*
X0019977Y0025105D01*
X0023623Y0025105D01*
X0026200Y0022527D01*
X0026200Y0019699D01*
X0027794Y0018105D01*
X0041124Y0018105D01*
X0040050Y0019178D01*
X0039354Y0020858D01*
X0039354Y0022677D01*
X0040050Y0024357D01*
X0041336Y0025643D01*
X0041484Y0025705D01*
X0041336Y0025766D01*
X0040050Y0027052D01*
X0039354Y0028732D01*
X0039354Y0030551D01*
X0040050Y0032231D01*
X0041336Y0033517D01*
X0043017Y0034213D01*
X0044835Y0034213D01*
X0046516Y0033517D01*
X0047802Y0032231D01*
X0047863Y0032083D01*
X0047924Y0032231D01*
X0049210Y0033517D01*
X0050891Y0034213D01*
X0052709Y0034213D01*
X0054390Y0033517D01*
X0055676Y0032231D01*
X0055759Y0032029D01*
X0055764Y0032038D01*
X0056187Y0032620D01*
X0056696Y0033129D01*
X0057278Y0033552D01*
X0057919Y0033878D01*
X0058603Y0034101D01*
X0059314Y0034213D01*
X0059588Y0034213D01*
X0059588Y0029728D01*
X0059760Y0029728D01*
X0059760Y0034213D01*
X0060034Y0034213D01*
X0060745Y0034101D01*
X0061429Y0033878D01*
X0062070Y0033552D01*
X0062652Y0033129D01*
X0063161Y0032620D01*
X0063584Y0032038D01*
X0063911Y0031397D01*
X0064133Y0030712D01*
X0064246Y0030002D01*
X0064246Y0029728D01*
X0059760Y0029728D01*
X0059760Y0029556D01*
X0064246Y0029556D01*
X0064246Y0029282D01*
X0064133Y0028571D01*
X0063911Y0027887D01*
X0063584Y0027246D01*
X0063161Y0026663D01*
X0062652Y0026155D01*
X0062070Y0025732D01*
X0062061Y0025727D01*
X0062264Y0025643D01*
X0063550Y0024357D01*
X0064246Y0022677D01*
X0064246Y0020858D01*
X0064211Y0020775D01*
X0064200Y0020620D01*
X0064200Y0020227D01*
X0064166Y0020146D01*
X0064160Y0020058D01*
X0063985Y0019708D01*
X0063835Y0019345D01*
X0063772Y0019283D01*
X0063733Y0019204D01*
X0063437Y0018947D01*
X0059994Y0015505D01*
X0075262Y0015505D01*
X0074764Y0016003D01*
X0073500Y0019054D01*
X0073500Y0022356D01*
X0073500Y0021894D02*
X0064246Y0021894D01*
X0064200Y0020296D02*
X0073500Y0020296D01*
X0073648Y0018697D02*
X0063187Y0018697D01*
X0061588Y0017099D02*
X0074310Y0017099D01*
X0074633Y0025091D02*
X0062816Y0025091D01*
X0063180Y0026690D02*
X0076047Y0026690D01*
X0078066Y0028288D02*
X0064041Y0028288D01*
X0064246Y0029887D02*
X0077425Y0029887D01*
X0077425Y0031485D02*
X0063866Y0031485D01*
X0062697Y0033084D02*
X0078050Y0033084D01*
X0079971Y0034682D02*
X0011600Y0034682D01*
X0011600Y0033084D02*
X0040903Y0033084D01*
X0039741Y0031485D02*
X0011600Y0031485D01*
X0011600Y0029887D02*
X0039354Y0029887D01*
X0039538Y0028288D02*
X0011600Y0028288D01*
X0011600Y0026690D02*
X0040413Y0026690D01*
X0040784Y0025091D02*
X0023636Y0025091D01*
X0025234Y0023493D02*
X0039692Y0023493D01*
X0039354Y0021894D02*
X0026200Y0021894D01*
X0026200Y0020296D02*
X0039587Y0020296D01*
X0040531Y0018697D02*
X0027202Y0018697D01*
X0019183Y0017099D02*
X0011600Y0017099D01*
X0011600Y0018697D02*
X0017585Y0018697D01*
X0017400Y0020296D02*
X0011600Y0020296D01*
X0011600Y0021894D02*
X0017400Y0021894D01*
X0018366Y0023493D02*
X0011600Y0023493D01*
X0011600Y0025091D02*
X0019964Y0025091D01*
X0011600Y0036281D02*
X0169800Y0036281D01*
X0169800Y0036580D02*
X0169800Y0034830D01*
X0170470Y0033212D01*
X0171708Y0031975D01*
X0173325Y0031305D01*
X0180275Y0031305D01*
X0181892Y0031975D01*
X0183130Y0033212D01*
X0183800Y0034830D01*
X0183800Y0036580D01*
X0183130Y0038197D01*
X0181892Y0039435D01*
X0180275Y0040105D01*
X0173325Y0040105D01*
X0171708Y0039435D01*
X0170470Y0038197D01*
X0169800Y0036580D01*
X0170338Y0037879D02*
X0145162Y0037879D01*
X0145509Y0038227D02*
X0146175Y0039835D01*
X0146175Y0041575D01*
X0145509Y0043183D01*
X0144278Y0044413D01*
X0142670Y0045080D01*
X0140930Y0045080D01*
X0139322Y0044413D01*
X0138091Y0043183D01*
X0137425Y0041575D01*
X0137425Y0039835D01*
X0138091Y0038227D01*
X0139322Y0036996D01*
X0140930Y0036330D01*
X0142670Y0036330D01*
X0144278Y0036996D01*
X0145509Y0038227D01*
X0146027Y0039478D02*
X0171812Y0039478D01*
X0173325Y0041305D02*
X0171708Y0041975D01*
X0170470Y0043212D01*
X0169800Y0044830D01*
X0169800Y0046580D01*
X0170470Y0048197D01*
X0171708Y0049435D01*
X0173325Y0050105D01*
X0180275Y0050105D01*
X0181892Y0049435D01*
X0183130Y0048197D01*
X0183800Y0046580D01*
X0183800Y0044830D01*
X0183130Y0043212D01*
X0181892Y0041975D01*
X0180275Y0041305D01*
X0173325Y0041305D01*
X0171007Y0042675D02*
X0145719Y0042675D01*
X0146175Y0041076D02*
X0194400Y0041076D01*
X0194400Y0039478D02*
X0181788Y0039478D01*
X0183262Y0037879D02*
X0194400Y0037879D01*
X0194400Y0036281D02*
X0183800Y0036281D01*
X0183739Y0034682D02*
X0194400Y0034682D01*
X0194400Y0034199D02*
X0180806Y0020605D01*
X0170294Y0020605D01*
X0166200Y0024699D01*
X0166200Y0027527D01*
X0163623Y0030105D01*
X0159977Y0030105D01*
X0157400Y0027527D01*
X0157400Y0023882D01*
X0159977Y0021305D01*
X0162806Y0021305D01*
X0167265Y0016845D01*
X0167941Y0016170D01*
X0168823Y0015805D01*
X0182277Y0015805D01*
X0183159Y0016170D01*
X0198159Y0031170D01*
X0198835Y0031845D01*
X0199200Y0032727D01*
X0199200Y0040805D01*
X0202277Y0040805D01*
X0203159Y0041170D01*
X0203303Y0041314D01*
X0203325Y0041305D01*
X0210275Y0041305D01*
X0211892Y0041975D01*
X0213130Y0043212D01*
X0213800Y0044830D01*
X0213800Y0045805D01*
X0219777Y0045805D01*
X0220659Y0046170D01*
X0221335Y0046845D01*
X0230794Y0056305D01*
X0233623Y0056305D01*
X0236200Y0058882D01*
X0236200Y0062527D01*
X0233623Y0065105D01*
X0229977Y0065105D01*
X0227400Y0062527D01*
X0227400Y0059699D01*
X0218306Y0050605D01*
X0211323Y0050605D01*
X0210441Y0050239D01*
X0210297Y0050096D01*
X0210275Y0050105D01*
X0203325Y0050105D01*
X0201708Y0049435D01*
X0200470Y0048197D01*
X0199800Y0046580D01*
X0199800Y0045605D01*
X0196323Y0045605D01*
X0195441Y0045239D01*
X0194765Y0044564D01*
X0194400Y0043682D01*
X0194400Y0034199D01*
X0193285Y0033084D02*
X0183002Y0033084D01*
X0180711Y0031485D02*
X0191687Y0031485D01*
X0190088Y0029887D02*
X0180801Y0029887D01*
X0180275Y0030105D02*
X0173325Y0030105D01*
X0171708Y0029435D01*
X0170470Y0028197D01*
X0169800Y0026580D01*
X0169800Y0024830D01*
X0170470Y0023212D01*
X0171708Y0021975D01*
X0173325Y0021305D01*
X0180275Y0021305D01*
X0181892Y0021975D01*
X0183130Y0023212D01*
X0183800Y0024830D01*
X0183800Y0026580D01*
X0183130Y0028197D01*
X0181892Y0029435D01*
X0180275Y0030105D01*
X0183039Y0028288D02*
X0188490Y0028288D01*
X0186891Y0026690D02*
X0183754Y0026690D01*
X0183800Y0025091D02*
X0185292Y0025091D01*
X0183694Y0023493D02*
X0183246Y0023493D01*
X0182095Y0021894D02*
X0181699Y0021894D01*
X0187285Y0020296D02*
X0230209Y0020296D01*
X0229350Y0021154D02*
X0232250Y0018255D01*
X0236350Y0018255D01*
X0239250Y0021154D01*
X0239250Y0025255D01*
X0236350Y0028155D01*
X0232250Y0028155D01*
X0229350Y0025255D01*
X0229350Y0021154D01*
X0229350Y0021894D02*
X0211699Y0021894D01*
X0211892Y0021975D02*
X0213130Y0023212D01*
X0213800Y0024830D01*
X0213800Y0026580D01*
X0213130Y0028197D01*
X0211892Y0029435D01*
X0210275Y0030105D01*
X0203325Y0030105D01*
X0201708Y0029435D01*
X0200470Y0028197D01*
X0199800Y0026580D01*
X0199800Y0024830D01*
X0200470Y0023212D01*
X0201708Y0021975D01*
X0203325Y0021305D01*
X0210275Y0021305D01*
X0211892Y0021975D01*
X0213246Y0023493D02*
X0229350Y0023493D01*
X0229350Y0025091D02*
X0213800Y0025091D01*
X0213754Y0026690D02*
X0230785Y0026690D01*
X0237815Y0026690D02*
X0274901Y0026690D01*
X0274908Y0026735D02*
X0274800Y0026051D01*
X0274800Y0025705D01*
X0281800Y0025705D01*
X0281800Y0025705D01*
X0281800Y0030105D01*
X0278854Y0030105D01*
X0278170Y0029996D01*
X0277511Y0029782D01*
X0276894Y0029468D01*
X0276334Y0029061D01*
X0275844Y0028571D01*
X0275437Y0028011D01*
X0275122Y0027394D01*
X0274908Y0026735D01*
X0274800Y0025705D02*
X0274800Y0025358D01*
X0274908Y0024674D01*
X0275122Y0024016D01*
X0275437Y0023399D01*
X0275844Y0022838D01*
X0276334Y0022349D01*
X0276894Y0021942D01*
X0277511Y0021627D01*
X0278170Y0021413D01*
X0278854Y0021305D01*
X0281800Y0021305D01*
X0284746Y0021305D01*
X0285430Y0021413D01*
X0286089Y0021627D01*
X0286706Y0021942D01*
X0287266Y0022349D01*
X0287756Y0022838D01*
X0288163Y0023399D01*
X0288478Y0024016D01*
X0288692Y0024674D01*
X0288800Y0025358D01*
X0288800Y0025705D01*
X0288800Y0026051D01*
X0288692Y0026735D01*
X0288478Y0027394D01*
X0288163Y0028011D01*
X0287756Y0028571D01*
X0287266Y0029061D01*
X0286706Y0029468D01*
X0286089Y0029782D01*
X0285430Y0029996D01*
X0284746Y0030105D01*
X0281800Y0030105D01*
X0281800Y0025705D01*
X0288800Y0025705D01*
X0281800Y0025705D01*
X0281800Y0025705D01*
X0281800Y0025705D01*
X0274800Y0025705D01*
X0274842Y0025091D02*
X0258636Y0025091D01*
X0258623Y0025105D02*
X0256800Y0025105D01*
X0254977Y0025105D01*
X0252400Y0022527D01*
X0252400Y0020705D01*
X0256800Y0020705D01*
X0256800Y0020705D01*
X0256800Y0025105D01*
X0256800Y0020705D01*
X0261200Y0020705D01*
X0261200Y0022527D01*
X0258623Y0025105D01*
X0256800Y0025091D02*
X0256800Y0025091D01*
X0256800Y0023493D02*
X0256800Y0023493D01*
X0256800Y0021894D02*
X0256800Y0021894D01*
X0256800Y0020705D02*
X0256800Y0020705D01*
X0256800Y0020705D01*
X0261200Y0020705D01*
X0261200Y0018882D01*
X0258623Y0016305D01*
X0256800Y0016305D01*
X0256800Y0020705D01*
X0252400Y0020705D01*
X0252400Y0018882D01*
X0254977Y0016305D01*
X0256800Y0016305D01*
X0256800Y0020705D01*
X0256800Y0020705D01*
X0256800Y0020296D02*
X0256800Y0020296D01*
X0256800Y0018697D02*
X0256800Y0018697D01*
X0256800Y0017099D02*
X0256800Y0017099D01*
X0259417Y0017099D02*
X0345701Y0017099D01*
X0345701Y0018697D02*
X0261015Y0018697D01*
X0261200Y0020296D02*
X0345701Y0020296D01*
X0345701Y0021894D02*
X0316699Y0021894D01*
X0316892Y0021975D02*
X0318130Y0023212D01*
X0318800Y0024830D01*
X0318800Y0026580D01*
X0318130Y0028197D01*
X0316892Y0029435D01*
X0315275Y0030105D01*
X0308325Y0030105D01*
X0306708Y0029435D01*
X0305470Y0028197D01*
X0304800Y0026580D01*
X0304800Y0024830D01*
X0305470Y0023212D01*
X0306708Y0021975D01*
X0308325Y0021305D01*
X0315275Y0021305D01*
X0316892Y0021975D01*
X0318246Y0023493D02*
X0345701Y0023493D01*
X0345701Y0025091D02*
X0318800Y0025091D01*
X0318754Y0026690D02*
X0345701Y0026690D01*
X0345701Y0028288D02*
X0318039Y0028288D01*
X0315801Y0029887D02*
X0345701Y0029887D01*
X0345701Y0031485D02*
X0333803Y0031485D01*
X0333623Y0031305D02*
X0336200Y0033882D01*
X0336200Y0037527D01*
X0333623Y0040105D01*
X0329977Y0040105D01*
X0327400Y0037527D01*
X0327400Y0033882D01*
X0329977Y0031305D01*
X0333623Y0031305D01*
X0335402Y0033084D02*
X0345701Y0033084D01*
X0345701Y0034682D02*
X0336200Y0034682D01*
X0336200Y0036281D02*
X0345701Y0036281D01*
X0345701Y0037879D02*
X0335848Y0037879D01*
X0334249Y0039478D02*
X0345701Y0039478D01*
X0345701Y0041076D02*
X0239172Y0041076D01*
X0239250Y0041154D02*
X0236350Y0038255D01*
X0232250Y0038255D01*
X0229350Y0041154D01*
X0229350Y0045255D01*
X0232250Y0048155D01*
X0236350Y0048155D01*
X0239250Y0045255D01*
X0239250Y0041154D01*
X0239250Y0042675D02*
X0276007Y0042675D01*
X0275470Y0043212D02*
X0276708Y0041975D01*
X0278325Y0041305D01*
X0285275Y0041305D01*
X0286892Y0041975D01*
X0288130Y0043212D01*
X0288800Y0044830D01*
X0288800Y0046580D01*
X0288130Y0048197D01*
X0286892Y0049435D01*
X0285275Y0050105D01*
X0278325Y0050105D01*
X0276708Y0049435D01*
X0275470Y0048197D01*
X0274800Y0046580D01*
X0274800Y0044830D01*
X0275470Y0043212D01*
X0275030Y0044273D02*
X0239250Y0044273D01*
X0238633Y0045872D02*
X0274800Y0045872D01*
X0275169Y0047470D02*
X0237035Y0047470D01*
X0231565Y0047470D02*
X0221960Y0047470D01*
X0223558Y0049069D02*
X0276342Y0049069D01*
X0277511Y0051627D02*
X0276894Y0051942D01*
X0276334Y0052349D01*
X0275844Y0052838D01*
X0275437Y0053399D01*
X0275122Y0054016D01*
X0274908Y0054674D01*
X0274800Y0055358D01*
X0274800Y0055705D01*
X0281800Y0055705D01*
X0281800Y0055705D01*
X0281800Y0060105D01*
X0278854Y0060105D01*
X0278170Y0059996D01*
X0277511Y0059782D01*
X0276894Y0059468D01*
X0276334Y0059061D01*
X0275844Y0058571D01*
X0275437Y0058011D01*
X0275122Y0057394D01*
X0274908Y0056735D01*
X0274800Y0056051D01*
X0274800Y0055705D01*
X0281800Y0055705D01*
X0281800Y0060105D01*
X0284746Y0060105D01*
X0285430Y0059996D01*
X0286089Y0059782D01*
X0286706Y0059468D01*
X0287266Y0059061D01*
X0287756Y0058571D01*
X0288163Y0058011D01*
X0288478Y0057394D01*
X0288692Y0056735D01*
X0288800Y0056051D01*
X0288800Y0055705D01*
X0281800Y0055705D01*
X0281800Y0055705D01*
X0281800Y0055705D01*
X0288800Y0055705D01*
X0288800Y0055358D01*
X0288692Y0054674D01*
X0288478Y0054016D01*
X0288163Y0053399D01*
X0287756Y0052838D01*
X0287266Y0052349D01*
X0286706Y0051942D01*
X0286089Y0051627D01*
X0285430Y0051413D01*
X0284746Y0051305D01*
X0281800Y0051305D01*
X0281800Y0055705D01*
X0281800Y0055705D01*
X0281800Y0051305D01*
X0278854Y0051305D01*
X0278170Y0051413D01*
X0277511Y0051627D01*
X0276447Y0052266D02*
X0226755Y0052266D01*
X0225157Y0050668D02*
X0300943Y0050668D01*
X0299345Y0052266D02*
X0287153Y0052266D01*
X0288401Y0053865D02*
X0297746Y0053865D01*
X0296148Y0055463D02*
X0288800Y0055463D01*
X0288586Y0057062D02*
X0294549Y0057062D01*
X0292951Y0058660D02*
X0287667Y0058660D01*
X0291352Y0060259D02*
X0261200Y0060259D01*
X0261200Y0058882D02*
X0258623Y0056305D01*
X0254977Y0056305D01*
X0252400Y0058882D01*
X0252400Y0062527D01*
X0254977Y0065105D01*
X0258623Y0065105D01*
X0261200Y0062527D01*
X0261200Y0058882D01*
X0260978Y0058660D02*
X0275933Y0058660D01*
X0275014Y0057062D02*
X0259379Y0057062D01*
X0254221Y0057062D02*
X0234379Y0057062D01*
X0235978Y0058660D02*
X0252622Y0058660D01*
X0252400Y0060259D02*
X0236200Y0060259D01*
X0236200Y0061857D02*
X0252400Y0061857D01*
X0253328Y0063456D02*
X0235272Y0063456D01*
X0233673Y0065054D02*
X0254927Y0065054D01*
X0258673Y0065054D02*
X0286556Y0065054D01*
X0285806Y0065805D02*
X0304868Y0046743D01*
X0304800Y0046580D01*
X0304800Y0044830D01*
X0305470Y0043212D01*
X0306708Y0041975D01*
X0308325Y0041305D01*
X0315275Y0041305D01*
X0316892Y0041975D01*
X0318130Y0043212D01*
X0318800Y0044830D01*
X0318800Y0046580D01*
X0318130Y0048197D01*
X0316892Y0049435D01*
X0315275Y0050105D01*
X0308325Y0050105D01*
X0308303Y0050096D01*
X0288159Y0070239D01*
X0287277Y0070605D01*
X0176323Y0070605D01*
X0175441Y0070239D01*
X0165806Y0060605D01*
X0155294Y0060605D01*
X0146142Y0069756D01*
X0146175Y0069835D01*
X0146175Y0071575D01*
X0145509Y0073183D01*
X0144278Y0074413D01*
X0142670Y0075080D01*
X0140930Y0075080D01*
X0139322Y0074413D01*
X0138091Y0073183D01*
X0137425Y0071575D01*
X0137425Y0069835D01*
X0138091Y0068227D01*
X0139322Y0066996D01*
X0140930Y0066330D01*
X0142670Y0066330D01*
X0142748Y0066362D01*
X0152265Y0056845D01*
X0152941Y0056170D01*
X0153823Y0055805D01*
X0167277Y0055805D01*
X0168159Y0056170D01*
X0177794Y0065805D01*
X0285806Y0065805D01*
X0288155Y0063456D02*
X0260272Y0063456D01*
X0261200Y0061857D02*
X0289754Y0061857D01*
X0293345Y0065054D02*
X0317755Y0065054D01*
X0316157Y0063456D02*
X0294943Y0063456D01*
X0296542Y0061857D02*
X0314558Y0061857D01*
X0312960Y0060259D02*
X0298140Y0060259D01*
X0299739Y0058660D02*
X0305933Y0058660D01*
X0305470Y0058197D02*
X0304800Y0056580D01*
X0304800Y0054830D01*
X0305470Y0053212D01*
X0306708Y0051975D01*
X0308325Y0051305D01*
X0315275Y0051305D01*
X0316892Y0051975D01*
X0318130Y0053212D01*
X0318800Y0054830D01*
X0318800Y0056580D01*
X0318130Y0058197D01*
X0317908Y0058419D01*
X0330794Y0071305D01*
X0333623Y0071305D01*
X0336200Y0073882D01*
X0336200Y0077527D01*
X0333623Y0080105D01*
X0329977Y0080105D01*
X0327400Y0077527D01*
X0327400Y0074699D01*
X0312806Y0060105D01*
X0308325Y0060105D01*
X0306708Y0059435D01*
X0305470Y0058197D01*
X0304999Y0057062D02*
X0301337Y0057062D01*
X0302936Y0055463D02*
X0304800Y0055463D01*
X0304534Y0053865D02*
X0305200Y0053865D01*
X0306133Y0052266D02*
X0306416Y0052266D01*
X0307731Y0050668D02*
X0345701Y0050668D01*
X0345701Y0052266D02*
X0317184Y0052266D01*
X0318400Y0053865D02*
X0345701Y0053865D01*
X0345701Y0055463D02*
X0318800Y0055463D01*
X0318601Y0057062D02*
X0345701Y0057062D01*
X0345701Y0058660D02*
X0318149Y0058660D01*
X0319748Y0060259D02*
X0345701Y0060259D01*
X0345701Y0061857D02*
X0321346Y0061857D01*
X0322945Y0063456D02*
X0345701Y0063456D01*
X0345701Y0065054D02*
X0324543Y0065054D01*
X0326142Y0066653D02*
X0345701Y0066653D01*
X0345701Y0068251D02*
X0327741Y0068251D01*
X0329339Y0069850D02*
X0345701Y0069850D01*
X0345701Y0071448D02*
X0333766Y0071448D01*
X0335364Y0073047D02*
X0345701Y0073047D01*
X0345701Y0074645D02*
X0336200Y0074645D01*
X0336200Y0076244D02*
X0345701Y0076244D01*
X0345701Y0077842D02*
X0335885Y0077842D01*
X0334287Y0079441D02*
X0345701Y0079441D01*
X0345701Y0081039D02*
X0260857Y0081039D01*
X0261200Y0081382D02*
X0258623Y0078805D01*
X0254977Y0078805D01*
X0252400Y0081382D01*
X0252400Y0085027D01*
X0254977Y0087605D01*
X0258623Y0087605D01*
X0261200Y0085027D01*
X0261200Y0081382D01*
X0261200Y0082638D02*
X0345701Y0082638D01*
X0345701Y0084236D02*
X0261200Y0084236D01*
X0260392Y0085835D02*
X0345701Y0085835D01*
X0345701Y0087433D02*
X0319751Y0087433D01*
X0318623Y0086305D02*
X0321200Y0088882D01*
X0321200Y0092527D01*
X0318623Y0095105D01*
X0314977Y0095105D01*
X0312400Y0092527D01*
X0312400Y0088882D01*
X0314977Y0086305D01*
X0318623Y0086305D01*
X0321200Y0089032D02*
X0345701Y0089032D01*
X0345701Y0090630D02*
X0321200Y0090630D01*
X0321200Y0092229D02*
X0345701Y0092229D01*
X0345701Y0093827D02*
X0319900Y0093827D01*
X0313700Y0093827D02*
X0279900Y0093827D01*
X0278623Y0095105D02*
X0274977Y0095105D01*
X0272400Y0092527D01*
X0272400Y0088882D01*
X0274977Y0086305D01*
X0278623Y0086305D01*
X0281200Y0088882D01*
X0281200Y0092527D01*
X0278623Y0095105D01*
X0281200Y0092229D02*
X0312400Y0092229D01*
X0312400Y0090630D02*
X0281200Y0090630D01*
X0281200Y0089032D02*
X0312400Y0089032D01*
X0313849Y0087433D02*
X0279751Y0087433D01*
X0273849Y0087433D02*
X0258794Y0087433D01*
X0254806Y0087433D02*
X0144715Y0087433D01*
X0144278Y0086996D02*
X0145509Y0088227D01*
X0146175Y0089835D01*
X0146175Y0091575D01*
X0145509Y0093183D01*
X0144278Y0094413D01*
X0142670Y0095080D01*
X0140930Y0095080D01*
X0139322Y0094413D01*
X0138091Y0093183D01*
X0137425Y0091575D01*
X0137425Y0089835D01*
X0138091Y0088227D01*
X0139322Y0086996D01*
X0140930Y0086330D01*
X0142670Y0086330D01*
X0144278Y0086996D01*
X0142670Y0085080D02*
X0144278Y0084413D01*
X0145509Y0083183D01*
X0146175Y0081575D01*
X0146175Y0079835D01*
X0145509Y0078227D01*
X0144278Y0076996D01*
X0142670Y0076330D01*
X0140930Y0076330D01*
X0139322Y0076996D01*
X0138091Y0078227D01*
X0137425Y0079835D01*
X0137425Y0081575D01*
X0138091Y0083183D01*
X0139322Y0084413D01*
X0140930Y0085080D01*
X0142670Y0085080D01*
X0144455Y0084236D02*
X0179873Y0084236D01*
X0179534Y0084096D02*
X0178409Y0082971D01*
X0177800Y0081500D01*
X0177800Y0079909D01*
X0178409Y0078439D01*
X0179534Y0077314D01*
X0181004Y0076705D01*
X0182596Y0076705D01*
X0184066Y0077314D01*
X0185191Y0078439D01*
X0185800Y0079909D01*
X0185800Y0081500D01*
X0185191Y0082971D01*
X0184066Y0084096D01*
X0182596Y0084705D01*
X0181004Y0084705D01*
X0179534Y0084096D01*
X0178271Y0082638D02*
X0145735Y0082638D01*
X0146175Y0081039D02*
X0177800Y0081039D01*
X0177994Y0079441D02*
X0146012Y0079441D01*
X0145124Y0077842D02*
X0179006Y0077842D01*
X0184594Y0077842D02*
X0189006Y0077842D01*
X0189534Y0077314D02*
X0191004Y0076705D01*
X0192596Y0076705D01*
X0194066Y0077314D01*
X0195191Y0078439D01*
X0195800Y0079909D01*
X0195800Y0081500D01*
X0195191Y0082971D01*
X0194066Y0084096D01*
X0192596Y0084705D01*
X0191004Y0084705D01*
X0189534Y0084096D01*
X0188409Y0082971D01*
X0187800Y0081500D01*
X0187800Y0079909D01*
X0188409Y0078439D01*
X0189534Y0077314D01*
X0187994Y0079441D02*
X0185606Y0079441D01*
X0185800Y0081039D02*
X0187800Y0081039D01*
X0188271Y0082638D02*
X0185329Y0082638D01*
X0183727Y0084236D02*
X0189873Y0084236D01*
X0193727Y0084236D02*
X0199873Y0084236D01*
X0199534Y0084096D02*
X0198409Y0082971D01*
X0197800Y0081500D01*
X0197800Y0079909D01*
X0198409Y0078439D01*
X0199534Y0077314D01*
X0201004Y0076705D01*
X0202596Y0076705D01*
X0204066Y0077314D01*
X0205191Y0078439D01*
X0205800Y0079909D01*
X0205800Y0081500D01*
X0205191Y0082971D01*
X0204066Y0084096D01*
X0202596Y0084705D01*
X0201004Y0084705D01*
X0199534Y0084096D01*
X0198271Y0082638D02*
X0195329Y0082638D01*
X0195800Y0081039D02*
X0197800Y0081039D01*
X0197994Y0079441D02*
X0195606Y0079441D01*
X0194594Y0077842D02*
X0199006Y0077842D01*
X0204594Y0077842D02*
X0327715Y0077842D01*
X0327400Y0076244D02*
X0011600Y0076244D01*
X0011600Y0077842D02*
X0078476Y0077842D01*
X0078091Y0078227D02*
X0079322Y0076996D01*
X0080930Y0076330D01*
X0082670Y0076330D01*
X0084278Y0076996D01*
X0085509Y0078227D01*
X0086175Y0079835D01*
X0086175Y0081575D01*
X0085509Y0083183D01*
X0084278Y0084413D01*
X0082670Y0085080D01*
X0080930Y0085080D01*
X0079322Y0084413D01*
X0078091Y0083183D01*
X0077425Y0081575D01*
X0077425Y0079835D01*
X0078091Y0078227D01*
X0077588Y0079441D02*
X0011600Y0079441D01*
X0011600Y0081039D02*
X0077425Y0081039D01*
X0077865Y0082638D02*
X0062556Y0082638D01*
X0063130Y0083212D02*
X0061892Y0081975D01*
X0060275Y0081305D01*
X0053325Y0081305D01*
X0051708Y0081975D01*
X0050470Y0083212D01*
X0049800Y0084830D01*
X0049800Y0086580D01*
X0050470Y0088197D01*
X0051708Y0089435D01*
X0053325Y0090105D01*
X0060275Y0090105D01*
X0061892Y0089435D01*
X0063130Y0088197D01*
X0063800Y0086580D01*
X0063800Y0084830D01*
X0063130Y0083212D01*
X0063554Y0084236D02*
X0079145Y0084236D01*
X0080930Y0086330D02*
X0082670Y0086330D01*
X0084278Y0086996D01*
X0085509Y0088227D01*
X0086175Y0089835D01*
X0086175Y0091575D01*
X0085509Y0093183D01*
X0084278Y0094413D01*
X0082670Y0095080D01*
X0080930Y0095080D01*
X0079322Y0094413D01*
X0078091Y0093183D01*
X0077425Y0091575D01*
X0077425Y0089835D01*
X0078091Y0088227D01*
X0079322Y0086996D01*
X0080930Y0086330D01*
X0078885Y0087433D02*
X0063447Y0087433D01*
X0063800Y0085835D02*
X0253208Y0085835D01*
X0252400Y0084236D02*
X0203727Y0084236D01*
X0205329Y0082638D02*
X0252400Y0082638D01*
X0252743Y0081039D02*
X0205800Y0081039D01*
X0205606Y0079441D02*
X0254341Y0079441D01*
X0259259Y0079441D02*
X0329313Y0079441D01*
X0327346Y0074645D02*
X0143719Y0074645D01*
X0145565Y0073047D02*
X0325748Y0073047D01*
X0324149Y0071448D02*
X0146175Y0071448D01*
X0146175Y0069850D02*
X0159722Y0069850D01*
X0159977Y0070105D02*
X0157400Y0067527D01*
X0157400Y0063882D01*
X0159977Y0061305D01*
X0163623Y0061305D01*
X0166200Y0063882D01*
X0166200Y0067527D01*
X0163623Y0070105D01*
X0159977Y0070105D01*
X0158124Y0068251D02*
X0147648Y0068251D01*
X0149246Y0066653D02*
X0157400Y0066653D01*
X0157400Y0065054D02*
X0150845Y0065054D01*
X0152443Y0063456D02*
X0157827Y0063456D01*
X0159425Y0061857D02*
X0154042Y0061857D01*
X0148852Y0060259D02*
X0146159Y0060259D01*
X0146175Y0060360D02*
X0146175Y0060705D01*
X0146175Y0061049D01*
X0146067Y0061729D01*
X0145854Y0062384D01*
X0145542Y0062998D01*
X0145137Y0063555D01*
X0144650Y0064042D01*
X0144093Y0064446D01*
X0143479Y0064759D01*
X0142824Y0064972D01*
X0142144Y0065080D01*
X0141800Y0065080D01*
X0141456Y0065080D01*
X0140776Y0064972D01*
X0140121Y0064759D01*
X0139507Y0064446D01*
X0138950Y0064042D01*
X0138463Y0063555D01*
X0138058Y0062998D01*
X0137746Y0062384D01*
X0137533Y0061729D01*
X0137425Y0061049D01*
X0137425Y0060705D01*
X0141800Y0060705D01*
X0141800Y0060705D01*
X0141800Y0065080D01*
X0141800Y0060705D01*
X0146175Y0060705D01*
X0141800Y0060705D01*
X0141800Y0060705D01*
X0141800Y0060705D01*
X0137425Y0060705D01*
X0137425Y0060360D01*
X0137533Y0059680D01*
X0137746Y0059025D01*
X0138058Y0058412D01*
X0138463Y0057855D01*
X0138950Y0057368D01*
X0139507Y0056963D01*
X0140121Y0056650D01*
X0140776Y0056438D01*
X0141456Y0056330D01*
X0141800Y0056330D01*
X0142144Y0056330D01*
X0142824Y0056438D01*
X0143479Y0056650D01*
X0144093Y0056963D01*
X0144650Y0057368D01*
X0145137Y0057855D01*
X0145542Y0058412D01*
X0145854Y0059025D01*
X0146067Y0059680D01*
X0146175Y0060360D01*
X0146026Y0061857D02*
X0147254Y0061857D01*
X0145655Y0063456D02*
X0145209Y0063456D01*
X0144056Y0065054D02*
X0142305Y0065054D01*
X0141800Y0065054D02*
X0141800Y0065054D01*
X0141295Y0065054D02*
X0082732Y0065054D01*
X0082670Y0065080D02*
X0080930Y0065080D01*
X0079322Y0064413D01*
X0078091Y0063183D01*
X0077425Y0061575D01*
X0077425Y0059835D01*
X0078091Y0058227D01*
X0079322Y0056996D01*
X0080930Y0056330D01*
X0082670Y0056330D01*
X0084278Y0056996D01*
X0085509Y0058227D01*
X0086175Y0059835D01*
X0086175Y0061575D01*
X0085509Y0063183D01*
X0084278Y0064413D01*
X0082670Y0065080D01*
X0082670Y0066330D02*
X0080930Y0066330D01*
X0079322Y0066996D01*
X0078091Y0068227D01*
X0077425Y0069835D01*
X0077425Y0071575D01*
X0078091Y0073183D01*
X0079322Y0074413D01*
X0080930Y0075080D01*
X0082670Y0075080D01*
X0084278Y0074413D01*
X0085509Y0073183D01*
X0086175Y0071575D01*
X0086175Y0069835D01*
X0085509Y0068227D01*
X0084278Y0066996D01*
X0082670Y0066330D01*
X0083449Y0066653D02*
X0140151Y0066653D01*
X0138081Y0068251D02*
X0085519Y0068251D01*
X0086175Y0069850D02*
X0137425Y0069850D01*
X0137425Y0071448D02*
X0086175Y0071448D01*
X0085565Y0073047D02*
X0138035Y0073047D01*
X0139881Y0074645D02*
X0083719Y0074645D01*
X0085124Y0077842D02*
X0138476Y0077842D01*
X0137588Y0079441D02*
X0086012Y0079441D01*
X0086175Y0081039D02*
X0137425Y0081039D01*
X0137865Y0082638D02*
X0085735Y0082638D01*
X0084455Y0084236D02*
X0139145Y0084236D01*
X0138885Y0087433D02*
X0084715Y0087433D01*
X0085842Y0089032D02*
X0137758Y0089032D01*
X0137425Y0090630D02*
X0086175Y0090630D01*
X0085904Y0092229D02*
X0137696Y0092229D01*
X0138736Y0093827D02*
X0084864Y0093827D01*
X0084278Y0096996D02*
X0085509Y0098227D01*
X0086175Y0099835D01*
X0086175Y0101575D01*
X0085509Y0103183D01*
X0084278Y0104413D01*
X0082670Y0105080D01*
X0080930Y0105080D01*
X0079322Y0104413D01*
X0078091Y0103183D01*
X0077425Y0101575D01*
X0077425Y0099835D01*
X0078091Y0098227D01*
X0079322Y0096996D01*
X0080930Y0096330D01*
X0082670Y0096330D01*
X0084278Y0096996D01*
X0084307Y0097024D02*
X0139293Y0097024D01*
X0139322Y0096996D02*
X0140930Y0096330D01*
X0142670Y0096330D01*
X0144278Y0096996D01*
X0145509Y0098227D01*
X0146175Y0099835D01*
X0146175Y0101575D01*
X0145509Y0103183D01*
X0144278Y0104413D01*
X0142670Y0105080D01*
X0140930Y0105080D01*
X0139322Y0104413D01*
X0138091Y0103183D01*
X0137425Y0101575D01*
X0137425Y0099835D01*
X0138091Y0098227D01*
X0139322Y0096996D01*
X0137927Y0098623D02*
X0085673Y0098623D01*
X0086175Y0100221D02*
X0137425Y0100221D01*
X0137527Y0101820D02*
X0086073Y0101820D01*
X0085273Y0103418D02*
X0138327Y0103418D01*
X0140779Y0105017D02*
X0082821Y0105017D01*
X0082670Y0106330D02*
X0080930Y0106330D01*
X0079322Y0106996D01*
X0078091Y0108227D01*
X0077425Y0109835D01*
X0077425Y0111575D01*
X0078091Y0113183D01*
X0079322Y0114413D01*
X0080930Y0115080D01*
X0082670Y0115080D01*
X0084278Y0114413D01*
X0085509Y0113183D01*
X0086175Y0111575D01*
X0086175Y0109835D01*
X0085509Y0108227D01*
X0084278Y0106996D01*
X0082670Y0106330D01*
X0083359Y0106615D02*
X0140241Y0106615D01*
X0140930Y0106330D02*
X0139322Y0106996D01*
X0138091Y0108227D01*
X0137425Y0109835D01*
X0137425Y0111575D01*
X0138091Y0113183D01*
X0139322Y0114413D01*
X0140930Y0115080D01*
X0142670Y0115080D01*
X0144278Y0114413D01*
X0145509Y0113183D01*
X0146175Y0111575D01*
X0146175Y0109835D01*
X0145509Y0108227D01*
X0144278Y0106996D01*
X0142670Y0106330D01*
X0140930Y0106330D01*
X0142821Y0105017D02*
X0229890Y0105017D01*
X0229977Y0105105D02*
X0227400Y0102527D01*
X0227400Y0100705D01*
X0231800Y0100705D01*
X0231800Y0100705D01*
X0231800Y0105105D01*
X0229977Y0105105D01*
X0231800Y0105105D02*
X0231800Y0100705D01*
X0236200Y0100705D01*
X0236200Y0102527D01*
X0233623Y0105105D01*
X0231800Y0105105D01*
X0231800Y0105017D02*
X0231800Y0105017D01*
X0231800Y0103418D02*
X0231800Y0103418D01*
X0231800Y0101820D02*
X0231800Y0101820D01*
X0231800Y0100705D02*
X0231800Y0100705D01*
X0231800Y0100705D01*
X0236200Y0100705D01*
X0236200Y0098882D01*
X0233623Y0096305D01*
X0231800Y0096305D01*
X0231800Y0100705D01*
X0227400Y0100705D01*
X0227400Y0098882D01*
X0229977Y0096305D01*
X0231800Y0096305D01*
X0231800Y0100705D01*
X0231800Y0100705D01*
X0231800Y0100221D02*
X0231800Y0100221D01*
X0231800Y0098623D02*
X0231800Y0098623D01*
X0231800Y0097024D02*
X0231800Y0097024D01*
X0234342Y0097024D02*
X0345701Y0097024D01*
X0345701Y0095426D02*
X0063800Y0095426D01*
X0063800Y0094830D02*
X0063800Y0096580D01*
X0063130Y0098197D01*
X0061892Y0099435D01*
X0060275Y0100105D01*
X0053325Y0100105D01*
X0051708Y0099435D01*
X0050470Y0098197D01*
X0049800Y0096580D01*
X0049800Y0094830D01*
X0050470Y0093212D01*
X0051708Y0091975D01*
X0053325Y0091305D01*
X0060275Y0091305D01*
X0061892Y0091975D01*
X0063130Y0093212D01*
X0063800Y0094830D01*
X0063385Y0093827D02*
X0078736Y0093827D01*
X0077696Y0092229D02*
X0062147Y0092229D01*
X0062295Y0089032D02*
X0077758Y0089032D01*
X0077425Y0090630D02*
X0011600Y0090630D01*
X0011600Y0089032D02*
X0021305Y0089032D01*
X0021708Y0089435D02*
X0020470Y0088197D01*
X0019800Y0086580D01*
X0019800Y0084830D01*
X0020470Y0083212D01*
X0021708Y0081975D01*
X0023325Y0081305D01*
X0030275Y0081305D01*
X0031892Y0081975D01*
X0033130Y0083212D01*
X0033800Y0084830D01*
X0033800Y0086580D01*
X0033130Y0088197D01*
X0031892Y0089435D01*
X0030275Y0090105D01*
X0023325Y0090105D01*
X0021708Y0089435D01*
X0023325Y0091305D02*
X0021708Y0091975D01*
X0020470Y0093212D01*
X0019800Y0094830D01*
X0019800Y0096580D01*
X0020470Y0098197D01*
X0021708Y0099435D01*
X0023325Y0100105D01*
X0030275Y0100105D01*
X0031892Y0099435D01*
X0033130Y0098197D01*
X0033800Y0096580D01*
X0033800Y0094830D01*
X0033130Y0093212D01*
X0031892Y0091975D01*
X0030275Y0091305D01*
X0023325Y0091305D01*
X0021453Y0092229D02*
X0011600Y0092229D01*
X0011600Y0093827D02*
X0020215Y0093827D01*
X0019800Y0095426D02*
X0011600Y0095426D01*
X0011600Y0097024D02*
X0019984Y0097024D01*
X0020896Y0098623D02*
X0011600Y0098623D01*
X0011600Y0100221D02*
X0077425Y0100221D01*
X0077527Y0101820D02*
X0061519Y0101820D01*
X0061892Y0101975D02*
X0063130Y0103212D01*
X0063800Y0104830D01*
X0063800Y0106580D01*
X0063130Y0108197D01*
X0061892Y0109435D01*
X0060275Y0110105D01*
X0053325Y0110105D01*
X0051708Y0109435D01*
X0050470Y0108197D01*
X0049800Y0106580D01*
X0049800Y0104830D01*
X0050470Y0103212D01*
X0051708Y0101975D01*
X0053325Y0101305D01*
X0060275Y0101305D01*
X0061892Y0101975D01*
X0063215Y0103418D02*
X0078327Y0103418D01*
X0080779Y0105017D02*
X0063800Y0105017D01*
X0063785Y0106615D02*
X0080241Y0106615D01*
X0078104Y0108214D02*
X0063113Y0108214D01*
X0060981Y0109812D02*
X0077434Y0109812D01*
X0077425Y0111411D02*
X0060532Y0111411D01*
X0060275Y0111305D02*
X0061892Y0111975D01*
X0063130Y0113212D01*
X0063800Y0114830D01*
X0063800Y0116580D01*
X0063130Y0118197D01*
X0061892Y0119435D01*
X0060275Y0120105D01*
X0053325Y0120105D01*
X0051708Y0119435D01*
X0050470Y0118197D01*
X0049800Y0116580D01*
X0049800Y0114830D01*
X0050470Y0113212D01*
X0051708Y0111975D01*
X0053325Y0111305D01*
X0060275Y0111305D01*
X0062927Y0113009D02*
X0078019Y0113009D01*
X0079791Y0114608D02*
X0063708Y0114608D01*
X0063800Y0116206D02*
X0345701Y0116206D01*
X0345701Y0114608D02*
X0143809Y0114608D01*
X0142670Y0116330D02*
X0144278Y0116996D01*
X0145509Y0118227D01*
X0146175Y0119835D01*
X0146175Y0121575D01*
X0145509Y0123183D01*
X0144278Y0124413D01*
X0142670Y0125080D01*
X0140930Y0125080D01*
X0139322Y0124413D01*
X0138091Y0123183D01*
X0137425Y0121575D01*
X0137425Y0119835D01*
X0138091Y0118227D01*
X0139322Y0116996D01*
X0140930Y0116330D01*
X0142670Y0116330D01*
X0145087Y0117805D02*
X0170877Y0117805D01*
X0170844Y0117838D02*
X0171334Y0117349D01*
X0171894Y0116942D01*
X0172511Y0116627D01*
X0173170Y0116413D01*
X0173854Y0116305D01*
X0176800Y0116305D01*
X0179746Y0116305D01*
X0180430Y0116413D01*
X0181089Y0116627D01*
X0181706Y0116942D01*
X0182266Y0117349D01*
X0182756Y0117838D01*
X0183163Y0118399D01*
X0183478Y0119016D01*
X0183692Y0119674D01*
X0183800Y0120358D01*
X0183800Y0120705D01*
X0183800Y0121051D01*
X0183692Y0121735D01*
X0183478Y0122394D01*
X0183163Y0123011D01*
X0182756Y0123571D01*
X0182266Y0124061D01*
X0181706Y0124468D01*
X0181089Y0124782D01*
X0180430Y0124996D01*
X0179746Y0125105D01*
X0176800Y0125105D01*
X0173854Y0125105D01*
X0173170Y0124996D01*
X0172511Y0124782D01*
X0171894Y0124468D01*
X0171334Y0124061D01*
X0170844Y0123571D01*
X0170437Y0123011D01*
X0170122Y0122394D01*
X0169908Y0121735D01*
X0169800Y0121051D01*
X0169800Y0120705D01*
X0176800Y0120705D01*
X0176800Y0120705D01*
X0176800Y0125105D01*
X0176800Y0120705D01*
X0183800Y0120705D01*
X0176800Y0120705D01*
X0176800Y0120705D01*
X0176800Y0120705D01*
X0169800Y0120705D01*
X0169800Y0120358D01*
X0169908Y0119674D01*
X0170122Y0119016D01*
X0170437Y0118399D01*
X0170844Y0117838D01*
X0169996Y0119403D02*
X0145996Y0119403D01*
X0146175Y0121002D02*
X0169800Y0121002D01*
X0170228Y0122601D02*
X0145750Y0122601D01*
X0144493Y0124199D02*
X0171524Y0124199D01*
X0173325Y0126305D02*
X0180275Y0126305D01*
X0181892Y0126975D01*
X0183130Y0128212D01*
X0183800Y0129830D01*
X0183800Y0131580D01*
X0183130Y0133197D01*
X0181892Y0134435D01*
X0180275Y0135105D01*
X0173325Y0135105D01*
X0173303Y0135096D01*
X0173159Y0135239D01*
X0172277Y0135605D01*
X0170294Y0135605D01*
X0146142Y0159756D01*
X0146175Y0159835D01*
X0146175Y0161575D01*
X0145509Y0163183D01*
X0144278Y0164413D01*
X0142670Y0165080D01*
X0140930Y0165080D01*
X0139322Y0164413D01*
X0138091Y0163183D01*
X0137425Y0161575D01*
X0137425Y0159835D01*
X0138091Y0158227D01*
X0139322Y0156996D01*
X0140930Y0156330D01*
X0142670Y0156330D01*
X0142748Y0156362D01*
X0167265Y0131845D01*
X0167941Y0131170D01*
X0168823Y0130805D01*
X0169800Y0130805D01*
X0169800Y0129830D01*
X0170470Y0128212D01*
X0171708Y0126975D01*
X0173325Y0126305D01*
X0171286Y0127396D02*
X0144678Y0127396D01*
X0144278Y0126996D02*
X0145509Y0128227D01*
X0146175Y0129835D01*
X0146175Y0131575D01*
X0145509Y0133183D01*
X0144278Y0134413D01*
X0142670Y0135080D01*
X0140930Y0135080D01*
X0139322Y0134413D01*
X0138091Y0133183D01*
X0137425Y0131575D01*
X0137425Y0129835D01*
X0138091Y0128227D01*
X0139322Y0126996D01*
X0140930Y0126330D01*
X0142670Y0126330D01*
X0144278Y0126996D01*
X0145827Y0128995D02*
X0170146Y0128995D01*
X0169800Y0130593D02*
X0146175Y0130593D01*
X0145919Y0132192D02*
X0166919Y0132192D01*
X0165321Y0133790D02*
X0144902Y0133790D01*
X0144257Y0136987D02*
X0162123Y0136987D01*
X0160525Y0138586D02*
X0145657Y0138586D01*
X0145509Y0138227D02*
X0146175Y0139835D01*
X0146175Y0141575D01*
X0145509Y0143183D01*
X0144278Y0144413D01*
X0142670Y0145080D01*
X0140930Y0145080D01*
X0139322Y0144413D01*
X0138091Y0143183D01*
X0137425Y0141575D01*
X0137425Y0139835D01*
X0138091Y0138227D01*
X0139322Y0136996D01*
X0140930Y0136330D01*
X0142670Y0136330D01*
X0144278Y0136996D01*
X0145509Y0138227D01*
X0146175Y0140184D02*
X0158926Y0140184D01*
X0157328Y0141783D02*
X0146089Y0141783D01*
X0145310Y0143381D02*
X0155729Y0143381D01*
X0154131Y0144980D02*
X0142911Y0144980D01*
X0142670Y0146330D02*
X0144278Y0146996D01*
X0145509Y0148227D01*
X0146175Y0149835D01*
X0146175Y0151575D01*
X0145509Y0153183D01*
X0144278Y0154413D01*
X0142670Y0155080D01*
X0140930Y0155080D01*
X0139322Y0154413D01*
X0138091Y0153183D01*
X0137425Y0151575D01*
X0137425Y0149835D01*
X0138091Y0148227D01*
X0139322Y0146996D01*
X0140930Y0146330D01*
X0142670Y0146330D01*
X0143270Y0146578D02*
X0152532Y0146578D01*
X0150934Y0148177D02*
X0145459Y0148177D01*
X0146150Y0149775D02*
X0149335Y0149775D01*
X0147737Y0151374D02*
X0146175Y0151374D01*
X0146138Y0152972D02*
X0145596Y0152972D01*
X0144540Y0154571D02*
X0143898Y0154571D01*
X0142941Y0156169D02*
X0011600Y0156169D01*
X0011600Y0154571D02*
X0079702Y0154571D01*
X0079322Y0154413D02*
X0078091Y0153183D01*
X0077425Y0151575D01*
X0077425Y0149835D01*
X0078091Y0148227D01*
X0079322Y0146996D01*
X0080930Y0146330D01*
X0082670Y0146330D01*
X0084278Y0146996D01*
X0085509Y0148227D01*
X0086175Y0149835D01*
X0086175Y0151575D01*
X0085509Y0153183D01*
X0084278Y0154413D01*
X0082670Y0155080D01*
X0080930Y0155080D01*
X0079322Y0154413D01*
X0078004Y0152972D02*
X0011600Y0152972D01*
X0011600Y0151374D02*
X0077425Y0151374D01*
X0077450Y0149775D02*
X0061071Y0149775D01*
X0060275Y0150105D02*
X0061892Y0149435D01*
X0063130Y0148197D01*
X0063800Y0146580D01*
X0063800Y0144830D01*
X0063130Y0143212D01*
X0061892Y0141975D01*
X0060275Y0141305D01*
X0053325Y0141305D01*
X0051708Y0141975D01*
X0050470Y0143212D01*
X0049800Y0144830D01*
X0049800Y0146580D01*
X0050470Y0148197D01*
X0051708Y0149435D01*
X0053325Y0150105D01*
X0060275Y0150105D01*
X0063139Y0148177D02*
X0078141Y0148177D01*
X0080330Y0146578D02*
X0063800Y0146578D01*
X0063800Y0144980D02*
X0080689Y0144980D01*
X0080930Y0145080D02*
X0079322Y0144413D01*
X0078091Y0143183D01*
X0077425Y0141575D01*
X0077425Y0139835D01*
X0078091Y0138227D01*
X0079322Y0136996D01*
X0080930Y0136330D01*
X0082670Y0136330D01*
X0084278Y0136996D01*
X0085509Y0138227D01*
X0086175Y0139835D01*
X0086175Y0141575D01*
X0085509Y0143183D01*
X0084278Y0144413D01*
X0082670Y0145080D01*
X0080930Y0145080D01*
X0082911Y0144980D02*
X0140689Y0144980D01*
X0140330Y0146578D02*
X0083270Y0146578D01*
X0085459Y0148177D02*
X0138141Y0148177D01*
X0137450Y0149775D02*
X0086150Y0149775D01*
X0086175Y0151374D02*
X0137425Y0151374D01*
X0138004Y0152972D02*
X0085596Y0152972D01*
X0083898Y0154571D02*
X0139702Y0154571D01*
X0138550Y0157768D02*
X0085050Y0157768D01*
X0085509Y0158227D02*
X0086175Y0159835D01*
X0086175Y0161575D01*
X0085509Y0163183D01*
X0084278Y0164413D01*
X0082670Y0165080D01*
X0080930Y0165080D01*
X0079322Y0164413D01*
X0078091Y0163183D01*
X0077425Y0161575D01*
X0077425Y0159835D01*
X0078091Y0158227D01*
X0079322Y0156996D01*
X0080930Y0156330D01*
X0082670Y0156330D01*
X0084278Y0156996D01*
X0085509Y0158227D01*
X0085981Y0159366D02*
X0137619Y0159366D01*
X0137425Y0160965D02*
X0086175Y0160965D01*
X0085765Y0162563D02*
X0137835Y0162563D01*
X0139070Y0164162D02*
X0084530Y0164162D01*
X0085120Y0166330D02*
X0078480Y0166330D01*
X0077425Y0167384D01*
X0077425Y0173533D01*
X0077098Y0173668D01*
X0074764Y0176003D01*
X0073500Y0179054D01*
X0073500Y0182356D01*
X0074764Y0185406D01*
X0077098Y0187741D01*
X0080149Y0189005D01*
X0083451Y0189005D01*
X0086502Y0187741D01*
X0088836Y0185406D01*
X0090100Y0182356D01*
X0090100Y0179054D01*
X0088836Y0176003D01*
X0086502Y0173668D01*
X0086175Y0173533D01*
X0086175Y0167384D01*
X0085120Y0166330D01*
X0086149Y0167359D02*
X0138959Y0167359D01*
X0139322Y0166996D02*
X0140930Y0166330D01*
X0142670Y0166330D01*
X0144278Y0166996D01*
X0145509Y0168227D01*
X0145541Y0168305D01*
X0154777Y0168305D01*
X0155659Y0168670D01*
X0172794Y0185805D01*
X0185806Y0185805D01*
X0199868Y0171743D01*
X0199800Y0171580D01*
X0199800Y0169830D01*
X0200470Y0168212D01*
X0201708Y0166975D01*
X0203325Y0166305D01*
X0210275Y0166305D01*
X0211892Y0166975D01*
X0213130Y0168212D01*
X0213800Y0169830D01*
X0213800Y0171580D01*
X0213130Y0173197D01*
X0211892Y0174435D01*
X0210275Y0175105D01*
X0203325Y0175105D01*
X0203303Y0175096D01*
X0188159Y0190239D01*
X0187277Y0190605D01*
X0171323Y0190605D01*
X0170441Y0190239D01*
X0169765Y0189564D01*
X0153306Y0173105D01*
X0145541Y0173105D01*
X0145509Y0173183D01*
X0145456Y0173235D01*
X0146502Y0173668D01*
X0148836Y0176003D01*
X0150100Y0179054D01*
X0150100Y0182356D01*
X0148836Y0185406D01*
X0146502Y0187741D01*
X0143451Y0189005D01*
X0140149Y0189005D01*
X0137098Y0187741D01*
X0134764Y0185406D01*
X0133500Y0182356D01*
X0133500Y0179054D01*
X0134764Y0176003D01*
X0137098Y0173668D01*
X0138144Y0173235D01*
X0138091Y0173183D01*
X0137425Y0171575D01*
X0137425Y0169835D01*
X0138091Y0168227D01*
X0139322Y0166996D01*
X0137789Y0168957D02*
X0086175Y0168957D01*
X0086175Y0170556D02*
X0137425Y0170556D01*
X0137665Y0172154D02*
X0086175Y0172154D01*
X0086586Y0173753D02*
X0137014Y0173753D01*
X0135415Y0175351D02*
X0088185Y0175351D01*
X0089229Y0176950D02*
X0134371Y0176950D01*
X0133709Y0178548D02*
X0089891Y0178548D01*
X0090100Y0180147D02*
X0133500Y0180147D01*
X0133500Y0181745D02*
X0090100Y0181745D01*
X0089691Y0183344D02*
X0133909Y0183344D01*
X0134571Y0184942D02*
X0089029Y0184942D01*
X0087702Y0186541D02*
X0135898Y0186541D01*
X0138060Y0188139D02*
X0085540Y0188139D01*
X0078060Y0188139D02*
X0011600Y0188139D01*
X0011600Y0186541D02*
X0075898Y0186541D01*
X0074571Y0184942D02*
X0011600Y0184942D01*
X0011600Y0183344D02*
X0073909Y0183344D01*
X0073500Y0181745D02*
X0011600Y0181745D01*
X0011600Y0180147D02*
X0073500Y0180147D01*
X0073709Y0178548D02*
X0011600Y0178548D01*
X0011600Y0176950D02*
X0074371Y0176950D01*
X0075415Y0175351D02*
X0011600Y0175351D01*
X0011600Y0173753D02*
X0077014Y0173753D01*
X0077425Y0172154D02*
X0011600Y0172154D01*
X0011600Y0170556D02*
X0077425Y0170556D01*
X0077425Y0168957D02*
X0011600Y0168957D01*
X0011600Y0167359D02*
X0077451Y0167359D01*
X0079070Y0164162D02*
X0011600Y0164162D01*
X0011600Y0165760D02*
X0163461Y0165760D01*
X0161863Y0164162D02*
X0144530Y0164162D01*
X0145765Y0162563D02*
X0160264Y0162563D01*
X0158666Y0160965D02*
X0146175Y0160965D01*
X0146533Y0159366D02*
X0154239Y0159366D01*
X0154977Y0160105D02*
X0152400Y0157527D01*
X0152400Y0153882D01*
X0154977Y0151305D01*
X0158623Y0151305D01*
X0161200Y0153882D01*
X0161200Y0156711D01*
X0170294Y0165805D01*
X0172277Y0165805D01*
X0173159Y0166170D01*
X0173303Y0166314D01*
X0173325Y0166305D01*
X0180275Y0166305D01*
X0181892Y0166975D01*
X0183130Y0168212D01*
X0183800Y0169830D01*
X0183800Y0171580D01*
X0183130Y0173197D01*
X0181892Y0174435D01*
X0180275Y0175105D01*
X0173325Y0175105D01*
X0171708Y0174435D01*
X0170470Y0173197D01*
X0169800Y0171580D01*
X0169800Y0170605D01*
X0168823Y0170605D01*
X0167941Y0170239D01*
X0167265Y0169564D01*
X0157806Y0160105D01*
X0154977Y0160105D01*
X0152641Y0157768D02*
X0148131Y0157768D01*
X0149730Y0156169D02*
X0152400Y0156169D01*
X0152400Y0154571D02*
X0151328Y0154571D01*
X0152927Y0152972D02*
X0153310Y0152972D01*
X0154525Y0151374D02*
X0154908Y0151374D01*
X0156124Y0149775D02*
X0169822Y0149775D01*
X0169800Y0149830D02*
X0170470Y0148212D01*
X0171708Y0146975D01*
X0173325Y0146305D01*
X0180275Y0146305D01*
X0181892Y0146975D01*
X0183130Y0148212D01*
X0183800Y0149830D01*
X0183800Y0151580D01*
X0183130Y0153197D01*
X0181892Y0154435D01*
X0180275Y0155105D01*
X0173325Y0155105D01*
X0171708Y0154435D01*
X0170470Y0153197D01*
X0169800Y0151580D01*
X0169800Y0149830D01*
X0169800Y0151374D02*
X0158692Y0151374D01*
X0160290Y0152972D02*
X0170377Y0152972D01*
X0172036Y0154571D02*
X0161200Y0154571D01*
X0161200Y0156169D02*
X0345701Y0156169D01*
X0345701Y0154571D02*
X0211564Y0154571D01*
X0211892Y0154435D02*
X0210275Y0155105D01*
X0203325Y0155105D01*
X0201708Y0154435D01*
X0200470Y0153197D01*
X0199800Y0151580D01*
X0199800Y0149830D01*
X0200470Y0148212D01*
X0201708Y0146975D01*
X0203325Y0146305D01*
X0210275Y0146305D01*
X0211892Y0146975D01*
X0213130Y0148212D01*
X0213800Y0149830D01*
X0213800Y0151580D01*
X0213130Y0153197D01*
X0211892Y0154435D01*
X0213223Y0152972D02*
X0345701Y0152972D01*
X0345701Y0151374D02*
X0213800Y0151374D01*
X0213777Y0149775D02*
X0345701Y0149775D01*
X0345701Y0148177D02*
X0213095Y0148177D01*
X0210935Y0146578D02*
X0345701Y0146578D01*
X0345701Y0144980D02*
X0210577Y0144980D01*
X0210275Y0145105D02*
X0211892Y0144435D01*
X0213130Y0143197D01*
X0213800Y0141580D01*
X0213800Y0139830D01*
X0213130Y0138212D01*
X0211892Y0136975D01*
X0210275Y0136305D01*
X0203325Y0136305D01*
X0201708Y0136975D01*
X0200470Y0138212D01*
X0199800Y0139830D01*
X0199800Y0141580D01*
X0200470Y0143197D01*
X0201708Y0144435D01*
X0203325Y0145105D01*
X0210275Y0145105D01*
X0212946Y0143381D02*
X0345701Y0143381D01*
X0345701Y0141783D02*
X0213716Y0141783D01*
X0213800Y0140184D02*
X0345701Y0140184D01*
X0345701Y0138586D02*
X0213285Y0138586D01*
X0211905Y0136987D02*
X0345701Y0136987D01*
X0345701Y0135389D02*
X0172799Y0135389D01*
X0173325Y0136305D02*
X0180275Y0136305D01*
X0181892Y0136975D01*
X0183130Y0138212D01*
X0183800Y0139830D01*
X0183800Y0141580D01*
X0183130Y0143197D01*
X0181892Y0144435D01*
X0180275Y0145105D01*
X0173325Y0145105D01*
X0171708Y0144435D01*
X0170470Y0143197D01*
X0169800Y0141580D01*
X0169800Y0139830D01*
X0170470Y0138212D01*
X0171708Y0136975D01*
X0173325Y0136305D01*
X0171695Y0136987D02*
X0168912Y0136987D01*
X0170315Y0138586D02*
X0167313Y0138586D01*
X0165715Y0140184D02*
X0169800Y0140184D01*
X0169884Y0141783D02*
X0164116Y0141783D01*
X0162518Y0143381D02*
X0170654Y0143381D01*
X0173023Y0144980D02*
X0160919Y0144980D01*
X0159321Y0146578D02*
X0172665Y0146578D01*
X0170505Y0148177D02*
X0157722Y0148177D01*
X0170470Y0158212D02*
X0171708Y0156975D01*
X0173325Y0156305D01*
X0180275Y0156305D01*
X0181892Y0156975D01*
X0183130Y0158212D01*
X0183800Y0159830D01*
X0183800Y0161580D01*
X0183130Y0163197D01*
X0181892Y0164435D01*
X0180275Y0165105D01*
X0173325Y0165105D01*
X0171708Y0164435D01*
X0170470Y0163197D01*
X0169800Y0161580D01*
X0169800Y0159830D01*
X0170470Y0158212D01*
X0170914Y0157768D02*
X0162257Y0157768D01*
X0163856Y0159366D02*
X0169992Y0159366D01*
X0169800Y0160965D02*
X0165454Y0160965D01*
X0167053Y0162563D02*
X0170207Y0162563D01*
X0171435Y0164162D02*
X0168651Y0164162D01*
X0170250Y0165760D02*
X0345701Y0165760D01*
X0345701Y0164162D02*
X0212165Y0164162D01*
X0211892Y0164435D02*
X0210275Y0165105D01*
X0203325Y0165105D01*
X0201708Y0164435D01*
X0200470Y0163197D01*
X0199800Y0161580D01*
X0199800Y0159830D01*
X0200470Y0158212D01*
X0201708Y0156975D01*
X0203325Y0156305D01*
X0210275Y0156305D01*
X0211892Y0156975D01*
X0213130Y0158212D01*
X0213800Y0159830D01*
X0213800Y0161580D01*
X0213130Y0163197D01*
X0211892Y0164435D01*
X0213393Y0162563D02*
X0345701Y0162563D01*
X0345701Y0160965D02*
X0213800Y0160965D01*
X0213608Y0159366D02*
X0345701Y0159366D01*
X0345701Y0157768D02*
X0212686Y0157768D01*
X0202036Y0154571D02*
X0181564Y0154571D01*
X0183223Y0152972D02*
X0200377Y0152972D01*
X0199800Y0151374D02*
X0183800Y0151374D01*
X0183777Y0149775D02*
X0199822Y0149775D01*
X0200505Y0148177D02*
X0183095Y0148177D01*
X0180935Y0146578D02*
X0202665Y0146578D01*
X0203023Y0144980D02*
X0180577Y0144980D01*
X0182946Y0143381D02*
X0200654Y0143381D01*
X0199884Y0141783D02*
X0183716Y0141783D01*
X0183800Y0140184D02*
X0199800Y0140184D01*
X0200315Y0138586D02*
X0183285Y0138586D01*
X0181905Y0136987D02*
X0201695Y0136987D01*
X0203325Y0135105D02*
X0201708Y0134435D01*
X0200470Y0133197D01*
X0199800Y0131580D01*
X0199800Y0129830D01*
X0200470Y0128212D01*
X0201708Y0126975D01*
X0203325Y0126305D01*
X0210275Y0126305D01*
X0211892Y0126975D01*
X0213130Y0128212D01*
X0213800Y0129830D01*
X0213800Y0131580D01*
X0213130Y0133197D01*
X0211892Y0134435D01*
X0210275Y0135105D01*
X0203325Y0135105D01*
X0201063Y0133790D02*
X0182537Y0133790D01*
X0183547Y0132192D02*
X0200053Y0132192D01*
X0199800Y0130593D02*
X0183800Y0130593D01*
X0183454Y0128995D02*
X0200146Y0128995D01*
X0201286Y0127396D02*
X0182314Y0127396D01*
X0182076Y0124199D02*
X0201472Y0124199D01*
X0201708Y0124435D02*
X0200470Y0123197D01*
X0199800Y0121580D01*
X0199800Y0119830D01*
X0200470Y0118212D01*
X0201708Y0116975D01*
X0203325Y0116305D01*
X0210275Y0116305D01*
X0211892Y0116975D01*
X0213130Y0118212D01*
X0213800Y0119830D01*
X0213800Y0121580D01*
X0213130Y0123197D01*
X0211892Y0124435D01*
X0210275Y0125105D01*
X0203325Y0125105D01*
X0201708Y0124435D01*
X0200223Y0122601D02*
X0183372Y0122601D01*
X0183800Y0121002D02*
X0199800Y0121002D01*
X0199976Y0119403D02*
X0183604Y0119403D01*
X0182723Y0117805D02*
X0200877Y0117805D01*
X0212723Y0117805D02*
X0345701Y0117805D01*
X0345701Y0119403D02*
X0259221Y0119403D01*
X0258623Y0118805D02*
X0254977Y0118805D01*
X0252400Y0121382D01*
X0252400Y0125027D01*
X0254977Y0127605D01*
X0258623Y0127605D01*
X0261200Y0125027D01*
X0261200Y0121382D01*
X0258623Y0118805D01*
X0260820Y0121002D02*
X0345701Y0121002D01*
X0345701Y0122601D02*
X0261200Y0122601D01*
X0261200Y0124199D02*
X0345701Y0124199D01*
X0345701Y0125798D02*
X0260430Y0125798D01*
X0258831Y0127396D02*
X0345701Y0127396D01*
X0345701Y0128995D02*
X0213454Y0128995D01*
X0213800Y0130593D02*
X0345701Y0130593D01*
X0345701Y0132192D02*
X0213547Y0132192D01*
X0212537Y0133790D02*
X0345701Y0133790D01*
X0345701Y0113009D02*
X0145581Y0113009D01*
X0146175Y0111411D02*
X0345701Y0111411D01*
X0345701Y0109812D02*
X0146166Y0109812D01*
X0145496Y0108214D02*
X0345701Y0108214D01*
X0345701Y0106615D02*
X0143359Y0106615D01*
X0138104Y0108214D02*
X0085496Y0108214D01*
X0086166Y0109812D02*
X0137434Y0109812D01*
X0137425Y0111411D02*
X0086175Y0111411D01*
X0085581Y0113009D02*
X0138019Y0113009D01*
X0139791Y0114608D02*
X0083809Y0114608D01*
X0082670Y0116330D02*
X0080930Y0116330D01*
X0079322Y0116996D01*
X0078091Y0118227D01*
X0077425Y0119835D01*
X0077425Y0121575D01*
X0078091Y0123183D01*
X0079322Y0124413D01*
X0080930Y0125080D01*
X0082670Y0125080D01*
X0084278Y0124413D01*
X0085509Y0123183D01*
X0086175Y0121575D01*
X0086175Y0119835D01*
X0085509Y0118227D01*
X0084278Y0116996D01*
X0082670Y0116330D01*
X0085087Y0117805D02*
X0138513Y0117805D01*
X0137604Y0119403D02*
X0085996Y0119403D01*
X0086175Y0121002D02*
X0137425Y0121002D01*
X0137850Y0122601D02*
X0085750Y0122601D01*
X0084493Y0124199D02*
X0139107Y0124199D01*
X0138922Y0127396D02*
X0084678Y0127396D01*
X0084278Y0126996D02*
X0085509Y0128227D01*
X0086175Y0129835D01*
X0086175Y0131575D01*
X0085509Y0133183D01*
X0084278Y0134413D01*
X0082670Y0135080D01*
X0080930Y0135080D01*
X0079322Y0134413D01*
X0078091Y0133183D01*
X0077425Y0131575D01*
X0077425Y0129835D01*
X0078091Y0128227D01*
X0079322Y0126996D01*
X0080930Y0126330D01*
X0082670Y0126330D01*
X0084278Y0126996D01*
X0085827Y0128995D02*
X0137773Y0128995D01*
X0137425Y0130593D02*
X0086175Y0130593D01*
X0085919Y0132192D02*
X0137681Y0132192D01*
X0138698Y0133790D02*
X0084902Y0133790D01*
X0078698Y0133790D02*
X0063369Y0133790D01*
X0063130Y0133212D02*
X0063800Y0134830D01*
X0063800Y0136580D01*
X0063130Y0138197D01*
X0061892Y0139435D01*
X0060275Y0140105D01*
X0053325Y0140105D01*
X0051708Y0139435D01*
X0050470Y0138197D01*
X0049800Y0136580D01*
X0049800Y0134830D01*
X0050470Y0133212D01*
X0051708Y0131975D01*
X0053325Y0131305D01*
X0060275Y0131305D01*
X0061892Y0131975D01*
X0063130Y0133212D01*
X0062109Y0132192D02*
X0077681Y0132192D01*
X0077425Y0130593D02*
X0011600Y0130593D01*
X0011600Y0128995D02*
X0021267Y0128995D01*
X0021708Y0129435D02*
X0020470Y0128197D01*
X0019800Y0126580D01*
X0019800Y0124830D01*
X0020470Y0123212D01*
X0021708Y0121975D01*
X0023325Y0121305D01*
X0030275Y0121305D01*
X0031892Y0121975D01*
X0033130Y0123212D01*
X0033800Y0124830D01*
X0033800Y0126580D01*
X0033130Y0128197D01*
X0031892Y0129435D01*
X0030275Y0130105D01*
X0023325Y0130105D01*
X0021708Y0129435D01*
X0023325Y0131305D02*
X0030275Y0131305D01*
X0031892Y0131975D01*
X0033130Y0133212D01*
X0033800Y0134830D01*
X0033800Y0136580D01*
X0033130Y0138197D01*
X0031892Y0139435D01*
X0030275Y0140105D01*
X0023325Y0140105D01*
X0021708Y0139435D01*
X0020470Y0138197D01*
X0019800Y0136580D01*
X0019800Y0134830D01*
X0020470Y0133212D01*
X0021708Y0131975D01*
X0023325Y0131305D01*
X0021491Y0132192D02*
X0011600Y0132192D01*
X0011600Y0133790D02*
X0020231Y0133790D01*
X0019800Y0135389D02*
X0011600Y0135389D01*
X0011600Y0136987D02*
X0019969Y0136987D01*
X0020858Y0138586D02*
X0011600Y0138586D01*
X0011600Y0140184D02*
X0077425Y0140184D01*
X0077511Y0141783D02*
X0061429Y0141783D01*
X0063200Y0143381D02*
X0078290Y0143381D01*
X0077942Y0138586D02*
X0062742Y0138586D01*
X0063631Y0136987D02*
X0079343Y0136987D01*
X0084257Y0136987D02*
X0139343Y0136987D01*
X0137942Y0138586D02*
X0085657Y0138586D01*
X0086175Y0140184D02*
X0137425Y0140184D01*
X0137511Y0141783D02*
X0086089Y0141783D01*
X0085310Y0143381D02*
X0138290Y0143381D01*
X0163722Y0135389D02*
X0063800Y0135389D01*
X0061892Y0129435D02*
X0060275Y0130105D01*
X0053325Y0130105D01*
X0051708Y0129435D01*
X0050470Y0128197D01*
X0049800Y0126580D01*
X0049800Y0124830D01*
X0050470Y0123212D01*
X0051708Y0121975D01*
X0053325Y0121305D01*
X0060275Y0121305D01*
X0061892Y0121975D01*
X0063130Y0123212D01*
X0063800Y0124830D01*
X0063800Y0126580D01*
X0063130Y0128197D01*
X0061892Y0129435D01*
X0062333Y0128995D02*
X0077773Y0128995D01*
X0078922Y0127396D02*
X0063462Y0127396D01*
X0063800Y0125798D02*
X0253170Y0125798D01*
X0252400Y0124199D02*
X0212128Y0124199D01*
X0213377Y0122601D02*
X0252400Y0122601D01*
X0252780Y0121002D02*
X0213800Y0121002D01*
X0213624Y0119403D02*
X0254379Y0119403D01*
X0254769Y0127396D02*
X0212314Y0127396D01*
X0233710Y0105017D02*
X0345701Y0105017D01*
X0345701Y0103418D02*
X0235309Y0103418D01*
X0236200Y0101820D02*
X0345701Y0101820D01*
X0345701Y0100221D02*
X0236200Y0100221D01*
X0235941Y0098623D02*
X0345701Y0098623D01*
X0322551Y0069850D02*
X0288549Y0069850D01*
X0290148Y0068251D02*
X0320952Y0068251D01*
X0319354Y0066653D02*
X0291746Y0066653D01*
X0281800Y0058660D02*
X0281800Y0058660D01*
X0281800Y0057062D02*
X0281800Y0057062D01*
X0281800Y0055463D02*
X0281800Y0055463D01*
X0281800Y0053865D02*
X0281800Y0053865D01*
X0281800Y0052266D02*
X0281800Y0052266D01*
X0287258Y0049069D02*
X0302542Y0049069D01*
X0304140Y0047470D02*
X0288431Y0047470D01*
X0288800Y0045872D02*
X0304800Y0045872D01*
X0305030Y0044273D02*
X0288570Y0044273D01*
X0287593Y0042675D02*
X0306007Y0042675D01*
X0306812Y0039478D02*
X0286788Y0039478D01*
X0286892Y0039435D02*
X0285275Y0040105D01*
X0278325Y0040105D01*
X0276708Y0039435D01*
X0275470Y0038197D01*
X0274800Y0036580D01*
X0274800Y0034830D01*
X0275470Y0033212D01*
X0276708Y0031975D01*
X0278325Y0031305D01*
X0285275Y0031305D01*
X0286892Y0031975D01*
X0288130Y0033212D01*
X0288800Y0034830D01*
X0288800Y0036580D01*
X0288130Y0038197D01*
X0286892Y0039435D01*
X0288262Y0037879D02*
X0305338Y0037879D01*
X0305470Y0038197D02*
X0304800Y0036580D01*
X0304800Y0034830D01*
X0305470Y0033212D01*
X0306708Y0031975D01*
X0308325Y0031305D01*
X0315275Y0031305D01*
X0316892Y0031975D01*
X0318130Y0033212D01*
X0318800Y0034830D01*
X0318800Y0036580D01*
X0318130Y0038197D01*
X0316892Y0039435D01*
X0315275Y0040105D01*
X0308325Y0040105D01*
X0306708Y0039435D01*
X0305470Y0038197D01*
X0304800Y0036281D02*
X0288800Y0036281D01*
X0288739Y0034682D02*
X0304861Y0034682D01*
X0305598Y0033084D02*
X0288002Y0033084D01*
X0285711Y0031485D02*
X0307889Y0031485D01*
X0307799Y0029887D02*
X0285767Y0029887D01*
X0287962Y0028288D02*
X0305561Y0028288D01*
X0304846Y0026690D02*
X0288699Y0026690D01*
X0288758Y0025091D02*
X0304800Y0025091D01*
X0305354Y0023493D02*
X0288211Y0023493D01*
X0286613Y0021894D02*
X0306901Y0021894D01*
X0315711Y0031485D02*
X0329797Y0031485D01*
X0328198Y0033084D02*
X0318002Y0033084D01*
X0318739Y0034682D02*
X0327400Y0034682D01*
X0327400Y0036281D02*
X0318800Y0036281D01*
X0318262Y0037879D02*
X0327752Y0037879D01*
X0329351Y0039478D02*
X0316788Y0039478D01*
X0317593Y0042675D02*
X0345701Y0042675D01*
X0345701Y0044273D02*
X0318570Y0044273D01*
X0318800Y0045872D02*
X0345701Y0045872D01*
X0345701Y0047470D02*
X0318431Y0047470D01*
X0317258Y0049069D02*
X0345701Y0049069D01*
X0281800Y0029887D02*
X0281800Y0029887D01*
X0281800Y0028288D02*
X0281800Y0028288D01*
X0281800Y0026690D02*
X0281800Y0026690D01*
X0281800Y0025705D02*
X0281800Y0021305D01*
X0281800Y0025705D01*
X0281800Y0025705D01*
X0281800Y0025091D02*
X0281800Y0025091D01*
X0281800Y0023493D02*
X0281800Y0023493D01*
X0281800Y0021894D02*
X0281800Y0021894D01*
X0276987Y0021894D02*
X0261200Y0021894D01*
X0260234Y0023493D02*
X0275389Y0023493D01*
X0275638Y0028288D02*
X0213039Y0028288D01*
X0210801Y0029887D02*
X0277833Y0029887D01*
X0277889Y0031485D02*
X0210711Y0031485D01*
X0210275Y0031305D02*
X0211892Y0031975D01*
X0213130Y0033212D01*
X0213800Y0034830D01*
X0213800Y0036580D01*
X0213130Y0038197D01*
X0211892Y0039435D01*
X0210275Y0040105D01*
X0203325Y0040105D01*
X0201708Y0039435D01*
X0200470Y0038197D01*
X0199800Y0036580D01*
X0199800Y0034830D01*
X0200470Y0033212D01*
X0201708Y0031975D01*
X0203325Y0031305D01*
X0210275Y0031305D01*
X0213002Y0033084D02*
X0275598Y0033084D01*
X0274861Y0034682D02*
X0213739Y0034682D01*
X0213800Y0036281D02*
X0274800Y0036281D01*
X0275338Y0037879D02*
X0213262Y0037879D01*
X0211788Y0039478D02*
X0231026Y0039478D01*
X0229428Y0041076D02*
X0202933Y0041076D01*
X0201812Y0039478D02*
X0199200Y0039478D01*
X0199200Y0037879D02*
X0200338Y0037879D01*
X0199800Y0036281D02*
X0199200Y0036281D01*
X0199200Y0034682D02*
X0199861Y0034682D01*
X0199200Y0033084D02*
X0200598Y0033084D01*
X0198475Y0031485D02*
X0202889Y0031485D01*
X0202799Y0029887D02*
X0196876Y0029887D01*
X0195278Y0028288D02*
X0200561Y0028288D01*
X0199846Y0026690D02*
X0193679Y0026690D01*
X0192081Y0025091D02*
X0199800Y0025091D01*
X0200354Y0023493D02*
X0190482Y0023493D01*
X0188884Y0021894D02*
X0201901Y0021894D01*
X0185687Y0018697D02*
X0231807Y0018697D01*
X0236793Y0018697D02*
X0252585Y0018697D01*
X0252400Y0020296D02*
X0238391Y0020296D01*
X0239250Y0021894D02*
X0252400Y0021894D01*
X0253366Y0023493D02*
X0239250Y0023493D01*
X0239250Y0025091D02*
X0254964Y0025091D01*
X0254183Y0017099D02*
X0184088Y0017099D01*
X0171901Y0021894D02*
X0169005Y0021894D01*
X0170354Y0023493D02*
X0167406Y0023493D01*
X0166200Y0025091D02*
X0169800Y0025091D01*
X0169846Y0026690D02*
X0166200Y0026690D01*
X0165439Y0028288D02*
X0170561Y0028288D01*
X0172799Y0029887D02*
X0163840Y0029887D01*
X0159760Y0029887D02*
X0146175Y0029887D01*
X0146175Y0031485D02*
X0172889Y0031485D01*
X0170598Y0033084D02*
X0145550Y0033084D01*
X0143629Y0034682D02*
X0169861Y0034682D01*
X0158161Y0028288D02*
X0145534Y0028288D01*
X0147553Y0026690D02*
X0157400Y0026690D01*
X0157400Y0025091D02*
X0148967Y0025091D01*
X0149629Y0023493D02*
X0157789Y0023493D01*
X0159388Y0021894D02*
X0150100Y0021894D01*
X0150100Y0020296D02*
X0163815Y0020296D01*
X0165413Y0018697D02*
X0149952Y0018697D01*
X0149290Y0017099D02*
X0167012Y0017099D01*
X0138066Y0028288D02*
X0085534Y0028288D01*
X0086175Y0029887D02*
X0137425Y0029887D01*
X0137425Y0031485D02*
X0086175Y0031485D01*
X0085550Y0033084D02*
X0138050Y0033084D01*
X0139971Y0034682D02*
X0083629Y0034682D01*
X0082824Y0036438D02*
X0083479Y0036650D01*
X0084093Y0036963D01*
X0084650Y0037368D01*
X0085137Y0037855D01*
X0085542Y0038412D01*
X0085854Y0039025D01*
X0086067Y0039680D01*
X0086175Y0040360D01*
X0086175Y0040705D01*
X0086175Y0041049D01*
X0086067Y0041729D01*
X0085854Y0042384D01*
X0085542Y0042998D01*
X0085137Y0043555D01*
X0084650Y0044042D01*
X0084093Y0044446D01*
X0083479Y0044759D01*
X0082824Y0044972D01*
X0082144Y0045080D01*
X0081800Y0045080D01*
X0081456Y0045080D01*
X0080776Y0044972D01*
X0080121Y0044759D01*
X0079507Y0044446D01*
X0078950Y0044042D01*
X0078463Y0043555D01*
X0078058Y0042998D01*
X0077746Y0042384D01*
X0077533Y0041729D01*
X0077425Y0041049D01*
X0077425Y0040705D01*
X0081800Y0040705D01*
X0081800Y0040705D01*
X0081800Y0045080D01*
X0081800Y0040705D01*
X0086175Y0040705D01*
X0081800Y0040705D01*
X0081800Y0040705D01*
X0081800Y0040705D01*
X0077425Y0040705D01*
X0077425Y0040360D01*
X0077533Y0039680D01*
X0077746Y0039025D01*
X0078058Y0038412D01*
X0078463Y0037855D01*
X0078950Y0037368D01*
X0079507Y0036963D01*
X0080121Y0036650D01*
X0080776Y0036438D01*
X0081456Y0036330D01*
X0081800Y0036330D01*
X0082144Y0036330D01*
X0082824Y0036438D01*
X0081800Y0036330D02*
X0081800Y0040705D01*
X0081800Y0040705D01*
X0081800Y0036330D01*
X0081800Y0037879D02*
X0081800Y0037879D01*
X0081800Y0039478D02*
X0081800Y0039478D01*
X0081800Y0041076D02*
X0081800Y0041076D01*
X0081800Y0042675D02*
X0081800Y0042675D01*
X0081800Y0044273D02*
X0081800Y0044273D01*
X0080930Y0046330D02*
X0082670Y0046330D01*
X0084278Y0046996D01*
X0085509Y0048227D01*
X0086175Y0049835D01*
X0086175Y0051575D01*
X0085509Y0053183D01*
X0084278Y0054413D01*
X0082670Y0055080D01*
X0080930Y0055080D01*
X0079322Y0054413D01*
X0078091Y0053183D01*
X0077425Y0051575D01*
X0077425Y0049835D01*
X0078091Y0048227D01*
X0079322Y0046996D01*
X0080930Y0046330D01*
X0078847Y0047470D02*
X0011600Y0047470D01*
X0011600Y0045872D02*
X0169800Y0045872D01*
X0170030Y0044273D02*
X0144418Y0044273D01*
X0142670Y0046330D02*
X0144278Y0046996D01*
X0145509Y0048227D01*
X0146175Y0049835D01*
X0146175Y0051575D01*
X0145509Y0053183D01*
X0144278Y0054413D01*
X0142670Y0055080D01*
X0140930Y0055080D01*
X0139322Y0054413D01*
X0138091Y0053183D01*
X0137425Y0051575D01*
X0137425Y0049835D01*
X0138091Y0048227D01*
X0139322Y0046996D01*
X0140930Y0046330D01*
X0142670Y0046330D01*
X0144753Y0047470D02*
X0170169Y0047470D01*
X0171342Y0049069D02*
X0145858Y0049069D01*
X0146175Y0050668D02*
X0218369Y0050668D01*
X0219967Y0052266D02*
X0212153Y0052266D01*
X0212266Y0052349D02*
X0212756Y0052838D01*
X0213163Y0053399D01*
X0213478Y0054016D01*
X0213692Y0054674D01*
X0213800Y0055358D01*
X0213800Y0055705D01*
X0213800Y0056051D01*
X0213692Y0056735D01*
X0213478Y0057394D01*
X0213163Y0058011D01*
X0212756Y0058571D01*
X0212266Y0059061D01*
X0211706Y0059468D01*
X0211089Y0059782D01*
X0210430Y0059996D01*
X0209746Y0060105D01*
X0206800Y0060105D01*
X0203854Y0060105D01*
X0203170Y0059996D01*
X0202511Y0059782D01*
X0201894Y0059468D01*
X0201334Y0059061D01*
X0200844Y0058571D01*
X0200437Y0058011D01*
X0200122Y0057394D01*
X0199908Y0056735D01*
X0199800Y0056051D01*
X0199800Y0055705D01*
X0206800Y0055705D01*
X0206800Y0055705D01*
X0206800Y0060105D01*
X0206800Y0055705D01*
X0213800Y0055705D01*
X0206800Y0055705D01*
X0206800Y0055705D01*
X0206800Y0055705D01*
X0199800Y0055705D01*
X0199800Y0055358D01*
X0199908Y0054674D01*
X0200122Y0054016D01*
X0200437Y0053399D01*
X0200844Y0052838D01*
X0201334Y0052349D01*
X0201894Y0051942D01*
X0202511Y0051627D01*
X0203170Y0051413D01*
X0203854Y0051305D01*
X0206800Y0051305D01*
X0209746Y0051305D01*
X0210430Y0051413D01*
X0211089Y0051627D01*
X0211706Y0051942D01*
X0212266Y0052349D01*
X0213401Y0053865D02*
X0221566Y0053865D01*
X0223164Y0055463D02*
X0213800Y0055463D01*
X0213586Y0057062D02*
X0224763Y0057062D01*
X0226361Y0058660D02*
X0212667Y0058660D01*
X0206800Y0058660D02*
X0206800Y0058660D01*
X0206800Y0057062D02*
X0206800Y0057062D01*
X0206800Y0055705D02*
X0206800Y0051305D01*
X0206800Y0055705D01*
X0206800Y0055705D01*
X0206800Y0055463D02*
X0206800Y0055463D01*
X0206800Y0053865D02*
X0206800Y0053865D01*
X0206800Y0052266D02*
X0206800Y0052266D01*
X0201447Y0052266D02*
X0182184Y0052266D01*
X0181892Y0051975D02*
X0183130Y0053212D01*
X0183800Y0054830D01*
X0183800Y0056580D01*
X0183130Y0058197D01*
X0181892Y0059435D01*
X0180275Y0060105D01*
X0173325Y0060105D01*
X0171708Y0059435D01*
X0170470Y0058197D01*
X0169800Y0056580D01*
X0169800Y0054830D01*
X0170470Y0053212D01*
X0171708Y0051975D01*
X0173325Y0051305D01*
X0180275Y0051305D01*
X0181892Y0051975D01*
X0183400Y0053865D02*
X0200199Y0053865D01*
X0199800Y0055463D02*
X0183800Y0055463D01*
X0183601Y0057062D02*
X0200014Y0057062D01*
X0200933Y0058660D02*
X0182667Y0058660D01*
X0175445Y0063456D02*
X0228328Y0063456D01*
X0227400Y0061857D02*
X0173846Y0061857D01*
X0172248Y0060259D02*
X0227400Y0060259D01*
X0229927Y0065054D02*
X0177043Y0065054D01*
X0171854Y0066653D02*
X0166200Y0066653D01*
X0166200Y0065054D02*
X0170255Y0065054D01*
X0168657Y0063456D02*
X0165773Y0063456D01*
X0167058Y0061857D02*
X0164175Y0061857D01*
X0170649Y0058660D02*
X0170933Y0058660D01*
X0169999Y0057062D02*
X0169051Y0057062D01*
X0169800Y0055463D02*
X0011600Y0055463D01*
X0011600Y0053865D02*
X0078773Y0053865D01*
X0077711Y0052266D02*
X0011600Y0052266D01*
X0011600Y0050668D02*
X0077425Y0050668D01*
X0077742Y0049069D02*
X0011600Y0049069D01*
X0011600Y0044273D02*
X0079269Y0044273D01*
X0077894Y0042675D02*
X0011600Y0042675D01*
X0011600Y0041076D02*
X0077430Y0041076D01*
X0077599Y0039478D02*
X0011600Y0039478D01*
X0011600Y0037879D02*
X0078445Y0037879D01*
X0085155Y0037879D02*
X0138438Y0037879D01*
X0137573Y0039478D02*
X0086001Y0039478D01*
X0086170Y0041076D02*
X0137425Y0041076D01*
X0137881Y0042675D02*
X0085706Y0042675D01*
X0084331Y0044273D02*
X0139182Y0044273D01*
X0138847Y0047470D02*
X0084753Y0047470D01*
X0085858Y0049069D02*
X0137742Y0049069D01*
X0137425Y0050668D02*
X0086175Y0050668D01*
X0085889Y0052266D02*
X0137711Y0052266D01*
X0138773Y0053865D02*
X0084827Y0053865D01*
X0084344Y0057062D02*
X0139372Y0057062D01*
X0137932Y0058660D02*
X0085688Y0058660D01*
X0086175Y0060259D02*
X0137441Y0060259D01*
X0137574Y0061857D02*
X0086058Y0061857D01*
X0085236Y0063456D02*
X0138391Y0063456D01*
X0141800Y0063456D02*
X0141800Y0063456D01*
X0141800Y0061857D02*
X0141800Y0061857D01*
X0141800Y0060705D02*
X0141800Y0056330D01*
X0141800Y0060705D01*
X0141800Y0060705D01*
X0141800Y0060259D02*
X0141800Y0060259D01*
X0141800Y0058660D02*
X0141800Y0058660D01*
X0141800Y0057062D02*
X0141800Y0057062D01*
X0144228Y0057062D02*
X0152049Y0057062D01*
X0150451Y0058660D02*
X0145668Y0058660D01*
X0144827Y0053865D02*
X0170200Y0053865D01*
X0171416Y0052266D02*
X0145889Y0052266D01*
X0163878Y0069850D02*
X0175051Y0069850D01*
X0173452Y0068251D02*
X0165476Y0068251D01*
X0182258Y0049069D02*
X0201342Y0049069D01*
X0200169Y0047470D02*
X0183431Y0047470D01*
X0183800Y0045872D02*
X0199800Y0045872D01*
X0194645Y0044273D02*
X0183570Y0044273D01*
X0182593Y0042675D02*
X0194400Y0042675D01*
X0212593Y0042675D02*
X0229350Y0042675D01*
X0229350Y0044273D02*
X0213570Y0044273D01*
X0219940Y0045872D02*
X0229967Y0045872D01*
X0237574Y0039478D02*
X0276812Y0039478D01*
X0275199Y0053865D02*
X0228354Y0053865D01*
X0229952Y0055463D02*
X0274800Y0055463D01*
X0272400Y0089032D02*
X0145842Y0089032D01*
X0146175Y0090630D02*
X0272400Y0090630D01*
X0272400Y0092229D02*
X0145904Y0092229D01*
X0144864Y0093827D02*
X0273700Y0093827D01*
X0229258Y0097024D02*
X0144307Y0097024D01*
X0145673Y0098623D02*
X0227659Y0098623D01*
X0227400Y0100221D02*
X0146175Y0100221D01*
X0146073Y0101820D02*
X0227400Y0101820D01*
X0228291Y0103418D02*
X0145273Y0103418D01*
X0176800Y0116305D02*
X0176800Y0120705D01*
X0176800Y0116305D01*
X0176800Y0117805D02*
X0176800Y0117805D01*
X0176800Y0119403D02*
X0176800Y0119403D01*
X0176800Y0120705D02*
X0176800Y0120705D01*
X0176800Y0121002D02*
X0176800Y0121002D01*
X0176800Y0122601D02*
X0176800Y0122601D01*
X0176800Y0124199D02*
X0176800Y0124199D01*
X0182686Y0157768D02*
X0200914Y0157768D01*
X0199992Y0159366D02*
X0183608Y0159366D01*
X0183800Y0160965D02*
X0199800Y0160965D01*
X0200207Y0162563D02*
X0183393Y0162563D01*
X0182165Y0164162D02*
X0201435Y0164162D01*
X0201323Y0167359D02*
X0182277Y0167359D01*
X0183439Y0168957D02*
X0200161Y0168957D01*
X0199800Y0170556D02*
X0183800Y0170556D01*
X0183562Y0172154D02*
X0199456Y0172154D01*
X0197858Y0173753D02*
X0182574Y0173753D01*
X0181892Y0176975D02*
X0180275Y0176305D01*
X0173325Y0176305D01*
X0171708Y0176975D01*
X0170470Y0178212D01*
X0169800Y0179830D01*
X0169800Y0181580D01*
X0170470Y0183197D01*
X0171708Y0184435D01*
X0173325Y0185105D01*
X0180275Y0185105D01*
X0181892Y0184435D01*
X0183130Y0183197D01*
X0183800Y0181580D01*
X0183800Y0179830D01*
X0183130Y0178212D01*
X0181892Y0176975D01*
X0181833Y0176950D02*
X0194661Y0176950D01*
X0196259Y0175351D02*
X0162341Y0175351D01*
X0160742Y0173753D02*
X0171026Y0173753D01*
X0170038Y0172154D02*
X0159144Y0172154D01*
X0157545Y0170556D02*
X0168705Y0170556D01*
X0166659Y0168957D02*
X0155947Y0168957D01*
X0153954Y0173753D02*
X0146586Y0173753D01*
X0148185Y0175351D02*
X0155553Y0175351D01*
X0157151Y0176950D02*
X0149229Y0176950D01*
X0149891Y0178548D02*
X0158750Y0178548D01*
X0160348Y0180147D02*
X0150100Y0180147D01*
X0150100Y0181745D02*
X0161947Y0181745D01*
X0163545Y0183344D02*
X0149691Y0183344D01*
X0149029Y0184942D02*
X0165144Y0184942D01*
X0166742Y0186541D02*
X0147702Y0186541D01*
X0145540Y0188139D02*
X0168341Y0188139D01*
X0169939Y0189738D02*
X0011600Y0189738D01*
X0011600Y0191337D02*
X0154946Y0191337D01*
X0154977Y0191305D02*
X0158623Y0191305D01*
X0161200Y0193882D01*
X0161200Y0197527D01*
X0158623Y0200105D01*
X0154977Y0200105D01*
X0152400Y0197527D01*
X0152400Y0193882D01*
X0154977Y0191305D01*
X0153347Y0192935D02*
X0011600Y0192935D01*
X0011600Y0194534D02*
X0152400Y0194534D01*
X0152400Y0196132D02*
X0011600Y0196132D01*
X0011600Y0197731D02*
X0152603Y0197731D01*
X0154202Y0199329D02*
X0011600Y0199329D01*
X0011600Y0162563D02*
X0077835Y0162563D01*
X0077425Y0160965D02*
X0011600Y0160965D01*
X0011600Y0159366D02*
X0077619Y0159366D01*
X0078550Y0157768D02*
X0011600Y0157768D01*
X0011600Y0149775D02*
X0022529Y0149775D01*
X0023325Y0150105D02*
X0021708Y0149435D01*
X0020470Y0148197D01*
X0019800Y0146580D01*
X0019800Y0144830D01*
X0020470Y0143212D01*
X0021708Y0141975D01*
X0023325Y0141305D01*
X0030275Y0141305D01*
X0031892Y0141975D01*
X0033130Y0143212D01*
X0033800Y0144830D01*
X0033800Y0146580D01*
X0033130Y0148197D01*
X0031892Y0149435D01*
X0030275Y0150105D01*
X0023325Y0150105D01*
X0020461Y0148177D02*
X0011600Y0148177D01*
X0011600Y0146578D02*
X0019800Y0146578D01*
X0019800Y0144980D02*
X0011600Y0144980D01*
X0011600Y0143381D02*
X0020400Y0143381D01*
X0022171Y0141783D02*
X0011600Y0141783D01*
X0031429Y0141783D02*
X0052171Y0141783D01*
X0050400Y0143381D02*
X0033200Y0143381D01*
X0033800Y0144980D02*
X0049800Y0144980D01*
X0049800Y0146578D02*
X0033800Y0146578D01*
X0033139Y0148177D02*
X0050461Y0148177D01*
X0052529Y0149775D02*
X0031071Y0149775D01*
X0032742Y0138586D02*
X0050858Y0138586D01*
X0049969Y0136987D02*
X0033631Y0136987D01*
X0033800Y0135389D02*
X0049800Y0135389D01*
X0050231Y0133790D02*
X0033369Y0133790D01*
X0032109Y0132192D02*
X0051491Y0132192D01*
X0051267Y0128995D02*
X0032333Y0128995D01*
X0033462Y0127396D02*
X0050138Y0127396D01*
X0049800Y0125798D02*
X0033800Y0125798D01*
X0033539Y0124199D02*
X0050061Y0124199D01*
X0051082Y0122601D02*
X0032518Y0122601D01*
X0031892Y0119435D02*
X0030275Y0120105D01*
X0023325Y0120105D01*
X0021708Y0119435D01*
X0020470Y0118197D01*
X0019800Y0116580D01*
X0019800Y0114830D01*
X0020470Y0113212D01*
X0021708Y0111975D01*
X0023325Y0111305D01*
X0030275Y0111305D01*
X0031892Y0111975D01*
X0033130Y0113212D01*
X0033800Y0114830D01*
X0033800Y0116580D01*
X0033130Y0118197D01*
X0031892Y0119435D01*
X0031924Y0119403D02*
X0051676Y0119403D01*
X0050307Y0117805D02*
X0033293Y0117805D01*
X0033800Y0116206D02*
X0049800Y0116206D01*
X0049892Y0114608D02*
X0033708Y0114608D01*
X0032927Y0113009D02*
X0050673Y0113009D01*
X0053068Y0111411D02*
X0030532Y0111411D01*
X0030275Y0110105D02*
X0031892Y0109435D01*
X0033130Y0108197D01*
X0033800Y0106580D01*
X0033800Y0104830D01*
X0033130Y0103212D01*
X0031892Y0101975D01*
X0030275Y0101305D01*
X0023325Y0101305D01*
X0021708Y0101975D01*
X0020470Y0103212D01*
X0019800Y0104830D01*
X0019800Y0106580D01*
X0020470Y0108197D01*
X0021708Y0109435D01*
X0023325Y0110105D01*
X0030275Y0110105D01*
X0030981Y0109812D02*
X0052619Y0109812D01*
X0050487Y0108214D02*
X0033113Y0108214D01*
X0033785Y0106615D02*
X0049815Y0106615D01*
X0049800Y0105017D02*
X0033800Y0105017D01*
X0033215Y0103418D02*
X0050384Y0103418D01*
X0052081Y0101820D02*
X0031519Y0101820D01*
X0032704Y0098623D02*
X0050896Y0098623D01*
X0049984Y0097024D02*
X0033616Y0097024D01*
X0033800Y0095426D02*
X0049800Y0095426D01*
X0050215Y0093827D02*
X0033385Y0093827D01*
X0032147Y0092229D02*
X0051453Y0092229D01*
X0051305Y0089032D02*
X0032295Y0089032D01*
X0033447Y0087433D02*
X0050153Y0087433D01*
X0049800Y0085835D02*
X0033800Y0085835D01*
X0033554Y0084236D02*
X0050046Y0084236D01*
X0051044Y0082638D02*
X0032556Y0082638D01*
X0021044Y0082638D02*
X0011600Y0082638D01*
X0011600Y0084236D02*
X0020046Y0084236D01*
X0019800Y0085835D02*
X0011600Y0085835D01*
X0011600Y0087433D02*
X0020153Y0087433D01*
X0022081Y0101820D02*
X0011600Y0101820D01*
X0011600Y0103418D02*
X0020384Y0103418D01*
X0019800Y0105017D02*
X0011600Y0105017D01*
X0011600Y0106615D02*
X0019815Y0106615D01*
X0020487Y0108214D02*
X0011600Y0108214D01*
X0011600Y0109812D02*
X0022619Y0109812D01*
X0023068Y0111411D02*
X0011600Y0111411D01*
X0011600Y0113009D02*
X0020673Y0113009D01*
X0019892Y0114608D02*
X0011600Y0114608D01*
X0011600Y0116206D02*
X0019800Y0116206D01*
X0020307Y0117805D02*
X0011600Y0117805D01*
X0011600Y0119403D02*
X0021676Y0119403D01*
X0021082Y0122601D02*
X0011600Y0122601D01*
X0011600Y0124199D02*
X0020061Y0124199D01*
X0019800Y0125798D02*
X0011600Y0125798D01*
X0011600Y0127396D02*
X0020138Y0127396D01*
X0011600Y0121002D02*
X0077425Y0121002D01*
X0077604Y0119403D02*
X0061924Y0119403D01*
X0063293Y0117805D02*
X0078513Y0117805D01*
X0077850Y0122601D02*
X0062518Y0122601D01*
X0063539Y0124199D02*
X0079107Y0124199D01*
X0077927Y0098623D02*
X0062704Y0098623D01*
X0063616Y0097024D02*
X0079293Y0097024D01*
X0079881Y0074645D02*
X0011600Y0074645D01*
X0011600Y0073047D02*
X0078035Y0073047D01*
X0077425Y0071448D02*
X0011600Y0071448D01*
X0011600Y0069850D02*
X0077425Y0069850D01*
X0078081Y0068251D02*
X0011600Y0068251D01*
X0011600Y0066653D02*
X0080151Y0066653D01*
X0080868Y0065054D02*
X0023673Y0065054D01*
X0023623Y0065105D02*
X0021800Y0065105D01*
X0019977Y0065105D01*
X0017400Y0062527D01*
X0017400Y0060705D01*
X0021800Y0060705D01*
X0021800Y0060705D01*
X0021800Y0065105D01*
X0021800Y0060705D01*
X0026200Y0060705D01*
X0026200Y0062527D01*
X0023623Y0065105D01*
X0021800Y0065054D02*
X0021800Y0065054D01*
X0021800Y0063456D02*
X0021800Y0063456D01*
X0021800Y0061857D02*
X0021800Y0061857D01*
X0021800Y0060705D02*
X0021800Y0060705D01*
X0021800Y0060705D01*
X0026200Y0060705D01*
X0026200Y0058882D01*
X0023623Y0056305D01*
X0021800Y0056305D01*
X0021800Y0060705D01*
X0017400Y0060705D01*
X0017400Y0058882D01*
X0019977Y0056305D01*
X0021800Y0056305D01*
X0021800Y0060705D01*
X0021800Y0060705D01*
X0021800Y0060259D02*
X0021800Y0060259D01*
X0021800Y0058660D02*
X0021800Y0058660D01*
X0021800Y0057062D02*
X0021800Y0057062D01*
X0024379Y0057062D02*
X0079256Y0057062D01*
X0077912Y0058660D02*
X0025978Y0058660D01*
X0026200Y0060259D02*
X0077425Y0060259D01*
X0077542Y0061857D02*
X0026200Y0061857D01*
X0025272Y0063456D02*
X0078364Y0063456D01*
X0059760Y0033084D02*
X0059588Y0033084D01*
X0059588Y0031485D02*
X0059760Y0031485D01*
X0059760Y0029887D02*
X0059588Y0029887D01*
X0056651Y0033084D02*
X0054823Y0033084D01*
X0048777Y0033084D02*
X0046949Y0033084D01*
X0019221Y0057062D02*
X0011600Y0057062D01*
X0011600Y0058660D02*
X0017622Y0058660D01*
X0017400Y0060259D02*
X0011600Y0060259D01*
X0011600Y0061857D02*
X0017400Y0061857D01*
X0018328Y0063456D02*
X0011600Y0063456D01*
X0011600Y0065054D02*
X0019927Y0065054D01*
X0087553Y0026690D02*
X0136047Y0026690D01*
X0134633Y0025091D02*
X0088967Y0025091D01*
X0089629Y0023493D02*
X0133971Y0023493D01*
X0133500Y0021894D02*
X0090100Y0021894D01*
X0090100Y0020296D02*
X0133500Y0020296D01*
X0133648Y0018697D02*
X0089952Y0018697D01*
X0089290Y0017099D02*
X0134310Y0017099D01*
X0144641Y0167359D02*
X0165060Y0167359D01*
X0163939Y0176950D02*
X0171767Y0176950D01*
X0170331Y0178548D02*
X0165538Y0178548D01*
X0167136Y0180147D02*
X0169800Y0180147D01*
X0169869Y0181745D02*
X0168735Y0181745D01*
X0170333Y0183344D02*
X0170617Y0183344D01*
X0171932Y0184942D02*
X0172933Y0184942D01*
X0180667Y0184942D02*
X0186668Y0184942D01*
X0188267Y0183344D02*
X0182983Y0183344D01*
X0183731Y0181745D02*
X0189865Y0181745D01*
X0191464Y0180147D02*
X0183800Y0180147D01*
X0183269Y0178548D02*
X0193062Y0178548D01*
X0196653Y0181745D02*
X0199869Y0181745D01*
X0199800Y0181580D02*
X0199800Y0179830D01*
X0200470Y0178212D01*
X0201708Y0176975D01*
X0203325Y0176305D01*
X0210275Y0176305D01*
X0211892Y0176975D01*
X0213130Y0178212D01*
X0213800Y0179830D01*
X0213800Y0181580D01*
X0213130Y0183197D01*
X0211892Y0184435D01*
X0210275Y0185105D01*
X0203325Y0185105D01*
X0201708Y0184435D01*
X0200470Y0183197D01*
X0199800Y0181580D01*
X0199800Y0180147D02*
X0198252Y0180147D01*
X0199850Y0178548D02*
X0200331Y0178548D01*
X0201449Y0176950D02*
X0201767Y0176950D01*
X0203047Y0175351D02*
X0345701Y0175351D01*
X0345701Y0173753D02*
X0212574Y0173753D01*
X0213562Y0172154D02*
X0345701Y0172154D01*
X0345701Y0170556D02*
X0213800Y0170556D01*
X0213439Y0168957D02*
X0345701Y0168957D01*
X0345701Y0167359D02*
X0212277Y0167359D01*
X0211833Y0176950D02*
X0345701Y0176950D01*
X0345701Y0178548D02*
X0213269Y0178548D01*
X0213800Y0180147D02*
X0345701Y0180147D01*
X0345701Y0181745D02*
X0213731Y0181745D01*
X0212983Y0183344D02*
X0345701Y0183344D01*
X0345701Y0184942D02*
X0210667Y0184942D01*
X0202933Y0184942D02*
X0193456Y0184942D01*
X0195055Y0183344D02*
X0200617Y0183344D01*
X0191858Y0186541D02*
X0345701Y0186541D01*
X0345701Y0188139D02*
X0190259Y0188139D01*
X0188661Y0189738D02*
X0345701Y0189738D01*
X0345701Y0191337D02*
X0158654Y0191337D01*
X0160253Y0192935D02*
X0345701Y0192935D01*
X0345701Y0194534D02*
X0161200Y0194534D01*
X0161200Y0196132D02*
X0345701Y0196132D01*
X0345701Y0197731D02*
X0160997Y0197731D01*
X0159398Y0199329D02*
X0345701Y0199329D01*
D19*
X0206800Y0170705D02*
X0204300Y0170705D01*
X0186800Y0188205D01*
X0171800Y0188205D01*
X0154300Y0170705D01*
X0141800Y0170705D01*
X0141800Y0160705D02*
X0169300Y0133205D01*
X0171800Y0133205D01*
X0174300Y0130705D01*
X0176800Y0130705D01*
X0156800Y0155705D02*
X0169300Y0168205D01*
X0171800Y0168205D01*
X0174300Y0170705D01*
X0176800Y0170705D01*
X0311800Y0055705D02*
X0331800Y0075705D01*
X0309300Y0045705D02*
X0286800Y0068205D01*
X0176800Y0068205D01*
X0166800Y0058205D01*
X0154300Y0058205D01*
X0141800Y0070705D01*
X0196800Y0043205D02*
X0201800Y0043205D01*
X0204300Y0045705D01*
X0206800Y0045705D01*
X0209300Y0045705D01*
X0211800Y0048205D01*
X0219300Y0048205D01*
X0231800Y0060705D01*
X0196800Y0043205D02*
X0196800Y0033205D01*
X0181800Y0018205D01*
X0169300Y0018205D01*
X0161800Y0025705D01*
X0061800Y0020705D02*
X0059674Y0021768D01*
X0061800Y0020705D02*
X0056800Y0015705D01*
X0026800Y0015705D01*
X0021800Y0020705D01*
X0309300Y0045705D02*
X0311800Y0045705D01*
M02*
