G75*
%MOIN*%
%OFA0B0*%
%FSLAX25Y25*%
%IPPOS*%
%LPD*%
%AMOC8*
5,1,8,0,0,1.08239X$1,22.5*
%
%ADD10C,0.00600*%
%ADD11C,0.00500*%
%ADD12C,0.00400*%
%ADD13C,0.00300*%
%ADD14C,0.00200*%
%ADD15C,0.00000*%
%ADD16C,0.00063*%
%ADD17C,0.01200*%
%ADD18R,0.02400X0.03400*%
%ADD19C,0.01000*%
%ADD20R,0.08268X0.01181*%
%ADD21R,0.03400X0.02400*%
%ADD22C,0.00800*%
%ADD23C,0.00100*%
D10*
X0018300Y0028205D02*
X0025300Y0028205D01*
X0025360Y0028207D01*
X0025421Y0028212D01*
X0025480Y0028221D01*
X0025539Y0028234D01*
X0025598Y0028250D01*
X0025655Y0028270D01*
X0025710Y0028293D01*
X0025765Y0028320D01*
X0025817Y0028349D01*
X0025868Y0028382D01*
X0025917Y0028418D01*
X0025963Y0028456D01*
X0026007Y0028498D01*
X0026049Y0028542D01*
X0026087Y0028588D01*
X0026123Y0028637D01*
X0026156Y0028688D01*
X0026185Y0028740D01*
X0026212Y0028795D01*
X0026235Y0028850D01*
X0026255Y0028907D01*
X0026271Y0028966D01*
X0026284Y0029025D01*
X0026293Y0029084D01*
X0026298Y0029145D01*
X0026300Y0029205D01*
X0026300Y0030705D01*
X0025800Y0031205D01*
X0025800Y0050205D01*
X0026300Y0050705D01*
X0026300Y0052205D01*
X0026298Y0052265D01*
X0026293Y0052326D01*
X0026284Y0052385D01*
X0026271Y0052444D01*
X0026255Y0052503D01*
X0026235Y0052560D01*
X0026212Y0052615D01*
X0026185Y0052670D01*
X0026156Y0052722D01*
X0026123Y0052773D01*
X0026087Y0052822D01*
X0026049Y0052868D01*
X0026007Y0052912D01*
X0025963Y0052954D01*
X0025917Y0052992D01*
X0025868Y0053028D01*
X0025817Y0053061D01*
X0025765Y0053090D01*
X0025710Y0053117D01*
X0025655Y0053140D01*
X0025598Y0053160D01*
X0025539Y0053176D01*
X0025480Y0053189D01*
X0025421Y0053198D01*
X0025360Y0053203D01*
X0025300Y0053205D01*
X0018300Y0053205D01*
X0018240Y0053203D01*
X0018179Y0053198D01*
X0018120Y0053189D01*
X0018061Y0053176D01*
X0018002Y0053160D01*
X0017945Y0053140D01*
X0017890Y0053117D01*
X0017835Y0053090D01*
X0017783Y0053061D01*
X0017732Y0053028D01*
X0017683Y0052992D01*
X0017637Y0052954D01*
X0017593Y0052912D01*
X0017551Y0052868D01*
X0017513Y0052822D01*
X0017477Y0052773D01*
X0017444Y0052722D01*
X0017415Y0052670D01*
X0017388Y0052615D01*
X0017365Y0052560D01*
X0017345Y0052503D01*
X0017329Y0052444D01*
X0017316Y0052385D01*
X0017307Y0052326D01*
X0017302Y0052265D01*
X0017300Y0052205D01*
X0017300Y0050705D01*
X0017800Y0050205D01*
X0017800Y0031205D01*
X0017300Y0030705D01*
X0017300Y0029205D01*
X0017302Y0029145D01*
X0017307Y0029084D01*
X0017316Y0029025D01*
X0017329Y0028966D01*
X0017345Y0028907D01*
X0017365Y0028850D01*
X0017388Y0028795D01*
X0017415Y0028740D01*
X0017444Y0028688D01*
X0017477Y0028637D01*
X0017513Y0028588D01*
X0017551Y0028542D01*
X0017593Y0028498D01*
X0017637Y0028456D01*
X0017683Y0028418D01*
X0017732Y0028382D01*
X0017783Y0028349D01*
X0017835Y0028320D01*
X0017890Y0028293D01*
X0017945Y0028270D01*
X0018002Y0028250D01*
X0018061Y0028234D01*
X0018120Y0028221D01*
X0018179Y0028212D01*
X0018240Y0028207D01*
X0018300Y0028205D01*
X0030300Y0080705D02*
X0053300Y0080705D01*
X0053300Y0150705D01*
X0045800Y0150705D01*
X0045798Y0150579D01*
X0045792Y0150454D01*
X0045782Y0150329D01*
X0045768Y0150204D01*
X0045751Y0150079D01*
X0045729Y0149955D01*
X0045704Y0149832D01*
X0045674Y0149710D01*
X0045641Y0149589D01*
X0045604Y0149469D01*
X0045564Y0149350D01*
X0045519Y0149233D01*
X0045471Y0149116D01*
X0045419Y0149002D01*
X0045364Y0148889D01*
X0045305Y0148778D01*
X0045243Y0148669D01*
X0045177Y0148562D01*
X0045108Y0148457D01*
X0045036Y0148354D01*
X0044961Y0148253D01*
X0044882Y0148155D01*
X0044800Y0148060D01*
X0044716Y0147967D01*
X0044628Y0147877D01*
X0044538Y0147789D01*
X0044445Y0147705D01*
X0044350Y0147623D01*
X0044252Y0147544D01*
X0044151Y0147469D01*
X0044048Y0147397D01*
X0043943Y0147328D01*
X0043836Y0147262D01*
X0043727Y0147200D01*
X0043616Y0147141D01*
X0043503Y0147086D01*
X0043389Y0147034D01*
X0043272Y0146986D01*
X0043155Y0146941D01*
X0043036Y0146901D01*
X0042916Y0146864D01*
X0042795Y0146831D01*
X0042673Y0146801D01*
X0042550Y0146776D01*
X0042426Y0146754D01*
X0042301Y0146737D01*
X0042176Y0146723D01*
X0042051Y0146713D01*
X0041926Y0146707D01*
X0041800Y0146705D01*
X0041674Y0146707D01*
X0041549Y0146713D01*
X0041424Y0146723D01*
X0041299Y0146737D01*
X0041174Y0146754D01*
X0041050Y0146776D01*
X0040927Y0146801D01*
X0040805Y0146831D01*
X0040684Y0146864D01*
X0040564Y0146901D01*
X0040445Y0146941D01*
X0040328Y0146986D01*
X0040211Y0147034D01*
X0040097Y0147086D01*
X0039984Y0147141D01*
X0039873Y0147200D01*
X0039764Y0147262D01*
X0039657Y0147328D01*
X0039552Y0147397D01*
X0039449Y0147469D01*
X0039348Y0147544D01*
X0039250Y0147623D01*
X0039155Y0147705D01*
X0039062Y0147789D01*
X0038972Y0147877D01*
X0038884Y0147967D01*
X0038800Y0148060D01*
X0038718Y0148155D01*
X0038639Y0148253D01*
X0038564Y0148354D01*
X0038492Y0148457D01*
X0038423Y0148562D01*
X0038357Y0148669D01*
X0038295Y0148778D01*
X0038236Y0148889D01*
X0038181Y0149002D01*
X0038129Y0149116D01*
X0038081Y0149233D01*
X0038036Y0149350D01*
X0037996Y0149469D01*
X0037959Y0149589D01*
X0037926Y0149710D01*
X0037896Y0149832D01*
X0037871Y0149955D01*
X0037849Y0150079D01*
X0037832Y0150204D01*
X0037818Y0150329D01*
X0037808Y0150454D01*
X0037802Y0150579D01*
X0037800Y0150705D01*
X0030300Y0150705D01*
X0030300Y0080705D01*
X0157300Y0057205D02*
X0157300Y0055705D01*
X0157800Y0055205D01*
X0157800Y0036205D01*
X0157300Y0035705D01*
X0157300Y0034205D01*
X0157302Y0034145D01*
X0157307Y0034084D01*
X0157316Y0034025D01*
X0157329Y0033966D01*
X0157345Y0033907D01*
X0157365Y0033850D01*
X0157388Y0033795D01*
X0157415Y0033740D01*
X0157444Y0033688D01*
X0157477Y0033637D01*
X0157513Y0033588D01*
X0157551Y0033542D01*
X0157593Y0033498D01*
X0157637Y0033456D01*
X0157683Y0033418D01*
X0157732Y0033382D01*
X0157783Y0033349D01*
X0157835Y0033320D01*
X0157890Y0033293D01*
X0157945Y0033270D01*
X0158002Y0033250D01*
X0158061Y0033234D01*
X0158120Y0033221D01*
X0158179Y0033212D01*
X0158240Y0033207D01*
X0158300Y0033205D01*
X0165300Y0033205D01*
X0165360Y0033207D01*
X0165421Y0033212D01*
X0165480Y0033221D01*
X0165539Y0033234D01*
X0165598Y0033250D01*
X0165655Y0033270D01*
X0165710Y0033293D01*
X0165765Y0033320D01*
X0165817Y0033349D01*
X0165868Y0033382D01*
X0165917Y0033418D01*
X0165963Y0033456D01*
X0166007Y0033498D01*
X0166049Y0033542D01*
X0166087Y0033588D01*
X0166123Y0033637D01*
X0166156Y0033688D01*
X0166185Y0033740D01*
X0166212Y0033795D01*
X0166235Y0033850D01*
X0166255Y0033907D01*
X0166271Y0033966D01*
X0166284Y0034025D01*
X0166293Y0034084D01*
X0166298Y0034145D01*
X0166300Y0034205D01*
X0166300Y0035705D01*
X0165800Y0036205D01*
X0165800Y0055205D01*
X0166300Y0055705D01*
X0166300Y0057205D01*
X0166298Y0057265D01*
X0166293Y0057326D01*
X0166284Y0057385D01*
X0166271Y0057444D01*
X0166255Y0057503D01*
X0166235Y0057560D01*
X0166212Y0057615D01*
X0166185Y0057670D01*
X0166156Y0057722D01*
X0166123Y0057773D01*
X0166087Y0057822D01*
X0166049Y0057868D01*
X0166007Y0057912D01*
X0165963Y0057954D01*
X0165917Y0057992D01*
X0165868Y0058028D01*
X0165817Y0058061D01*
X0165765Y0058090D01*
X0165710Y0058117D01*
X0165655Y0058140D01*
X0165598Y0058160D01*
X0165539Y0058176D01*
X0165480Y0058189D01*
X0165421Y0058198D01*
X0165360Y0058203D01*
X0165300Y0058205D01*
X0158300Y0058205D01*
X0158240Y0058203D01*
X0158179Y0058198D01*
X0158120Y0058189D01*
X0158061Y0058176D01*
X0158002Y0058160D01*
X0157945Y0058140D01*
X0157890Y0058117D01*
X0157835Y0058090D01*
X0157783Y0058061D01*
X0157732Y0058028D01*
X0157683Y0057992D01*
X0157637Y0057954D01*
X0157593Y0057912D01*
X0157551Y0057868D01*
X0157513Y0057822D01*
X0157477Y0057773D01*
X0157444Y0057722D01*
X0157415Y0057670D01*
X0157388Y0057615D01*
X0157365Y0057560D01*
X0157345Y0057503D01*
X0157329Y0057444D01*
X0157316Y0057385D01*
X0157307Y0057326D01*
X0157302Y0057265D01*
X0157300Y0057205D01*
X0180300Y0060705D02*
X0203300Y0060705D01*
X0203300Y0020705D01*
X0195800Y0020705D01*
X0195798Y0020831D01*
X0195792Y0020956D01*
X0195782Y0021081D01*
X0195768Y0021206D01*
X0195751Y0021331D01*
X0195729Y0021455D01*
X0195704Y0021578D01*
X0195674Y0021700D01*
X0195641Y0021821D01*
X0195604Y0021941D01*
X0195564Y0022060D01*
X0195519Y0022177D01*
X0195471Y0022294D01*
X0195419Y0022408D01*
X0195364Y0022521D01*
X0195305Y0022632D01*
X0195243Y0022741D01*
X0195177Y0022848D01*
X0195108Y0022953D01*
X0195036Y0023056D01*
X0194961Y0023157D01*
X0194882Y0023255D01*
X0194800Y0023350D01*
X0194716Y0023443D01*
X0194628Y0023533D01*
X0194538Y0023621D01*
X0194445Y0023705D01*
X0194350Y0023787D01*
X0194252Y0023866D01*
X0194151Y0023941D01*
X0194048Y0024013D01*
X0193943Y0024082D01*
X0193836Y0024148D01*
X0193727Y0024210D01*
X0193616Y0024269D01*
X0193503Y0024324D01*
X0193389Y0024376D01*
X0193272Y0024424D01*
X0193155Y0024469D01*
X0193036Y0024509D01*
X0192916Y0024546D01*
X0192795Y0024579D01*
X0192673Y0024609D01*
X0192550Y0024634D01*
X0192426Y0024656D01*
X0192301Y0024673D01*
X0192176Y0024687D01*
X0192051Y0024697D01*
X0191926Y0024703D01*
X0191800Y0024705D01*
X0191674Y0024703D01*
X0191549Y0024697D01*
X0191424Y0024687D01*
X0191299Y0024673D01*
X0191174Y0024656D01*
X0191050Y0024634D01*
X0190927Y0024609D01*
X0190805Y0024579D01*
X0190684Y0024546D01*
X0190564Y0024509D01*
X0190445Y0024469D01*
X0190328Y0024424D01*
X0190211Y0024376D01*
X0190097Y0024324D01*
X0189984Y0024269D01*
X0189873Y0024210D01*
X0189764Y0024148D01*
X0189657Y0024082D01*
X0189552Y0024013D01*
X0189449Y0023941D01*
X0189348Y0023866D01*
X0189250Y0023787D01*
X0189155Y0023705D01*
X0189062Y0023621D01*
X0188972Y0023533D01*
X0188884Y0023443D01*
X0188800Y0023350D01*
X0188718Y0023255D01*
X0188639Y0023157D01*
X0188564Y0023056D01*
X0188492Y0022953D01*
X0188423Y0022848D01*
X0188357Y0022741D01*
X0188295Y0022632D01*
X0188236Y0022521D01*
X0188181Y0022408D01*
X0188129Y0022294D01*
X0188081Y0022177D01*
X0188036Y0022060D01*
X0187996Y0021941D01*
X0187959Y0021821D01*
X0187926Y0021700D01*
X0187896Y0021578D01*
X0187871Y0021455D01*
X0187849Y0021331D01*
X0187832Y0021206D01*
X0187818Y0021081D01*
X0187808Y0020956D01*
X0187802Y0020831D01*
X0187800Y0020705D01*
X0180300Y0020705D01*
X0180300Y0060705D01*
X0227300Y0069205D02*
X0227300Y0070705D01*
X0227800Y0071205D01*
X0227800Y0090205D01*
X0227300Y0090705D01*
X0227300Y0092205D01*
X0227302Y0092265D01*
X0227307Y0092326D01*
X0227316Y0092385D01*
X0227329Y0092444D01*
X0227345Y0092503D01*
X0227365Y0092560D01*
X0227388Y0092615D01*
X0227415Y0092670D01*
X0227444Y0092722D01*
X0227477Y0092773D01*
X0227513Y0092822D01*
X0227551Y0092868D01*
X0227593Y0092912D01*
X0227637Y0092954D01*
X0227683Y0092992D01*
X0227732Y0093028D01*
X0227783Y0093061D01*
X0227835Y0093090D01*
X0227890Y0093117D01*
X0227945Y0093140D01*
X0228002Y0093160D01*
X0228061Y0093176D01*
X0228120Y0093189D01*
X0228179Y0093198D01*
X0228240Y0093203D01*
X0228300Y0093205D01*
X0235300Y0093205D01*
X0235360Y0093203D01*
X0235421Y0093198D01*
X0235480Y0093189D01*
X0235539Y0093176D01*
X0235598Y0093160D01*
X0235655Y0093140D01*
X0235710Y0093117D01*
X0235765Y0093090D01*
X0235817Y0093061D01*
X0235868Y0093028D01*
X0235917Y0092992D01*
X0235963Y0092954D01*
X0236007Y0092912D01*
X0236049Y0092868D01*
X0236087Y0092822D01*
X0236123Y0092773D01*
X0236156Y0092722D01*
X0236185Y0092670D01*
X0236212Y0092615D01*
X0236235Y0092560D01*
X0236255Y0092503D01*
X0236271Y0092444D01*
X0236284Y0092385D01*
X0236293Y0092326D01*
X0236298Y0092265D01*
X0236300Y0092205D01*
X0236300Y0090705D01*
X0235800Y0090205D01*
X0235800Y0071205D01*
X0236300Y0070705D01*
X0236300Y0069205D01*
X0236298Y0069145D01*
X0236293Y0069084D01*
X0236284Y0069025D01*
X0236271Y0068966D01*
X0236255Y0068907D01*
X0236235Y0068850D01*
X0236212Y0068795D01*
X0236185Y0068740D01*
X0236156Y0068688D01*
X0236123Y0068637D01*
X0236087Y0068588D01*
X0236049Y0068542D01*
X0236007Y0068498D01*
X0235963Y0068456D01*
X0235917Y0068418D01*
X0235868Y0068382D01*
X0235817Y0068349D01*
X0235765Y0068320D01*
X0235710Y0068293D01*
X0235655Y0068270D01*
X0235598Y0068250D01*
X0235539Y0068234D01*
X0235480Y0068221D01*
X0235421Y0068212D01*
X0235360Y0068207D01*
X0235300Y0068205D01*
X0228300Y0068205D01*
X0228240Y0068207D01*
X0228179Y0068212D01*
X0228120Y0068221D01*
X0228061Y0068234D01*
X0228002Y0068250D01*
X0227945Y0068270D01*
X0227890Y0068293D01*
X0227835Y0068320D01*
X0227783Y0068349D01*
X0227732Y0068382D01*
X0227683Y0068418D01*
X0227637Y0068456D01*
X0227593Y0068498D01*
X0227551Y0068542D01*
X0227513Y0068588D01*
X0227477Y0068637D01*
X0227444Y0068688D01*
X0227415Y0068740D01*
X0227388Y0068795D01*
X0227365Y0068850D01*
X0227345Y0068907D01*
X0227329Y0068966D01*
X0227316Y0069025D01*
X0227307Y0069084D01*
X0227302Y0069145D01*
X0227300Y0069205D01*
X0253300Y0053205D02*
X0260300Y0053205D01*
X0260360Y0053203D01*
X0260421Y0053198D01*
X0260480Y0053189D01*
X0260539Y0053176D01*
X0260598Y0053160D01*
X0260655Y0053140D01*
X0260710Y0053117D01*
X0260765Y0053090D01*
X0260817Y0053061D01*
X0260868Y0053028D01*
X0260917Y0052992D01*
X0260963Y0052954D01*
X0261007Y0052912D01*
X0261049Y0052868D01*
X0261087Y0052822D01*
X0261123Y0052773D01*
X0261156Y0052722D01*
X0261185Y0052670D01*
X0261212Y0052615D01*
X0261235Y0052560D01*
X0261255Y0052503D01*
X0261271Y0052444D01*
X0261284Y0052385D01*
X0261293Y0052326D01*
X0261298Y0052265D01*
X0261300Y0052205D01*
X0261300Y0050705D01*
X0260800Y0050205D01*
X0260800Y0031205D01*
X0261300Y0030705D01*
X0261300Y0029205D01*
X0261298Y0029145D01*
X0261293Y0029084D01*
X0261284Y0029025D01*
X0261271Y0028966D01*
X0261255Y0028907D01*
X0261235Y0028850D01*
X0261212Y0028795D01*
X0261185Y0028740D01*
X0261156Y0028688D01*
X0261123Y0028637D01*
X0261087Y0028588D01*
X0261049Y0028542D01*
X0261007Y0028498D01*
X0260963Y0028456D01*
X0260917Y0028418D01*
X0260868Y0028382D01*
X0260817Y0028349D01*
X0260765Y0028320D01*
X0260710Y0028293D01*
X0260655Y0028270D01*
X0260598Y0028250D01*
X0260539Y0028234D01*
X0260480Y0028221D01*
X0260421Y0028212D01*
X0260360Y0028207D01*
X0260300Y0028205D01*
X0253300Y0028205D01*
X0253240Y0028207D01*
X0253179Y0028212D01*
X0253120Y0028221D01*
X0253061Y0028234D01*
X0253002Y0028250D01*
X0252945Y0028270D01*
X0252890Y0028293D01*
X0252835Y0028320D01*
X0252783Y0028349D01*
X0252732Y0028382D01*
X0252683Y0028418D01*
X0252637Y0028456D01*
X0252593Y0028498D01*
X0252551Y0028542D01*
X0252513Y0028588D01*
X0252477Y0028637D01*
X0252444Y0028688D01*
X0252415Y0028740D01*
X0252388Y0028795D01*
X0252365Y0028850D01*
X0252345Y0028907D01*
X0252329Y0028966D01*
X0252316Y0029025D01*
X0252307Y0029084D01*
X0252302Y0029145D01*
X0252300Y0029205D01*
X0252300Y0030705D01*
X0252800Y0031205D01*
X0252800Y0050205D01*
X0252300Y0050705D01*
X0252300Y0052205D01*
X0252302Y0052265D01*
X0252307Y0052326D01*
X0252316Y0052385D01*
X0252329Y0052444D01*
X0252345Y0052503D01*
X0252365Y0052560D01*
X0252388Y0052615D01*
X0252415Y0052670D01*
X0252444Y0052722D01*
X0252477Y0052773D01*
X0252513Y0052822D01*
X0252551Y0052868D01*
X0252593Y0052912D01*
X0252637Y0052954D01*
X0252683Y0052992D01*
X0252732Y0053028D01*
X0252783Y0053061D01*
X0252835Y0053090D01*
X0252890Y0053117D01*
X0252945Y0053140D01*
X0253002Y0053160D01*
X0253061Y0053176D01*
X0253120Y0053189D01*
X0253179Y0053198D01*
X0253240Y0053203D01*
X0253300Y0053205D01*
X0239300Y0046705D02*
X0239300Y0019705D01*
X0239298Y0019645D01*
X0239293Y0019584D01*
X0239284Y0019525D01*
X0239271Y0019466D01*
X0239255Y0019407D01*
X0239235Y0019350D01*
X0239212Y0019295D01*
X0239185Y0019240D01*
X0239156Y0019188D01*
X0239123Y0019137D01*
X0239087Y0019088D01*
X0239049Y0019042D01*
X0239007Y0018998D01*
X0238963Y0018956D01*
X0238917Y0018918D01*
X0238868Y0018882D01*
X0238817Y0018849D01*
X0238765Y0018820D01*
X0238710Y0018793D01*
X0238655Y0018770D01*
X0238598Y0018750D01*
X0238539Y0018734D01*
X0238480Y0018721D01*
X0238421Y0018712D01*
X0238360Y0018707D01*
X0238300Y0018705D01*
X0230300Y0018705D01*
X0230240Y0018707D01*
X0230179Y0018712D01*
X0230120Y0018721D01*
X0230061Y0018734D01*
X0230002Y0018750D01*
X0229945Y0018770D01*
X0229890Y0018793D01*
X0229835Y0018820D01*
X0229783Y0018849D01*
X0229732Y0018882D01*
X0229683Y0018918D01*
X0229637Y0018956D01*
X0229593Y0018998D01*
X0229551Y0019042D01*
X0229513Y0019088D01*
X0229477Y0019137D01*
X0229444Y0019188D01*
X0229415Y0019240D01*
X0229388Y0019295D01*
X0229365Y0019350D01*
X0229345Y0019407D01*
X0229329Y0019466D01*
X0229316Y0019525D01*
X0229307Y0019584D01*
X0229302Y0019645D01*
X0229300Y0019705D01*
X0229300Y0046705D01*
X0229302Y0046765D01*
X0229307Y0046826D01*
X0229316Y0046885D01*
X0229329Y0046944D01*
X0229345Y0047003D01*
X0229365Y0047060D01*
X0229388Y0047115D01*
X0229415Y0047170D01*
X0229444Y0047222D01*
X0229477Y0047273D01*
X0229513Y0047322D01*
X0229551Y0047368D01*
X0229593Y0047412D01*
X0229637Y0047454D01*
X0229683Y0047492D01*
X0229732Y0047528D01*
X0229783Y0047561D01*
X0229835Y0047590D01*
X0229890Y0047617D01*
X0229945Y0047640D01*
X0230002Y0047660D01*
X0230061Y0047676D01*
X0230120Y0047689D01*
X0230179Y0047698D01*
X0230240Y0047703D01*
X0230300Y0047705D01*
X0238300Y0047705D01*
X0238360Y0047703D01*
X0238421Y0047698D01*
X0238480Y0047689D01*
X0238539Y0047676D01*
X0238598Y0047660D01*
X0238655Y0047640D01*
X0238710Y0047617D01*
X0238765Y0047590D01*
X0238817Y0047561D01*
X0238868Y0047528D01*
X0238917Y0047492D01*
X0238963Y0047454D01*
X0239007Y0047412D01*
X0239049Y0047368D01*
X0239087Y0047322D01*
X0239123Y0047273D01*
X0239156Y0047222D01*
X0239185Y0047170D01*
X0239212Y0047115D01*
X0239235Y0047060D01*
X0239255Y0047003D01*
X0239271Y0046944D01*
X0239284Y0046885D01*
X0239293Y0046826D01*
X0239298Y0046765D01*
X0239300Y0046705D01*
X0234300Y0039205D02*
X0234300Y0034405D01*
X0234300Y0031905D02*
X0234300Y0027205D01*
X0285300Y0020705D02*
X0308300Y0020705D01*
X0308300Y0060705D01*
X0300800Y0060705D01*
X0300798Y0060579D01*
X0300792Y0060454D01*
X0300782Y0060329D01*
X0300768Y0060204D01*
X0300751Y0060079D01*
X0300729Y0059955D01*
X0300704Y0059832D01*
X0300674Y0059710D01*
X0300641Y0059589D01*
X0300604Y0059469D01*
X0300564Y0059350D01*
X0300519Y0059233D01*
X0300471Y0059116D01*
X0300419Y0059002D01*
X0300364Y0058889D01*
X0300305Y0058778D01*
X0300243Y0058669D01*
X0300177Y0058562D01*
X0300108Y0058457D01*
X0300036Y0058354D01*
X0299961Y0058253D01*
X0299882Y0058155D01*
X0299800Y0058060D01*
X0299716Y0057967D01*
X0299628Y0057877D01*
X0299538Y0057789D01*
X0299445Y0057705D01*
X0299350Y0057623D01*
X0299252Y0057544D01*
X0299151Y0057469D01*
X0299048Y0057397D01*
X0298943Y0057328D01*
X0298836Y0057262D01*
X0298727Y0057200D01*
X0298616Y0057141D01*
X0298503Y0057086D01*
X0298389Y0057034D01*
X0298272Y0056986D01*
X0298155Y0056941D01*
X0298036Y0056901D01*
X0297916Y0056864D01*
X0297795Y0056831D01*
X0297673Y0056801D01*
X0297550Y0056776D01*
X0297426Y0056754D01*
X0297301Y0056737D01*
X0297176Y0056723D01*
X0297051Y0056713D01*
X0296926Y0056707D01*
X0296800Y0056705D01*
X0296674Y0056707D01*
X0296549Y0056713D01*
X0296424Y0056723D01*
X0296299Y0056737D01*
X0296174Y0056754D01*
X0296050Y0056776D01*
X0295927Y0056801D01*
X0295805Y0056831D01*
X0295684Y0056864D01*
X0295564Y0056901D01*
X0295445Y0056941D01*
X0295328Y0056986D01*
X0295211Y0057034D01*
X0295097Y0057086D01*
X0294984Y0057141D01*
X0294873Y0057200D01*
X0294764Y0057262D01*
X0294657Y0057328D01*
X0294552Y0057397D01*
X0294449Y0057469D01*
X0294348Y0057544D01*
X0294250Y0057623D01*
X0294155Y0057705D01*
X0294062Y0057789D01*
X0293972Y0057877D01*
X0293884Y0057967D01*
X0293800Y0058060D01*
X0293718Y0058155D01*
X0293639Y0058253D01*
X0293564Y0058354D01*
X0293492Y0058457D01*
X0293423Y0058562D01*
X0293357Y0058669D01*
X0293295Y0058778D01*
X0293236Y0058889D01*
X0293181Y0059002D01*
X0293129Y0059116D01*
X0293081Y0059233D01*
X0293036Y0059350D01*
X0292996Y0059469D01*
X0292959Y0059589D01*
X0292926Y0059710D01*
X0292896Y0059832D01*
X0292871Y0059955D01*
X0292849Y0060079D01*
X0292832Y0060204D01*
X0292818Y0060329D01*
X0292808Y0060454D01*
X0292802Y0060579D01*
X0292800Y0060705D01*
X0285300Y0060705D01*
X0285300Y0020705D01*
X0327300Y0044205D02*
X0327300Y0045705D01*
X0327800Y0046205D01*
X0327800Y0065205D01*
X0327300Y0065705D01*
X0327300Y0067205D01*
X0327302Y0067265D01*
X0327307Y0067326D01*
X0327316Y0067385D01*
X0327329Y0067444D01*
X0327345Y0067503D01*
X0327365Y0067560D01*
X0327388Y0067615D01*
X0327415Y0067670D01*
X0327444Y0067722D01*
X0327477Y0067773D01*
X0327513Y0067822D01*
X0327551Y0067868D01*
X0327593Y0067912D01*
X0327637Y0067954D01*
X0327683Y0067992D01*
X0327732Y0068028D01*
X0327783Y0068061D01*
X0327835Y0068090D01*
X0327890Y0068117D01*
X0327945Y0068140D01*
X0328002Y0068160D01*
X0328061Y0068176D01*
X0328120Y0068189D01*
X0328179Y0068198D01*
X0328240Y0068203D01*
X0328300Y0068205D01*
X0335300Y0068205D01*
X0335360Y0068203D01*
X0335421Y0068198D01*
X0335480Y0068189D01*
X0335539Y0068176D01*
X0335598Y0068160D01*
X0335655Y0068140D01*
X0335710Y0068117D01*
X0335765Y0068090D01*
X0335817Y0068061D01*
X0335868Y0068028D01*
X0335917Y0067992D01*
X0335963Y0067954D01*
X0336007Y0067912D01*
X0336049Y0067868D01*
X0336087Y0067822D01*
X0336123Y0067773D01*
X0336156Y0067722D01*
X0336185Y0067670D01*
X0336212Y0067615D01*
X0336235Y0067560D01*
X0336255Y0067503D01*
X0336271Y0067444D01*
X0336284Y0067385D01*
X0336293Y0067326D01*
X0336298Y0067265D01*
X0336300Y0067205D01*
X0336300Y0065705D01*
X0335800Y0065205D01*
X0335800Y0046205D01*
X0336300Y0045705D01*
X0336300Y0044205D01*
X0336298Y0044145D01*
X0336293Y0044084D01*
X0336284Y0044025D01*
X0336271Y0043966D01*
X0336255Y0043907D01*
X0336235Y0043850D01*
X0336212Y0043795D01*
X0336185Y0043740D01*
X0336156Y0043688D01*
X0336123Y0043637D01*
X0336087Y0043588D01*
X0336049Y0043542D01*
X0336007Y0043498D01*
X0335963Y0043456D01*
X0335917Y0043418D01*
X0335868Y0043382D01*
X0335817Y0043349D01*
X0335765Y0043320D01*
X0335710Y0043293D01*
X0335655Y0043270D01*
X0335598Y0043250D01*
X0335539Y0043234D01*
X0335480Y0043221D01*
X0335421Y0043212D01*
X0335360Y0043207D01*
X0335300Y0043205D01*
X0328300Y0043205D01*
X0328240Y0043207D01*
X0328179Y0043212D01*
X0328120Y0043221D01*
X0328061Y0043234D01*
X0328002Y0043250D01*
X0327945Y0043270D01*
X0327890Y0043293D01*
X0327835Y0043320D01*
X0327783Y0043349D01*
X0327732Y0043382D01*
X0327683Y0043418D01*
X0327637Y0043456D01*
X0327593Y0043498D01*
X0327551Y0043542D01*
X0327513Y0043588D01*
X0327477Y0043637D01*
X0327444Y0043688D01*
X0327415Y0043740D01*
X0327388Y0043795D01*
X0327365Y0043850D01*
X0327345Y0043907D01*
X0327329Y0043966D01*
X0327316Y0044025D01*
X0327307Y0044084D01*
X0327302Y0044145D01*
X0327300Y0044205D01*
X0308300Y0086205D02*
X0306800Y0086205D01*
X0306300Y0086705D01*
X0287300Y0086705D01*
X0286800Y0086205D01*
X0285300Y0086205D01*
X0285240Y0086207D01*
X0285179Y0086212D01*
X0285120Y0086221D01*
X0285061Y0086234D01*
X0285002Y0086250D01*
X0284945Y0086270D01*
X0284890Y0086293D01*
X0284835Y0086320D01*
X0284783Y0086349D01*
X0284732Y0086382D01*
X0284683Y0086418D01*
X0284637Y0086456D01*
X0284593Y0086498D01*
X0284551Y0086542D01*
X0284513Y0086588D01*
X0284477Y0086637D01*
X0284444Y0086688D01*
X0284415Y0086740D01*
X0284388Y0086795D01*
X0284365Y0086850D01*
X0284345Y0086907D01*
X0284329Y0086966D01*
X0284316Y0087025D01*
X0284307Y0087084D01*
X0284302Y0087145D01*
X0284300Y0087205D01*
X0284300Y0094205D01*
X0284302Y0094265D01*
X0284307Y0094326D01*
X0284316Y0094385D01*
X0284329Y0094444D01*
X0284345Y0094503D01*
X0284365Y0094560D01*
X0284388Y0094615D01*
X0284415Y0094670D01*
X0284444Y0094722D01*
X0284477Y0094773D01*
X0284513Y0094822D01*
X0284551Y0094868D01*
X0284593Y0094912D01*
X0284637Y0094954D01*
X0284683Y0094992D01*
X0284732Y0095028D01*
X0284783Y0095061D01*
X0284835Y0095090D01*
X0284890Y0095117D01*
X0284945Y0095140D01*
X0285002Y0095160D01*
X0285061Y0095176D01*
X0285120Y0095189D01*
X0285179Y0095198D01*
X0285240Y0095203D01*
X0285300Y0095205D01*
X0286800Y0095205D01*
X0287300Y0094705D01*
X0306300Y0094705D01*
X0306800Y0095205D01*
X0308300Y0095205D01*
X0308360Y0095203D01*
X0308421Y0095198D01*
X0308480Y0095189D01*
X0308539Y0095176D01*
X0308598Y0095160D01*
X0308655Y0095140D01*
X0308710Y0095117D01*
X0308765Y0095090D01*
X0308817Y0095061D01*
X0308868Y0095028D01*
X0308917Y0094992D01*
X0308963Y0094954D01*
X0309007Y0094912D01*
X0309049Y0094868D01*
X0309087Y0094822D01*
X0309123Y0094773D01*
X0309156Y0094722D01*
X0309185Y0094670D01*
X0309212Y0094615D01*
X0309235Y0094560D01*
X0309255Y0094503D01*
X0309271Y0094444D01*
X0309284Y0094385D01*
X0309293Y0094326D01*
X0309298Y0094265D01*
X0309300Y0094205D01*
X0309300Y0087205D01*
X0309298Y0087145D01*
X0309293Y0087084D01*
X0309284Y0087025D01*
X0309271Y0086966D01*
X0309255Y0086907D01*
X0309235Y0086850D01*
X0309212Y0086795D01*
X0309185Y0086740D01*
X0309156Y0086688D01*
X0309123Y0086637D01*
X0309087Y0086588D01*
X0309049Y0086542D01*
X0309007Y0086498D01*
X0308963Y0086456D01*
X0308917Y0086418D01*
X0308868Y0086382D01*
X0308817Y0086349D01*
X0308765Y0086320D01*
X0308710Y0086293D01*
X0308655Y0086270D01*
X0308598Y0086250D01*
X0308539Y0086234D01*
X0308480Y0086221D01*
X0308421Y0086212D01*
X0308360Y0086207D01*
X0308300Y0086205D01*
X0261300Y0091705D02*
X0261300Y0093205D01*
X0260800Y0093705D01*
X0260800Y0112705D01*
X0261300Y0113205D01*
X0261300Y0114705D01*
X0261298Y0114765D01*
X0261293Y0114826D01*
X0261284Y0114885D01*
X0261271Y0114944D01*
X0261255Y0115003D01*
X0261235Y0115060D01*
X0261212Y0115115D01*
X0261185Y0115170D01*
X0261156Y0115222D01*
X0261123Y0115273D01*
X0261087Y0115322D01*
X0261049Y0115368D01*
X0261007Y0115412D01*
X0260963Y0115454D01*
X0260917Y0115492D01*
X0260868Y0115528D01*
X0260817Y0115561D01*
X0260765Y0115590D01*
X0260710Y0115617D01*
X0260655Y0115640D01*
X0260598Y0115660D01*
X0260539Y0115676D01*
X0260480Y0115689D01*
X0260421Y0115698D01*
X0260360Y0115703D01*
X0260300Y0115705D01*
X0253300Y0115705D01*
X0253240Y0115703D01*
X0253179Y0115698D01*
X0253120Y0115689D01*
X0253061Y0115676D01*
X0253002Y0115660D01*
X0252945Y0115640D01*
X0252890Y0115617D01*
X0252835Y0115590D01*
X0252783Y0115561D01*
X0252732Y0115528D01*
X0252683Y0115492D01*
X0252637Y0115454D01*
X0252593Y0115412D01*
X0252551Y0115368D01*
X0252513Y0115322D01*
X0252477Y0115273D01*
X0252444Y0115222D01*
X0252415Y0115170D01*
X0252388Y0115115D01*
X0252365Y0115060D01*
X0252345Y0115003D01*
X0252329Y0114944D01*
X0252316Y0114885D01*
X0252307Y0114826D01*
X0252302Y0114765D01*
X0252300Y0114705D01*
X0252300Y0113205D01*
X0252800Y0112705D01*
X0252800Y0093705D01*
X0252300Y0093205D01*
X0252300Y0091705D01*
X0252302Y0091645D01*
X0252307Y0091584D01*
X0252316Y0091525D01*
X0252329Y0091466D01*
X0252345Y0091407D01*
X0252365Y0091350D01*
X0252388Y0091295D01*
X0252415Y0091240D01*
X0252444Y0091188D01*
X0252477Y0091137D01*
X0252513Y0091088D01*
X0252551Y0091042D01*
X0252593Y0090998D01*
X0252637Y0090956D01*
X0252683Y0090918D01*
X0252732Y0090882D01*
X0252783Y0090849D01*
X0252835Y0090820D01*
X0252890Y0090793D01*
X0252945Y0090770D01*
X0253002Y0090750D01*
X0253061Y0090734D01*
X0253120Y0090721D01*
X0253179Y0090712D01*
X0253240Y0090707D01*
X0253300Y0090705D01*
X0260300Y0090705D01*
X0260360Y0090707D01*
X0260421Y0090712D01*
X0260480Y0090721D01*
X0260539Y0090734D01*
X0260598Y0090750D01*
X0260655Y0090770D01*
X0260710Y0090793D01*
X0260765Y0090820D01*
X0260817Y0090849D01*
X0260868Y0090882D01*
X0260917Y0090918D01*
X0260963Y0090956D01*
X0261007Y0090998D01*
X0261049Y0091042D01*
X0261087Y0091088D01*
X0261123Y0091137D01*
X0261156Y0091188D01*
X0261185Y0091240D01*
X0261212Y0091295D01*
X0261235Y0091350D01*
X0261255Y0091407D01*
X0261271Y0091466D01*
X0261284Y0091525D01*
X0261293Y0091584D01*
X0261298Y0091645D01*
X0261300Y0091705D01*
X0203300Y0115705D02*
X0180300Y0115705D01*
X0180300Y0185705D01*
X0187800Y0185705D01*
X0187802Y0185579D01*
X0187808Y0185454D01*
X0187818Y0185329D01*
X0187832Y0185204D01*
X0187849Y0185079D01*
X0187871Y0184955D01*
X0187896Y0184832D01*
X0187926Y0184710D01*
X0187959Y0184589D01*
X0187996Y0184469D01*
X0188036Y0184350D01*
X0188081Y0184233D01*
X0188129Y0184116D01*
X0188181Y0184002D01*
X0188236Y0183889D01*
X0188295Y0183778D01*
X0188357Y0183669D01*
X0188423Y0183562D01*
X0188492Y0183457D01*
X0188564Y0183354D01*
X0188639Y0183253D01*
X0188718Y0183155D01*
X0188800Y0183060D01*
X0188884Y0182967D01*
X0188972Y0182877D01*
X0189062Y0182789D01*
X0189155Y0182705D01*
X0189250Y0182623D01*
X0189348Y0182544D01*
X0189449Y0182469D01*
X0189552Y0182397D01*
X0189657Y0182328D01*
X0189764Y0182262D01*
X0189873Y0182200D01*
X0189984Y0182141D01*
X0190097Y0182086D01*
X0190211Y0182034D01*
X0190328Y0181986D01*
X0190445Y0181941D01*
X0190564Y0181901D01*
X0190684Y0181864D01*
X0190805Y0181831D01*
X0190927Y0181801D01*
X0191050Y0181776D01*
X0191174Y0181754D01*
X0191299Y0181737D01*
X0191424Y0181723D01*
X0191549Y0181713D01*
X0191674Y0181707D01*
X0191800Y0181705D01*
X0191926Y0181707D01*
X0192051Y0181713D01*
X0192176Y0181723D01*
X0192301Y0181737D01*
X0192426Y0181754D01*
X0192550Y0181776D01*
X0192673Y0181801D01*
X0192795Y0181831D01*
X0192916Y0181864D01*
X0193036Y0181901D01*
X0193155Y0181941D01*
X0193272Y0181986D01*
X0193389Y0182034D01*
X0193503Y0182086D01*
X0193616Y0182141D01*
X0193727Y0182200D01*
X0193836Y0182262D01*
X0193943Y0182328D01*
X0194048Y0182397D01*
X0194151Y0182469D01*
X0194252Y0182544D01*
X0194350Y0182623D01*
X0194445Y0182705D01*
X0194538Y0182789D01*
X0194628Y0182877D01*
X0194716Y0182967D01*
X0194800Y0183060D01*
X0194882Y0183155D01*
X0194961Y0183253D01*
X0195036Y0183354D01*
X0195108Y0183457D01*
X0195177Y0183562D01*
X0195243Y0183669D01*
X0195305Y0183778D01*
X0195364Y0183889D01*
X0195419Y0184002D01*
X0195471Y0184116D01*
X0195519Y0184233D01*
X0195564Y0184350D01*
X0195604Y0184469D01*
X0195641Y0184589D01*
X0195674Y0184710D01*
X0195704Y0184832D01*
X0195729Y0184955D01*
X0195751Y0185079D01*
X0195768Y0185204D01*
X0195782Y0185329D01*
X0195792Y0185454D01*
X0195798Y0185579D01*
X0195800Y0185705D01*
X0203300Y0185705D01*
X0203300Y0115705D01*
X0198292Y0090547D02*
X0198294Y0090679D01*
X0198300Y0090810D01*
X0198310Y0090941D01*
X0198324Y0091072D01*
X0198342Y0091202D01*
X0198364Y0091332D01*
X0198389Y0091461D01*
X0198419Y0091589D01*
X0198453Y0091717D01*
X0198490Y0091843D01*
X0198531Y0091968D01*
X0198576Y0092091D01*
X0198625Y0092214D01*
X0198678Y0092334D01*
X0198734Y0092453D01*
X0198793Y0092571D01*
X0198856Y0092686D01*
X0198923Y0092799D01*
X0198993Y0092911D01*
X0199067Y0093020D01*
X0199143Y0093127D01*
X0199223Y0093231D01*
X0199306Y0093333D01*
X0199392Y0093433D01*
X0199481Y0093530D01*
X0199573Y0093624D01*
X0199668Y0093715D01*
X0199766Y0093804D01*
X0199866Y0093889D01*
X0199968Y0093971D01*
X0200074Y0094050D01*
X0200181Y0094126D01*
X0200291Y0094199D01*
X0200403Y0094268D01*
X0200517Y0094334D01*
X0200633Y0094396D01*
X0200750Y0094455D01*
X0200870Y0094510D01*
X0200991Y0094561D01*
X0201113Y0094609D01*
X0201237Y0094653D01*
X0201363Y0094694D01*
X0201489Y0094730D01*
X0201617Y0094763D01*
X0201745Y0094791D01*
X0201874Y0094816D01*
X0202004Y0094837D01*
X0202135Y0094854D01*
X0202266Y0094867D01*
X0202397Y0094876D01*
X0202528Y0094881D01*
X0202660Y0094882D01*
X0202791Y0094879D01*
X0202923Y0094872D01*
X0203054Y0094861D01*
X0203185Y0094846D01*
X0203315Y0094827D01*
X0203444Y0094804D01*
X0203573Y0094777D01*
X0203701Y0094747D01*
X0203828Y0094712D01*
X0203954Y0094674D01*
X0204079Y0094632D01*
X0204202Y0094586D01*
X0204324Y0094536D01*
X0204444Y0094483D01*
X0204563Y0094426D01*
X0204680Y0094365D01*
X0204794Y0094301D01*
X0204907Y0094234D01*
X0205018Y0094163D01*
X0205127Y0094089D01*
X0205233Y0094011D01*
X0205337Y0093930D01*
X0205439Y0093847D01*
X0205537Y0093760D01*
X0205634Y0093670D01*
X0205727Y0093577D01*
X0205818Y0093482D01*
X0205905Y0093384D01*
X0205990Y0093283D01*
X0206071Y0093179D01*
X0206149Y0093074D01*
X0206225Y0092966D01*
X0206296Y0092855D01*
X0206365Y0092743D01*
X0206430Y0092628D01*
X0206491Y0092512D01*
X0206549Y0092394D01*
X0206603Y0092274D01*
X0206654Y0092153D01*
X0206701Y0092030D01*
X0206744Y0091905D01*
X0206783Y0091780D01*
X0206819Y0091653D01*
X0206850Y0091525D01*
X0206878Y0091397D01*
X0206902Y0091267D01*
X0206922Y0091137D01*
X0206938Y0091007D01*
X0206950Y0090876D01*
X0206958Y0090744D01*
X0206962Y0090613D01*
X0206962Y0090481D01*
X0206958Y0090350D01*
X0206950Y0090218D01*
X0206938Y0090087D01*
X0206922Y0089957D01*
X0206902Y0089827D01*
X0206878Y0089697D01*
X0206850Y0089569D01*
X0206819Y0089441D01*
X0206783Y0089314D01*
X0206744Y0089189D01*
X0206701Y0089064D01*
X0206654Y0088941D01*
X0206603Y0088820D01*
X0206549Y0088700D01*
X0206491Y0088582D01*
X0206430Y0088466D01*
X0206365Y0088351D01*
X0206296Y0088239D01*
X0206225Y0088128D01*
X0206149Y0088020D01*
X0206071Y0087915D01*
X0205990Y0087811D01*
X0205905Y0087710D01*
X0205818Y0087612D01*
X0205727Y0087517D01*
X0205634Y0087424D01*
X0205537Y0087334D01*
X0205439Y0087247D01*
X0205337Y0087164D01*
X0205233Y0087083D01*
X0205127Y0087005D01*
X0205018Y0086931D01*
X0204907Y0086860D01*
X0204795Y0086793D01*
X0204680Y0086729D01*
X0204563Y0086668D01*
X0204444Y0086611D01*
X0204324Y0086558D01*
X0204202Y0086508D01*
X0204079Y0086462D01*
X0203954Y0086420D01*
X0203828Y0086382D01*
X0203701Y0086347D01*
X0203573Y0086317D01*
X0203444Y0086290D01*
X0203315Y0086267D01*
X0203185Y0086248D01*
X0203054Y0086233D01*
X0202923Y0086222D01*
X0202791Y0086215D01*
X0202660Y0086212D01*
X0202528Y0086213D01*
X0202397Y0086218D01*
X0202266Y0086227D01*
X0202135Y0086240D01*
X0202004Y0086257D01*
X0201874Y0086278D01*
X0201745Y0086303D01*
X0201617Y0086331D01*
X0201489Y0086364D01*
X0201363Y0086400D01*
X0201237Y0086441D01*
X0201113Y0086485D01*
X0200991Y0086533D01*
X0200870Y0086584D01*
X0200750Y0086639D01*
X0200633Y0086698D01*
X0200517Y0086760D01*
X0200403Y0086826D01*
X0200291Y0086895D01*
X0200181Y0086968D01*
X0200074Y0087044D01*
X0199968Y0087123D01*
X0199866Y0087205D01*
X0199766Y0087290D01*
X0199668Y0087379D01*
X0199573Y0087470D01*
X0199481Y0087564D01*
X0199392Y0087661D01*
X0199306Y0087761D01*
X0199223Y0087863D01*
X0199143Y0087967D01*
X0199067Y0088074D01*
X0198993Y0088183D01*
X0198923Y0088295D01*
X0198856Y0088408D01*
X0198793Y0088523D01*
X0198734Y0088641D01*
X0198678Y0088760D01*
X0198625Y0088880D01*
X0198576Y0089003D01*
X0198531Y0089126D01*
X0198490Y0089251D01*
X0198453Y0089377D01*
X0198419Y0089505D01*
X0198389Y0089633D01*
X0198364Y0089762D01*
X0198342Y0089892D01*
X0198324Y0090022D01*
X0198310Y0090153D01*
X0198300Y0090284D01*
X0198294Y0090415D01*
X0198292Y0090547D01*
X0160300Y0163205D02*
X0153300Y0163205D01*
X0153240Y0163207D01*
X0153179Y0163212D01*
X0153120Y0163221D01*
X0153061Y0163234D01*
X0153002Y0163250D01*
X0152945Y0163270D01*
X0152890Y0163293D01*
X0152835Y0163320D01*
X0152783Y0163349D01*
X0152732Y0163382D01*
X0152683Y0163418D01*
X0152637Y0163456D01*
X0152593Y0163498D01*
X0152551Y0163542D01*
X0152513Y0163588D01*
X0152477Y0163637D01*
X0152444Y0163688D01*
X0152415Y0163740D01*
X0152388Y0163795D01*
X0152365Y0163850D01*
X0152345Y0163907D01*
X0152329Y0163966D01*
X0152316Y0164025D01*
X0152307Y0164084D01*
X0152302Y0164145D01*
X0152300Y0164205D01*
X0152300Y0165705D01*
X0152800Y0166205D01*
X0152800Y0185205D01*
X0152300Y0185705D01*
X0152300Y0187205D01*
X0152302Y0187265D01*
X0152307Y0187326D01*
X0152316Y0187385D01*
X0152329Y0187444D01*
X0152345Y0187503D01*
X0152365Y0187560D01*
X0152388Y0187615D01*
X0152415Y0187670D01*
X0152444Y0187722D01*
X0152477Y0187773D01*
X0152513Y0187822D01*
X0152551Y0187868D01*
X0152593Y0187912D01*
X0152637Y0187954D01*
X0152683Y0187992D01*
X0152732Y0188028D01*
X0152783Y0188061D01*
X0152835Y0188090D01*
X0152890Y0188117D01*
X0152945Y0188140D01*
X0153002Y0188160D01*
X0153061Y0188176D01*
X0153120Y0188189D01*
X0153179Y0188198D01*
X0153240Y0188203D01*
X0153300Y0188205D01*
X0160300Y0188205D01*
X0160360Y0188203D01*
X0160421Y0188198D01*
X0160480Y0188189D01*
X0160539Y0188176D01*
X0160598Y0188160D01*
X0160655Y0188140D01*
X0160710Y0188117D01*
X0160765Y0188090D01*
X0160817Y0188061D01*
X0160868Y0188028D01*
X0160917Y0187992D01*
X0160963Y0187954D01*
X0161007Y0187912D01*
X0161049Y0187868D01*
X0161087Y0187822D01*
X0161123Y0187773D01*
X0161156Y0187722D01*
X0161185Y0187670D01*
X0161212Y0187615D01*
X0161235Y0187560D01*
X0161255Y0187503D01*
X0161271Y0187444D01*
X0161284Y0187385D01*
X0161293Y0187326D01*
X0161298Y0187265D01*
X0161300Y0187205D01*
X0161300Y0185705D01*
X0160800Y0185205D01*
X0160800Y0166205D01*
X0161300Y0165705D01*
X0161300Y0164205D01*
X0161298Y0164145D01*
X0161293Y0164084D01*
X0161284Y0164025D01*
X0161271Y0163966D01*
X0161255Y0163907D01*
X0161235Y0163850D01*
X0161212Y0163795D01*
X0161185Y0163740D01*
X0161156Y0163688D01*
X0161123Y0163637D01*
X0161087Y0163588D01*
X0161049Y0163542D01*
X0161007Y0163498D01*
X0160963Y0163456D01*
X0160917Y0163418D01*
X0160868Y0163382D01*
X0160817Y0163349D01*
X0160765Y0163320D01*
X0160710Y0163293D01*
X0160655Y0163270D01*
X0160598Y0163250D01*
X0160539Y0163234D01*
X0160480Y0163221D01*
X0160421Y0163212D01*
X0160360Y0163207D01*
X0160300Y0163205D01*
X0232100Y0192072D02*
X0233168Y0191005D01*
X0235303Y0191005D01*
X0236370Y0192072D01*
X0236370Y0193140D01*
X0235303Y0194207D01*
X0232100Y0194207D01*
X0232100Y0192072D01*
X0232100Y0194207D02*
X0234235Y0196343D01*
X0236370Y0197410D01*
X0241768Y0196343D02*
X0242836Y0197410D01*
X0244971Y0197410D01*
X0246039Y0196343D01*
X0246039Y0195275D01*
X0244971Y0194207D01*
X0246039Y0193140D01*
X0246039Y0192072D01*
X0244971Y0191005D01*
X0242836Y0191005D01*
X0241768Y0192072D01*
X0239613Y0192072D02*
X0239613Y0191005D01*
X0238545Y0191005D01*
X0238545Y0192072D01*
X0239613Y0192072D01*
X0243903Y0194207D02*
X0244971Y0194207D01*
X0248214Y0192072D02*
X0252484Y0196343D01*
X0252484Y0192072D01*
X0251416Y0191005D01*
X0249281Y0191005D01*
X0248214Y0192072D01*
X0248214Y0196343D01*
X0249281Y0197410D01*
X0251416Y0197410D01*
X0252484Y0196343D01*
X0254659Y0195275D02*
X0256794Y0197410D01*
X0256794Y0191005D01*
X0254659Y0191005D02*
X0258930Y0191005D01*
X0267550Y0191005D02*
X0267550Y0197410D01*
X0269685Y0195275D01*
X0271821Y0197410D01*
X0271821Y0191005D01*
X0273996Y0192072D02*
X0275063Y0191005D01*
X0277198Y0191005D01*
X0278266Y0192072D01*
X0278266Y0194207D01*
X0277198Y0195275D01*
X0275063Y0195275D01*
X0273996Y0194207D01*
X0273996Y0192072D01*
X0280441Y0191005D02*
X0280441Y0197410D01*
X0281509Y0195275D02*
X0280441Y0194207D01*
X0281509Y0195275D02*
X0283644Y0195275D01*
X0284712Y0194207D01*
X0284712Y0191005D01*
X0286887Y0192072D02*
X0287954Y0191005D01*
X0291157Y0191005D01*
X0291157Y0194207D01*
X0290089Y0195275D01*
X0287954Y0195275D01*
X0287954Y0193140D02*
X0291157Y0193140D01*
X0293332Y0191005D02*
X0293332Y0195275D01*
X0294400Y0195275D01*
X0295467Y0194207D01*
X0296535Y0195275D01*
X0297603Y0194207D01*
X0297603Y0191005D01*
X0295467Y0191005D02*
X0295467Y0194207D01*
X0299778Y0195275D02*
X0299778Y0191005D01*
X0301913Y0191005D02*
X0301913Y0194207D01*
X0302980Y0195275D01*
X0304048Y0194207D01*
X0304048Y0191005D01*
X0306223Y0192072D02*
X0306223Y0194207D01*
X0307291Y0195275D01*
X0309426Y0195275D01*
X0310494Y0194207D01*
X0310494Y0193140D01*
X0306223Y0193140D01*
X0306223Y0192072D02*
X0307291Y0191005D01*
X0309426Y0191005D01*
X0312669Y0192072D02*
X0312669Y0194207D01*
X0313736Y0195275D01*
X0316939Y0195275D01*
X0316939Y0197410D02*
X0316939Y0191005D01*
X0313736Y0191005D01*
X0312669Y0192072D01*
X0319114Y0195275D02*
X0320182Y0196343D01*
X0320182Y0198478D01*
X0323405Y0195275D02*
X0326607Y0195275D01*
X0325540Y0193140D02*
X0323405Y0193140D01*
X0322337Y0194207D01*
X0323405Y0195275D01*
X0325540Y0193140D02*
X0326607Y0192072D01*
X0325540Y0191005D01*
X0322337Y0191005D01*
X0335228Y0191005D02*
X0335228Y0197410D01*
X0338431Y0197410D01*
X0339498Y0196343D01*
X0339498Y0195275D01*
X0338431Y0194207D01*
X0335228Y0194207D01*
X0338431Y0194207D02*
X0339498Y0193140D01*
X0339498Y0192072D01*
X0338431Y0191005D01*
X0335228Y0191005D01*
X0341673Y0192072D02*
X0341673Y0194207D01*
X0342741Y0195275D01*
X0344876Y0195275D01*
X0345944Y0194207D01*
X0345944Y0192072D01*
X0344876Y0191005D01*
X0342741Y0191005D01*
X0341673Y0192072D01*
X0348119Y0192072D02*
X0349187Y0191005D01*
X0352389Y0191005D01*
X0352389Y0194207D01*
X0351322Y0195275D01*
X0349187Y0195275D01*
X0349187Y0193140D02*
X0352389Y0193140D01*
X0354564Y0193140D02*
X0356700Y0195275D01*
X0357767Y0195275D01*
X0359936Y0194207D02*
X0359936Y0192072D01*
X0361003Y0191005D01*
X0364206Y0191005D01*
X0364206Y0197410D01*
X0364206Y0195275D02*
X0361003Y0195275D01*
X0359936Y0194207D01*
X0354564Y0195275D02*
X0354564Y0191005D01*
X0349187Y0193140D02*
X0348119Y0192072D01*
X0301913Y0194207D02*
X0300845Y0195275D01*
X0299778Y0195275D01*
X0287954Y0193140D02*
X0286887Y0192072D01*
X0287100Y0182410D02*
X0289235Y0180275D01*
X0291370Y0182410D01*
X0291370Y0176005D01*
X0293545Y0176005D02*
X0295681Y0176005D01*
X0294613Y0176005D02*
X0294613Y0182410D01*
X0293545Y0182410D02*
X0295681Y0182410D01*
X0297842Y0182410D02*
X0302113Y0182410D01*
X0299978Y0182410D02*
X0299978Y0176005D01*
X0287100Y0176005D02*
X0287100Y0182410D01*
D11*
X0190726Y0187455D02*
X0187723Y0187455D01*
X0190726Y0190457D01*
X0190726Y0191208D01*
X0189975Y0191959D01*
X0188474Y0191959D01*
X0187723Y0191208D01*
X0186122Y0191208D02*
X0185371Y0191959D01*
X0183870Y0191959D01*
X0183119Y0191208D01*
X0183119Y0188205D01*
X0183870Y0187455D01*
X0185371Y0187455D01*
X0186122Y0188205D01*
X0181551Y0187455D02*
X0180050Y0187455D01*
X0180801Y0187455D02*
X0180801Y0191959D01*
X0181551Y0191959D02*
X0180050Y0191959D01*
X0167550Y0186353D02*
X0167550Y0183351D01*
X0164547Y0186353D01*
X0163797Y0186353D01*
X0163046Y0185603D01*
X0163046Y0184101D01*
X0163797Y0183351D01*
X0163797Y0181749D02*
X0165298Y0181749D01*
X0166049Y0180999D01*
X0166049Y0178747D01*
X0167550Y0178747D02*
X0163046Y0178747D01*
X0163046Y0180999D01*
X0163797Y0181749D01*
X0166049Y0180248D02*
X0167550Y0181749D01*
X0146800Y0185705D02*
X0121800Y0185705D01*
X0121800Y0165705D01*
X0101800Y0165705D01*
X0101800Y0190705D01*
X0121800Y0190705D01*
X0121800Y0185705D01*
X0081800Y0185705D01*
X0076800Y0185705D01*
X0076800Y0180705D01*
X0076800Y0020705D01*
X0076800Y0015705D01*
X0081800Y0015705D01*
X0096800Y0015705D01*
X0096800Y0035705D01*
X0126800Y0035705D01*
X0126800Y0015705D01*
X0096800Y0015705D01*
X0098650Y0020705D02*
X0098652Y0020817D01*
X0098658Y0020928D01*
X0098668Y0021040D01*
X0098682Y0021151D01*
X0098699Y0021261D01*
X0098721Y0021371D01*
X0098747Y0021480D01*
X0098776Y0021588D01*
X0098809Y0021694D01*
X0098846Y0021800D01*
X0098887Y0021904D01*
X0098932Y0022007D01*
X0098980Y0022108D01*
X0099031Y0022207D01*
X0099086Y0022304D01*
X0099145Y0022399D01*
X0099206Y0022493D01*
X0099271Y0022584D01*
X0099340Y0022672D01*
X0099411Y0022758D01*
X0099485Y0022842D01*
X0099563Y0022922D01*
X0099643Y0023000D01*
X0099726Y0023076D01*
X0099811Y0023148D01*
X0099899Y0023217D01*
X0099989Y0023283D01*
X0100082Y0023345D01*
X0100177Y0023405D01*
X0100274Y0023461D01*
X0100372Y0023513D01*
X0100473Y0023562D01*
X0100575Y0023607D01*
X0100679Y0023649D01*
X0100784Y0023687D01*
X0100891Y0023721D01*
X0100998Y0023751D01*
X0101107Y0023778D01*
X0101216Y0023800D01*
X0101327Y0023819D01*
X0101437Y0023834D01*
X0101549Y0023845D01*
X0101660Y0023852D01*
X0101772Y0023855D01*
X0101884Y0023854D01*
X0101996Y0023849D01*
X0102107Y0023840D01*
X0102218Y0023827D01*
X0102329Y0023810D01*
X0102439Y0023790D01*
X0102548Y0023765D01*
X0102656Y0023737D01*
X0102763Y0023704D01*
X0102869Y0023668D01*
X0102973Y0023628D01*
X0103076Y0023585D01*
X0103178Y0023538D01*
X0103277Y0023487D01*
X0103375Y0023433D01*
X0103471Y0023375D01*
X0103565Y0023314D01*
X0103656Y0023250D01*
X0103745Y0023183D01*
X0103832Y0023112D01*
X0103916Y0023038D01*
X0103998Y0022962D01*
X0104076Y0022882D01*
X0104152Y0022800D01*
X0104225Y0022715D01*
X0104295Y0022628D01*
X0104361Y0022538D01*
X0104425Y0022446D01*
X0104485Y0022352D01*
X0104542Y0022256D01*
X0104595Y0022157D01*
X0104645Y0022057D01*
X0104691Y0021956D01*
X0104734Y0021852D01*
X0104773Y0021747D01*
X0104808Y0021641D01*
X0104839Y0021534D01*
X0104867Y0021425D01*
X0104890Y0021316D01*
X0104910Y0021206D01*
X0104926Y0021095D01*
X0104938Y0020984D01*
X0104946Y0020873D01*
X0104950Y0020761D01*
X0104950Y0020649D01*
X0104946Y0020537D01*
X0104938Y0020426D01*
X0104926Y0020315D01*
X0104910Y0020204D01*
X0104890Y0020094D01*
X0104867Y0019985D01*
X0104839Y0019876D01*
X0104808Y0019769D01*
X0104773Y0019663D01*
X0104734Y0019558D01*
X0104691Y0019454D01*
X0104645Y0019353D01*
X0104595Y0019253D01*
X0104542Y0019154D01*
X0104485Y0019058D01*
X0104425Y0018964D01*
X0104361Y0018872D01*
X0104295Y0018782D01*
X0104225Y0018695D01*
X0104152Y0018610D01*
X0104076Y0018528D01*
X0103998Y0018448D01*
X0103916Y0018372D01*
X0103832Y0018298D01*
X0103745Y0018227D01*
X0103656Y0018160D01*
X0103565Y0018096D01*
X0103471Y0018035D01*
X0103375Y0017977D01*
X0103277Y0017923D01*
X0103178Y0017872D01*
X0103076Y0017825D01*
X0102973Y0017782D01*
X0102869Y0017742D01*
X0102763Y0017706D01*
X0102656Y0017673D01*
X0102548Y0017645D01*
X0102439Y0017620D01*
X0102329Y0017600D01*
X0102218Y0017583D01*
X0102107Y0017570D01*
X0101996Y0017561D01*
X0101884Y0017556D01*
X0101772Y0017555D01*
X0101660Y0017558D01*
X0101549Y0017565D01*
X0101437Y0017576D01*
X0101327Y0017591D01*
X0101216Y0017610D01*
X0101107Y0017632D01*
X0100998Y0017659D01*
X0100891Y0017689D01*
X0100784Y0017723D01*
X0100679Y0017761D01*
X0100575Y0017803D01*
X0100473Y0017848D01*
X0100372Y0017897D01*
X0100274Y0017949D01*
X0100177Y0018005D01*
X0100082Y0018065D01*
X0099989Y0018127D01*
X0099899Y0018193D01*
X0099811Y0018262D01*
X0099726Y0018334D01*
X0099643Y0018410D01*
X0099563Y0018488D01*
X0099485Y0018568D01*
X0099411Y0018652D01*
X0099340Y0018738D01*
X0099271Y0018826D01*
X0099206Y0018917D01*
X0099145Y0019011D01*
X0099086Y0019106D01*
X0099031Y0019203D01*
X0098980Y0019302D01*
X0098932Y0019403D01*
X0098887Y0019506D01*
X0098846Y0019610D01*
X0098809Y0019716D01*
X0098776Y0019822D01*
X0098747Y0019930D01*
X0098721Y0020039D01*
X0098699Y0020149D01*
X0098682Y0020259D01*
X0098668Y0020370D01*
X0098658Y0020482D01*
X0098652Y0020593D01*
X0098650Y0020705D01*
X0108650Y0020705D02*
X0108652Y0020817D01*
X0108658Y0020928D01*
X0108668Y0021040D01*
X0108682Y0021151D01*
X0108699Y0021261D01*
X0108721Y0021371D01*
X0108747Y0021480D01*
X0108776Y0021588D01*
X0108809Y0021694D01*
X0108846Y0021800D01*
X0108887Y0021904D01*
X0108932Y0022007D01*
X0108980Y0022108D01*
X0109031Y0022207D01*
X0109086Y0022304D01*
X0109145Y0022399D01*
X0109206Y0022493D01*
X0109271Y0022584D01*
X0109340Y0022672D01*
X0109411Y0022758D01*
X0109485Y0022842D01*
X0109563Y0022922D01*
X0109643Y0023000D01*
X0109726Y0023076D01*
X0109811Y0023148D01*
X0109899Y0023217D01*
X0109989Y0023283D01*
X0110082Y0023345D01*
X0110177Y0023405D01*
X0110274Y0023461D01*
X0110372Y0023513D01*
X0110473Y0023562D01*
X0110575Y0023607D01*
X0110679Y0023649D01*
X0110784Y0023687D01*
X0110891Y0023721D01*
X0110998Y0023751D01*
X0111107Y0023778D01*
X0111216Y0023800D01*
X0111327Y0023819D01*
X0111437Y0023834D01*
X0111549Y0023845D01*
X0111660Y0023852D01*
X0111772Y0023855D01*
X0111884Y0023854D01*
X0111996Y0023849D01*
X0112107Y0023840D01*
X0112218Y0023827D01*
X0112329Y0023810D01*
X0112439Y0023790D01*
X0112548Y0023765D01*
X0112656Y0023737D01*
X0112763Y0023704D01*
X0112869Y0023668D01*
X0112973Y0023628D01*
X0113076Y0023585D01*
X0113178Y0023538D01*
X0113277Y0023487D01*
X0113375Y0023433D01*
X0113471Y0023375D01*
X0113565Y0023314D01*
X0113656Y0023250D01*
X0113745Y0023183D01*
X0113832Y0023112D01*
X0113916Y0023038D01*
X0113998Y0022962D01*
X0114076Y0022882D01*
X0114152Y0022800D01*
X0114225Y0022715D01*
X0114295Y0022628D01*
X0114361Y0022538D01*
X0114425Y0022446D01*
X0114485Y0022352D01*
X0114542Y0022256D01*
X0114595Y0022157D01*
X0114645Y0022057D01*
X0114691Y0021956D01*
X0114734Y0021852D01*
X0114773Y0021747D01*
X0114808Y0021641D01*
X0114839Y0021534D01*
X0114867Y0021425D01*
X0114890Y0021316D01*
X0114910Y0021206D01*
X0114926Y0021095D01*
X0114938Y0020984D01*
X0114946Y0020873D01*
X0114950Y0020761D01*
X0114950Y0020649D01*
X0114946Y0020537D01*
X0114938Y0020426D01*
X0114926Y0020315D01*
X0114910Y0020204D01*
X0114890Y0020094D01*
X0114867Y0019985D01*
X0114839Y0019876D01*
X0114808Y0019769D01*
X0114773Y0019663D01*
X0114734Y0019558D01*
X0114691Y0019454D01*
X0114645Y0019353D01*
X0114595Y0019253D01*
X0114542Y0019154D01*
X0114485Y0019058D01*
X0114425Y0018964D01*
X0114361Y0018872D01*
X0114295Y0018782D01*
X0114225Y0018695D01*
X0114152Y0018610D01*
X0114076Y0018528D01*
X0113998Y0018448D01*
X0113916Y0018372D01*
X0113832Y0018298D01*
X0113745Y0018227D01*
X0113656Y0018160D01*
X0113565Y0018096D01*
X0113471Y0018035D01*
X0113375Y0017977D01*
X0113277Y0017923D01*
X0113178Y0017872D01*
X0113076Y0017825D01*
X0112973Y0017782D01*
X0112869Y0017742D01*
X0112763Y0017706D01*
X0112656Y0017673D01*
X0112548Y0017645D01*
X0112439Y0017620D01*
X0112329Y0017600D01*
X0112218Y0017583D01*
X0112107Y0017570D01*
X0111996Y0017561D01*
X0111884Y0017556D01*
X0111772Y0017555D01*
X0111660Y0017558D01*
X0111549Y0017565D01*
X0111437Y0017576D01*
X0111327Y0017591D01*
X0111216Y0017610D01*
X0111107Y0017632D01*
X0110998Y0017659D01*
X0110891Y0017689D01*
X0110784Y0017723D01*
X0110679Y0017761D01*
X0110575Y0017803D01*
X0110473Y0017848D01*
X0110372Y0017897D01*
X0110274Y0017949D01*
X0110177Y0018005D01*
X0110082Y0018065D01*
X0109989Y0018127D01*
X0109899Y0018193D01*
X0109811Y0018262D01*
X0109726Y0018334D01*
X0109643Y0018410D01*
X0109563Y0018488D01*
X0109485Y0018568D01*
X0109411Y0018652D01*
X0109340Y0018738D01*
X0109271Y0018826D01*
X0109206Y0018917D01*
X0109145Y0019011D01*
X0109086Y0019106D01*
X0109031Y0019203D01*
X0108980Y0019302D01*
X0108932Y0019403D01*
X0108887Y0019506D01*
X0108846Y0019610D01*
X0108809Y0019716D01*
X0108776Y0019822D01*
X0108747Y0019930D01*
X0108721Y0020039D01*
X0108699Y0020149D01*
X0108682Y0020259D01*
X0108668Y0020370D01*
X0108658Y0020482D01*
X0108652Y0020593D01*
X0108650Y0020705D01*
X0108652Y0020817D01*
X0108658Y0020928D01*
X0108668Y0021040D01*
X0108682Y0021151D01*
X0108699Y0021261D01*
X0108721Y0021371D01*
X0108747Y0021480D01*
X0108776Y0021588D01*
X0108809Y0021694D01*
X0108846Y0021800D01*
X0108887Y0021904D01*
X0108932Y0022007D01*
X0108980Y0022108D01*
X0109031Y0022207D01*
X0109086Y0022304D01*
X0109145Y0022399D01*
X0109206Y0022493D01*
X0109271Y0022584D01*
X0109340Y0022672D01*
X0109411Y0022758D01*
X0109485Y0022842D01*
X0109563Y0022922D01*
X0109643Y0023000D01*
X0109726Y0023076D01*
X0109811Y0023148D01*
X0109899Y0023217D01*
X0109989Y0023283D01*
X0110082Y0023345D01*
X0110177Y0023405D01*
X0110274Y0023461D01*
X0110372Y0023513D01*
X0110473Y0023562D01*
X0110575Y0023607D01*
X0110679Y0023649D01*
X0110784Y0023687D01*
X0110891Y0023721D01*
X0110998Y0023751D01*
X0111107Y0023778D01*
X0111216Y0023800D01*
X0111327Y0023819D01*
X0111437Y0023834D01*
X0111549Y0023845D01*
X0111660Y0023852D01*
X0111772Y0023855D01*
X0111884Y0023854D01*
X0111996Y0023849D01*
X0112107Y0023840D01*
X0112218Y0023827D01*
X0112329Y0023810D01*
X0112439Y0023790D01*
X0112548Y0023765D01*
X0112656Y0023737D01*
X0112763Y0023704D01*
X0112869Y0023668D01*
X0112973Y0023628D01*
X0113076Y0023585D01*
X0113178Y0023538D01*
X0113277Y0023487D01*
X0113375Y0023433D01*
X0113471Y0023375D01*
X0113565Y0023314D01*
X0113656Y0023250D01*
X0113745Y0023183D01*
X0113832Y0023112D01*
X0113916Y0023038D01*
X0113998Y0022962D01*
X0114076Y0022882D01*
X0114152Y0022800D01*
X0114225Y0022715D01*
X0114295Y0022628D01*
X0114361Y0022538D01*
X0114425Y0022446D01*
X0114485Y0022352D01*
X0114542Y0022256D01*
X0114595Y0022157D01*
X0114645Y0022057D01*
X0114691Y0021956D01*
X0114734Y0021852D01*
X0114773Y0021747D01*
X0114808Y0021641D01*
X0114839Y0021534D01*
X0114867Y0021425D01*
X0114890Y0021316D01*
X0114910Y0021206D01*
X0114926Y0021095D01*
X0114938Y0020984D01*
X0114946Y0020873D01*
X0114950Y0020761D01*
X0114950Y0020649D01*
X0114946Y0020537D01*
X0114938Y0020426D01*
X0114926Y0020315D01*
X0114910Y0020204D01*
X0114890Y0020094D01*
X0114867Y0019985D01*
X0114839Y0019876D01*
X0114808Y0019769D01*
X0114773Y0019663D01*
X0114734Y0019558D01*
X0114691Y0019454D01*
X0114645Y0019353D01*
X0114595Y0019253D01*
X0114542Y0019154D01*
X0114485Y0019058D01*
X0114425Y0018964D01*
X0114361Y0018872D01*
X0114295Y0018782D01*
X0114225Y0018695D01*
X0114152Y0018610D01*
X0114076Y0018528D01*
X0113998Y0018448D01*
X0113916Y0018372D01*
X0113832Y0018298D01*
X0113745Y0018227D01*
X0113656Y0018160D01*
X0113565Y0018096D01*
X0113471Y0018035D01*
X0113375Y0017977D01*
X0113277Y0017923D01*
X0113178Y0017872D01*
X0113076Y0017825D01*
X0112973Y0017782D01*
X0112869Y0017742D01*
X0112763Y0017706D01*
X0112656Y0017673D01*
X0112548Y0017645D01*
X0112439Y0017620D01*
X0112329Y0017600D01*
X0112218Y0017583D01*
X0112107Y0017570D01*
X0111996Y0017561D01*
X0111884Y0017556D01*
X0111772Y0017555D01*
X0111660Y0017558D01*
X0111549Y0017565D01*
X0111437Y0017576D01*
X0111327Y0017591D01*
X0111216Y0017610D01*
X0111107Y0017632D01*
X0110998Y0017659D01*
X0110891Y0017689D01*
X0110784Y0017723D01*
X0110679Y0017761D01*
X0110575Y0017803D01*
X0110473Y0017848D01*
X0110372Y0017897D01*
X0110274Y0017949D01*
X0110177Y0018005D01*
X0110082Y0018065D01*
X0109989Y0018127D01*
X0109899Y0018193D01*
X0109811Y0018262D01*
X0109726Y0018334D01*
X0109643Y0018410D01*
X0109563Y0018488D01*
X0109485Y0018568D01*
X0109411Y0018652D01*
X0109340Y0018738D01*
X0109271Y0018826D01*
X0109206Y0018917D01*
X0109145Y0019011D01*
X0109086Y0019106D01*
X0109031Y0019203D01*
X0108980Y0019302D01*
X0108932Y0019403D01*
X0108887Y0019506D01*
X0108846Y0019610D01*
X0108809Y0019716D01*
X0108776Y0019822D01*
X0108747Y0019930D01*
X0108721Y0020039D01*
X0108699Y0020149D01*
X0108682Y0020259D01*
X0108668Y0020370D01*
X0108658Y0020482D01*
X0108652Y0020593D01*
X0108650Y0020705D01*
X0118650Y0020705D02*
X0118652Y0020817D01*
X0118658Y0020928D01*
X0118668Y0021040D01*
X0118682Y0021151D01*
X0118699Y0021261D01*
X0118721Y0021371D01*
X0118747Y0021480D01*
X0118776Y0021588D01*
X0118809Y0021694D01*
X0118846Y0021800D01*
X0118887Y0021904D01*
X0118932Y0022007D01*
X0118980Y0022108D01*
X0119031Y0022207D01*
X0119086Y0022304D01*
X0119145Y0022399D01*
X0119206Y0022493D01*
X0119271Y0022584D01*
X0119340Y0022672D01*
X0119411Y0022758D01*
X0119485Y0022842D01*
X0119563Y0022922D01*
X0119643Y0023000D01*
X0119726Y0023076D01*
X0119811Y0023148D01*
X0119899Y0023217D01*
X0119989Y0023283D01*
X0120082Y0023345D01*
X0120177Y0023405D01*
X0120274Y0023461D01*
X0120372Y0023513D01*
X0120473Y0023562D01*
X0120575Y0023607D01*
X0120679Y0023649D01*
X0120784Y0023687D01*
X0120891Y0023721D01*
X0120998Y0023751D01*
X0121107Y0023778D01*
X0121216Y0023800D01*
X0121327Y0023819D01*
X0121437Y0023834D01*
X0121549Y0023845D01*
X0121660Y0023852D01*
X0121772Y0023855D01*
X0121884Y0023854D01*
X0121996Y0023849D01*
X0122107Y0023840D01*
X0122218Y0023827D01*
X0122329Y0023810D01*
X0122439Y0023790D01*
X0122548Y0023765D01*
X0122656Y0023737D01*
X0122763Y0023704D01*
X0122869Y0023668D01*
X0122973Y0023628D01*
X0123076Y0023585D01*
X0123178Y0023538D01*
X0123277Y0023487D01*
X0123375Y0023433D01*
X0123471Y0023375D01*
X0123565Y0023314D01*
X0123656Y0023250D01*
X0123745Y0023183D01*
X0123832Y0023112D01*
X0123916Y0023038D01*
X0123998Y0022962D01*
X0124076Y0022882D01*
X0124152Y0022800D01*
X0124225Y0022715D01*
X0124295Y0022628D01*
X0124361Y0022538D01*
X0124425Y0022446D01*
X0124485Y0022352D01*
X0124542Y0022256D01*
X0124595Y0022157D01*
X0124645Y0022057D01*
X0124691Y0021956D01*
X0124734Y0021852D01*
X0124773Y0021747D01*
X0124808Y0021641D01*
X0124839Y0021534D01*
X0124867Y0021425D01*
X0124890Y0021316D01*
X0124910Y0021206D01*
X0124926Y0021095D01*
X0124938Y0020984D01*
X0124946Y0020873D01*
X0124950Y0020761D01*
X0124950Y0020649D01*
X0124946Y0020537D01*
X0124938Y0020426D01*
X0124926Y0020315D01*
X0124910Y0020204D01*
X0124890Y0020094D01*
X0124867Y0019985D01*
X0124839Y0019876D01*
X0124808Y0019769D01*
X0124773Y0019663D01*
X0124734Y0019558D01*
X0124691Y0019454D01*
X0124645Y0019353D01*
X0124595Y0019253D01*
X0124542Y0019154D01*
X0124485Y0019058D01*
X0124425Y0018964D01*
X0124361Y0018872D01*
X0124295Y0018782D01*
X0124225Y0018695D01*
X0124152Y0018610D01*
X0124076Y0018528D01*
X0123998Y0018448D01*
X0123916Y0018372D01*
X0123832Y0018298D01*
X0123745Y0018227D01*
X0123656Y0018160D01*
X0123565Y0018096D01*
X0123471Y0018035D01*
X0123375Y0017977D01*
X0123277Y0017923D01*
X0123178Y0017872D01*
X0123076Y0017825D01*
X0122973Y0017782D01*
X0122869Y0017742D01*
X0122763Y0017706D01*
X0122656Y0017673D01*
X0122548Y0017645D01*
X0122439Y0017620D01*
X0122329Y0017600D01*
X0122218Y0017583D01*
X0122107Y0017570D01*
X0121996Y0017561D01*
X0121884Y0017556D01*
X0121772Y0017555D01*
X0121660Y0017558D01*
X0121549Y0017565D01*
X0121437Y0017576D01*
X0121327Y0017591D01*
X0121216Y0017610D01*
X0121107Y0017632D01*
X0120998Y0017659D01*
X0120891Y0017689D01*
X0120784Y0017723D01*
X0120679Y0017761D01*
X0120575Y0017803D01*
X0120473Y0017848D01*
X0120372Y0017897D01*
X0120274Y0017949D01*
X0120177Y0018005D01*
X0120082Y0018065D01*
X0119989Y0018127D01*
X0119899Y0018193D01*
X0119811Y0018262D01*
X0119726Y0018334D01*
X0119643Y0018410D01*
X0119563Y0018488D01*
X0119485Y0018568D01*
X0119411Y0018652D01*
X0119340Y0018738D01*
X0119271Y0018826D01*
X0119206Y0018917D01*
X0119145Y0019011D01*
X0119086Y0019106D01*
X0119031Y0019203D01*
X0118980Y0019302D01*
X0118932Y0019403D01*
X0118887Y0019506D01*
X0118846Y0019610D01*
X0118809Y0019716D01*
X0118776Y0019822D01*
X0118747Y0019930D01*
X0118721Y0020039D01*
X0118699Y0020149D01*
X0118682Y0020259D01*
X0118668Y0020370D01*
X0118658Y0020482D01*
X0118652Y0020593D01*
X0118650Y0020705D01*
X0126800Y0015705D02*
X0141800Y0015705D01*
X0146800Y0015705D01*
X0146800Y0020705D01*
X0146800Y0185705D01*
X0263046Y0103853D02*
X0263797Y0103853D01*
X0266799Y0100851D01*
X0267550Y0100851D01*
X0267550Y0099249D02*
X0266049Y0097748D01*
X0266049Y0098499D02*
X0266049Y0096247D01*
X0267550Y0096247D02*
X0263046Y0096247D01*
X0263046Y0098499D01*
X0263797Y0099249D01*
X0265298Y0099249D01*
X0266049Y0098499D01*
X0263046Y0100851D02*
X0263046Y0103853D01*
X0295050Y0101459D02*
X0295050Y0096955D01*
X0295050Y0098456D02*
X0297302Y0098456D01*
X0298053Y0099207D01*
X0298053Y0100708D01*
X0297302Y0101459D01*
X0295050Y0101459D01*
X0296551Y0098456D02*
X0298053Y0096955D01*
X0299654Y0097705D02*
X0299654Y0098456D01*
X0300405Y0099207D01*
X0301906Y0099207D01*
X0302656Y0098456D01*
X0302656Y0097705D01*
X0301906Y0096955D01*
X0300405Y0096955D01*
X0299654Y0097705D01*
X0300405Y0099207D02*
X0299654Y0099957D01*
X0299654Y0100708D01*
X0300405Y0101459D01*
X0301906Y0101459D01*
X0302656Y0100708D01*
X0302656Y0099957D01*
X0301906Y0099207D01*
X0242550Y0080603D02*
X0238046Y0080603D01*
X0240298Y0078351D01*
X0240298Y0081353D01*
X0240298Y0076749D02*
X0238797Y0076749D01*
X0238046Y0075999D01*
X0238046Y0073747D01*
X0242550Y0073747D01*
X0241049Y0073747D02*
X0241049Y0075999D01*
X0240298Y0076749D01*
X0241049Y0075248D02*
X0242550Y0076749D01*
X0242047Y0044853D02*
X0241297Y0044853D01*
X0240546Y0044103D01*
X0240546Y0042601D01*
X0241297Y0041851D01*
X0241297Y0040249D02*
X0240546Y0039499D01*
X0240546Y0037998D01*
X0241297Y0037247D01*
X0244299Y0037247D01*
X0245050Y0037998D01*
X0245050Y0039499D01*
X0244299Y0040249D01*
X0245050Y0041851D02*
X0242047Y0044853D01*
X0245050Y0044853D02*
X0245050Y0041851D01*
X0261046Y0031561D02*
X0261797Y0030060D01*
X0263298Y0028559D01*
X0263298Y0030811D01*
X0264049Y0031561D01*
X0264799Y0031561D01*
X0265550Y0030811D01*
X0265550Y0029309D01*
X0264799Y0028559D01*
X0263298Y0028559D01*
X0263298Y0026957D02*
X0261797Y0026957D01*
X0261046Y0026207D01*
X0261046Y0023955D01*
X0265550Y0023955D01*
X0264049Y0023955D02*
X0264049Y0026207D01*
X0263298Y0026957D01*
X0264049Y0025456D02*
X0265550Y0026957D01*
X0295550Y0016459D02*
X0297051Y0016459D01*
X0296301Y0016459D02*
X0296301Y0011955D01*
X0297051Y0011955D02*
X0295550Y0011955D01*
X0298619Y0012705D02*
X0299370Y0011955D01*
X0300871Y0011955D01*
X0301622Y0012705D01*
X0303223Y0014207D02*
X0306226Y0014207D01*
X0305475Y0016459D02*
X0303223Y0014207D01*
X0301622Y0015708D02*
X0300871Y0016459D01*
X0299370Y0016459D01*
X0298619Y0015708D01*
X0298619Y0012705D01*
X0305475Y0011955D02*
X0305475Y0016459D01*
X0338046Y0048747D02*
X0338046Y0050999D01*
X0338797Y0051749D01*
X0340298Y0051749D01*
X0341049Y0050999D01*
X0341049Y0048747D01*
X0342550Y0048747D02*
X0338046Y0048747D01*
X0341049Y0050248D02*
X0342550Y0051749D01*
X0341799Y0053351D02*
X0342550Y0054101D01*
X0342550Y0055603D01*
X0341799Y0056353D01*
X0338797Y0056353D01*
X0338046Y0055603D01*
X0338046Y0054101D01*
X0338797Y0053351D01*
X0339547Y0053351D01*
X0340298Y0054101D01*
X0340298Y0056353D01*
X0201949Y0018708D02*
X0201949Y0017957D01*
X0201198Y0017207D01*
X0201949Y0016456D01*
X0201949Y0015705D01*
X0201198Y0014955D01*
X0199697Y0014955D01*
X0198946Y0015705D01*
X0197345Y0015705D02*
X0196594Y0014955D01*
X0195093Y0014955D01*
X0194342Y0015705D01*
X0194342Y0018708D01*
X0195093Y0019459D01*
X0196594Y0019459D01*
X0197345Y0018708D01*
X0198946Y0018708D02*
X0199697Y0019459D01*
X0201198Y0019459D01*
X0201949Y0018708D01*
X0201198Y0017207D02*
X0200447Y0017207D01*
X0192774Y0019459D02*
X0191273Y0019459D01*
X0192023Y0019459D02*
X0192023Y0014955D01*
X0191273Y0014955D02*
X0192774Y0014955D01*
X0157550Y0043747D02*
X0153046Y0043747D01*
X0153046Y0045999D01*
X0153797Y0046749D01*
X0155298Y0046749D01*
X0156049Y0045999D01*
X0156049Y0043747D01*
X0156049Y0045248D02*
X0157550Y0046749D01*
X0156799Y0048351D02*
X0157550Y0049101D01*
X0157550Y0050603D01*
X0156799Y0051353D01*
X0156049Y0051353D01*
X0155298Y0050603D01*
X0155298Y0049852D01*
X0155298Y0050603D02*
X0154547Y0051353D01*
X0153797Y0051353D01*
X0153046Y0050603D01*
X0153046Y0049101D01*
X0153797Y0048351D01*
X0136800Y0045705D02*
X0131800Y0040705D01*
X0136800Y0035705D01*
X0136800Y0045705D01*
X0136800Y0045601D02*
X0136696Y0045601D01*
X0136800Y0045102D02*
X0136197Y0045102D01*
X0135699Y0044603D02*
X0136800Y0044603D01*
X0136800Y0044105D02*
X0135200Y0044105D01*
X0134702Y0043606D02*
X0136800Y0043606D01*
X0136800Y0043108D02*
X0134203Y0043108D01*
X0133705Y0042609D02*
X0136800Y0042609D01*
X0136800Y0042111D02*
X0133206Y0042111D01*
X0132708Y0041612D02*
X0136800Y0041612D01*
X0136800Y0041114D02*
X0132209Y0041114D01*
X0131889Y0040615D02*
X0136800Y0040615D01*
X0136800Y0040117D02*
X0132388Y0040117D01*
X0132886Y0039618D02*
X0136800Y0039618D01*
X0136800Y0039120D02*
X0133385Y0039120D01*
X0133883Y0038621D02*
X0136800Y0038621D01*
X0136800Y0038123D02*
X0134382Y0038123D01*
X0134880Y0037624D02*
X0136800Y0037624D01*
X0136800Y0037126D02*
X0135379Y0037126D01*
X0135877Y0036627D02*
X0136800Y0036627D01*
X0136800Y0036129D02*
X0136376Y0036129D01*
X0133370Y0034135D02*
X0131800Y0034135D01*
X0131800Y0034633D02*
X0132871Y0034633D01*
X0132373Y0035132D02*
X0131800Y0035132D01*
X0131800Y0035630D02*
X0131874Y0035630D01*
X0131800Y0035705D02*
X0131800Y0025705D01*
X0136800Y0030705D01*
X0131800Y0035705D01*
X0131800Y0033636D02*
X0133868Y0033636D01*
X0134367Y0033138D02*
X0131800Y0033138D01*
X0131800Y0032639D02*
X0134866Y0032639D01*
X0135364Y0032141D02*
X0131800Y0032141D01*
X0131800Y0031642D02*
X0135863Y0031642D01*
X0136361Y0031144D02*
X0131800Y0031144D01*
X0131800Y0030645D02*
X0136740Y0030645D01*
X0136242Y0030147D02*
X0131800Y0030147D01*
X0131800Y0029648D02*
X0135743Y0029648D01*
X0135245Y0029150D02*
X0131800Y0029150D01*
X0131800Y0028651D02*
X0134746Y0028651D01*
X0134248Y0028153D02*
X0131800Y0028153D01*
X0131800Y0027654D02*
X0133749Y0027654D01*
X0133251Y0027156D02*
X0131800Y0027156D01*
X0131800Y0026657D02*
X0132752Y0026657D01*
X0132254Y0026159D02*
X0131800Y0026159D01*
X0118650Y0030705D02*
X0118652Y0030817D01*
X0118658Y0030928D01*
X0118668Y0031040D01*
X0118682Y0031151D01*
X0118699Y0031261D01*
X0118721Y0031371D01*
X0118747Y0031480D01*
X0118776Y0031588D01*
X0118809Y0031694D01*
X0118846Y0031800D01*
X0118887Y0031904D01*
X0118932Y0032007D01*
X0118980Y0032108D01*
X0119031Y0032207D01*
X0119086Y0032304D01*
X0119145Y0032399D01*
X0119206Y0032493D01*
X0119271Y0032584D01*
X0119340Y0032672D01*
X0119411Y0032758D01*
X0119485Y0032842D01*
X0119563Y0032922D01*
X0119643Y0033000D01*
X0119726Y0033076D01*
X0119811Y0033148D01*
X0119899Y0033217D01*
X0119989Y0033283D01*
X0120082Y0033345D01*
X0120177Y0033405D01*
X0120274Y0033461D01*
X0120372Y0033513D01*
X0120473Y0033562D01*
X0120575Y0033607D01*
X0120679Y0033649D01*
X0120784Y0033687D01*
X0120891Y0033721D01*
X0120998Y0033751D01*
X0121107Y0033778D01*
X0121216Y0033800D01*
X0121327Y0033819D01*
X0121437Y0033834D01*
X0121549Y0033845D01*
X0121660Y0033852D01*
X0121772Y0033855D01*
X0121884Y0033854D01*
X0121996Y0033849D01*
X0122107Y0033840D01*
X0122218Y0033827D01*
X0122329Y0033810D01*
X0122439Y0033790D01*
X0122548Y0033765D01*
X0122656Y0033737D01*
X0122763Y0033704D01*
X0122869Y0033668D01*
X0122973Y0033628D01*
X0123076Y0033585D01*
X0123178Y0033538D01*
X0123277Y0033487D01*
X0123375Y0033433D01*
X0123471Y0033375D01*
X0123565Y0033314D01*
X0123656Y0033250D01*
X0123745Y0033183D01*
X0123832Y0033112D01*
X0123916Y0033038D01*
X0123998Y0032962D01*
X0124076Y0032882D01*
X0124152Y0032800D01*
X0124225Y0032715D01*
X0124295Y0032628D01*
X0124361Y0032538D01*
X0124425Y0032446D01*
X0124485Y0032352D01*
X0124542Y0032256D01*
X0124595Y0032157D01*
X0124645Y0032057D01*
X0124691Y0031956D01*
X0124734Y0031852D01*
X0124773Y0031747D01*
X0124808Y0031641D01*
X0124839Y0031534D01*
X0124867Y0031425D01*
X0124890Y0031316D01*
X0124910Y0031206D01*
X0124926Y0031095D01*
X0124938Y0030984D01*
X0124946Y0030873D01*
X0124950Y0030761D01*
X0124950Y0030649D01*
X0124946Y0030537D01*
X0124938Y0030426D01*
X0124926Y0030315D01*
X0124910Y0030204D01*
X0124890Y0030094D01*
X0124867Y0029985D01*
X0124839Y0029876D01*
X0124808Y0029769D01*
X0124773Y0029663D01*
X0124734Y0029558D01*
X0124691Y0029454D01*
X0124645Y0029353D01*
X0124595Y0029253D01*
X0124542Y0029154D01*
X0124485Y0029058D01*
X0124425Y0028964D01*
X0124361Y0028872D01*
X0124295Y0028782D01*
X0124225Y0028695D01*
X0124152Y0028610D01*
X0124076Y0028528D01*
X0123998Y0028448D01*
X0123916Y0028372D01*
X0123832Y0028298D01*
X0123745Y0028227D01*
X0123656Y0028160D01*
X0123565Y0028096D01*
X0123471Y0028035D01*
X0123375Y0027977D01*
X0123277Y0027923D01*
X0123178Y0027872D01*
X0123076Y0027825D01*
X0122973Y0027782D01*
X0122869Y0027742D01*
X0122763Y0027706D01*
X0122656Y0027673D01*
X0122548Y0027645D01*
X0122439Y0027620D01*
X0122329Y0027600D01*
X0122218Y0027583D01*
X0122107Y0027570D01*
X0121996Y0027561D01*
X0121884Y0027556D01*
X0121772Y0027555D01*
X0121660Y0027558D01*
X0121549Y0027565D01*
X0121437Y0027576D01*
X0121327Y0027591D01*
X0121216Y0027610D01*
X0121107Y0027632D01*
X0120998Y0027659D01*
X0120891Y0027689D01*
X0120784Y0027723D01*
X0120679Y0027761D01*
X0120575Y0027803D01*
X0120473Y0027848D01*
X0120372Y0027897D01*
X0120274Y0027949D01*
X0120177Y0028005D01*
X0120082Y0028065D01*
X0119989Y0028127D01*
X0119899Y0028193D01*
X0119811Y0028262D01*
X0119726Y0028334D01*
X0119643Y0028410D01*
X0119563Y0028488D01*
X0119485Y0028568D01*
X0119411Y0028652D01*
X0119340Y0028738D01*
X0119271Y0028826D01*
X0119206Y0028917D01*
X0119145Y0029011D01*
X0119086Y0029106D01*
X0119031Y0029203D01*
X0118980Y0029302D01*
X0118932Y0029403D01*
X0118887Y0029506D01*
X0118846Y0029610D01*
X0118809Y0029716D01*
X0118776Y0029822D01*
X0118747Y0029930D01*
X0118721Y0030039D01*
X0118699Y0030149D01*
X0118682Y0030259D01*
X0118668Y0030370D01*
X0118658Y0030482D01*
X0118652Y0030593D01*
X0118650Y0030705D01*
X0108650Y0030705D02*
X0108652Y0030817D01*
X0108658Y0030928D01*
X0108668Y0031040D01*
X0108682Y0031151D01*
X0108699Y0031261D01*
X0108721Y0031371D01*
X0108747Y0031480D01*
X0108776Y0031588D01*
X0108809Y0031694D01*
X0108846Y0031800D01*
X0108887Y0031904D01*
X0108932Y0032007D01*
X0108980Y0032108D01*
X0109031Y0032207D01*
X0109086Y0032304D01*
X0109145Y0032399D01*
X0109206Y0032493D01*
X0109271Y0032584D01*
X0109340Y0032672D01*
X0109411Y0032758D01*
X0109485Y0032842D01*
X0109563Y0032922D01*
X0109643Y0033000D01*
X0109726Y0033076D01*
X0109811Y0033148D01*
X0109899Y0033217D01*
X0109989Y0033283D01*
X0110082Y0033345D01*
X0110177Y0033405D01*
X0110274Y0033461D01*
X0110372Y0033513D01*
X0110473Y0033562D01*
X0110575Y0033607D01*
X0110679Y0033649D01*
X0110784Y0033687D01*
X0110891Y0033721D01*
X0110998Y0033751D01*
X0111107Y0033778D01*
X0111216Y0033800D01*
X0111327Y0033819D01*
X0111437Y0033834D01*
X0111549Y0033845D01*
X0111660Y0033852D01*
X0111772Y0033855D01*
X0111884Y0033854D01*
X0111996Y0033849D01*
X0112107Y0033840D01*
X0112218Y0033827D01*
X0112329Y0033810D01*
X0112439Y0033790D01*
X0112548Y0033765D01*
X0112656Y0033737D01*
X0112763Y0033704D01*
X0112869Y0033668D01*
X0112973Y0033628D01*
X0113076Y0033585D01*
X0113178Y0033538D01*
X0113277Y0033487D01*
X0113375Y0033433D01*
X0113471Y0033375D01*
X0113565Y0033314D01*
X0113656Y0033250D01*
X0113745Y0033183D01*
X0113832Y0033112D01*
X0113916Y0033038D01*
X0113998Y0032962D01*
X0114076Y0032882D01*
X0114152Y0032800D01*
X0114225Y0032715D01*
X0114295Y0032628D01*
X0114361Y0032538D01*
X0114425Y0032446D01*
X0114485Y0032352D01*
X0114542Y0032256D01*
X0114595Y0032157D01*
X0114645Y0032057D01*
X0114691Y0031956D01*
X0114734Y0031852D01*
X0114773Y0031747D01*
X0114808Y0031641D01*
X0114839Y0031534D01*
X0114867Y0031425D01*
X0114890Y0031316D01*
X0114910Y0031206D01*
X0114926Y0031095D01*
X0114938Y0030984D01*
X0114946Y0030873D01*
X0114950Y0030761D01*
X0114950Y0030649D01*
X0114946Y0030537D01*
X0114938Y0030426D01*
X0114926Y0030315D01*
X0114910Y0030204D01*
X0114890Y0030094D01*
X0114867Y0029985D01*
X0114839Y0029876D01*
X0114808Y0029769D01*
X0114773Y0029663D01*
X0114734Y0029558D01*
X0114691Y0029454D01*
X0114645Y0029353D01*
X0114595Y0029253D01*
X0114542Y0029154D01*
X0114485Y0029058D01*
X0114425Y0028964D01*
X0114361Y0028872D01*
X0114295Y0028782D01*
X0114225Y0028695D01*
X0114152Y0028610D01*
X0114076Y0028528D01*
X0113998Y0028448D01*
X0113916Y0028372D01*
X0113832Y0028298D01*
X0113745Y0028227D01*
X0113656Y0028160D01*
X0113565Y0028096D01*
X0113471Y0028035D01*
X0113375Y0027977D01*
X0113277Y0027923D01*
X0113178Y0027872D01*
X0113076Y0027825D01*
X0112973Y0027782D01*
X0112869Y0027742D01*
X0112763Y0027706D01*
X0112656Y0027673D01*
X0112548Y0027645D01*
X0112439Y0027620D01*
X0112329Y0027600D01*
X0112218Y0027583D01*
X0112107Y0027570D01*
X0111996Y0027561D01*
X0111884Y0027556D01*
X0111772Y0027555D01*
X0111660Y0027558D01*
X0111549Y0027565D01*
X0111437Y0027576D01*
X0111327Y0027591D01*
X0111216Y0027610D01*
X0111107Y0027632D01*
X0110998Y0027659D01*
X0110891Y0027689D01*
X0110784Y0027723D01*
X0110679Y0027761D01*
X0110575Y0027803D01*
X0110473Y0027848D01*
X0110372Y0027897D01*
X0110274Y0027949D01*
X0110177Y0028005D01*
X0110082Y0028065D01*
X0109989Y0028127D01*
X0109899Y0028193D01*
X0109811Y0028262D01*
X0109726Y0028334D01*
X0109643Y0028410D01*
X0109563Y0028488D01*
X0109485Y0028568D01*
X0109411Y0028652D01*
X0109340Y0028738D01*
X0109271Y0028826D01*
X0109206Y0028917D01*
X0109145Y0029011D01*
X0109086Y0029106D01*
X0109031Y0029203D01*
X0108980Y0029302D01*
X0108932Y0029403D01*
X0108887Y0029506D01*
X0108846Y0029610D01*
X0108809Y0029716D01*
X0108776Y0029822D01*
X0108747Y0029930D01*
X0108721Y0030039D01*
X0108699Y0030149D01*
X0108682Y0030259D01*
X0108668Y0030370D01*
X0108658Y0030482D01*
X0108652Y0030593D01*
X0108650Y0030705D01*
X0098650Y0030705D02*
X0098652Y0030817D01*
X0098658Y0030928D01*
X0098668Y0031040D01*
X0098682Y0031151D01*
X0098699Y0031261D01*
X0098721Y0031371D01*
X0098747Y0031480D01*
X0098776Y0031588D01*
X0098809Y0031694D01*
X0098846Y0031800D01*
X0098887Y0031904D01*
X0098932Y0032007D01*
X0098980Y0032108D01*
X0099031Y0032207D01*
X0099086Y0032304D01*
X0099145Y0032399D01*
X0099206Y0032493D01*
X0099271Y0032584D01*
X0099340Y0032672D01*
X0099411Y0032758D01*
X0099485Y0032842D01*
X0099563Y0032922D01*
X0099643Y0033000D01*
X0099726Y0033076D01*
X0099811Y0033148D01*
X0099899Y0033217D01*
X0099989Y0033283D01*
X0100082Y0033345D01*
X0100177Y0033405D01*
X0100274Y0033461D01*
X0100372Y0033513D01*
X0100473Y0033562D01*
X0100575Y0033607D01*
X0100679Y0033649D01*
X0100784Y0033687D01*
X0100891Y0033721D01*
X0100998Y0033751D01*
X0101107Y0033778D01*
X0101216Y0033800D01*
X0101327Y0033819D01*
X0101437Y0033834D01*
X0101549Y0033845D01*
X0101660Y0033852D01*
X0101772Y0033855D01*
X0101884Y0033854D01*
X0101996Y0033849D01*
X0102107Y0033840D01*
X0102218Y0033827D01*
X0102329Y0033810D01*
X0102439Y0033790D01*
X0102548Y0033765D01*
X0102656Y0033737D01*
X0102763Y0033704D01*
X0102869Y0033668D01*
X0102973Y0033628D01*
X0103076Y0033585D01*
X0103178Y0033538D01*
X0103277Y0033487D01*
X0103375Y0033433D01*
X0103471Y0033375D01*
X0103565Y0033314D01*
X0103656Y0033250D01*
X0103745Y0033183D01*
X0103832Y0033112D01*
X0103916Y0033038D01*
X0103998Y0032962D01*
X0104076Y0032882D01*
X0104152Y0032800D01*
X0104225Y0032715D01*
X0104295Y0032628D01*
X0104361Y0032538D01*
X0104425Y0032446D01*
X0104485Y0032352D01*
X0104542Y0032256D01*
X0104595Y0032157D01*
X0104645Y0032057D01*
X0104691Y0031956D01*
X0104734Y0031852D01*
X0104773Y0031747D01*
X0104808Y0031641D01*
X0104839Y0031534D01*
X0104867Y0031425D01*
X0104890Y0031316D01*
X0104910Y0031206D01*
X0104926Y0031095D01*
X0104938Y0030984D01*
X0104946Y0030873D01*
X0104950Y0030761D01*
X0104950Y0030649D01*
X0104946Y0030537D01*
X0104938Y0030426D01*
X0104926Y0030315D01*
X0104910Y0030204D01*
X0104890Y0030094D01*
X0104867Y0029985D01*
X0104839Y0029876D01*
X0104808Y0029769D01*
X0104773Y0029663D01*
X0104734Y0029558D01*
X0104691Y0029454D01*
X0104645Y0029353D01*
X0104595Y0029253D01*
X0104542Y0029154D01*
X0104485Y0029058D01*
X0104425Y0028964D01*
X0104361Y0028872D01*
X0104295Y0028782D01*
X0104225Y0028695D01*
X0104152Y0028610D01*
X0104076Y0028528D01*
X0103998Y0028448D01*
X0103916Y0028372D01*
X0103832Y0028298D01*
X0103745Y0028227D01*
X0103656Y0028160D01*
X0103565Y0028096D01*
X0103471Y0028035D01*
X0103375Y0027977D01*
X0103277Y0027923D01*
X0103178Y0027872D01*
X0103076Y0027825D01*
X0102973Y0027782D01*
X0102869Y0027742D01*
X0102763Y0027706D01*
X0102656Y0027673D01*
X0102548Y0027645D01*
X0102439Y0027620D01*
X0102329Y0027600D01*
X0102218Y0027583D01*
X0102107Y0027570D01*
X0101996Y0027561D01*
X0101884Y0027556D01*
X0101772Y0027555D01*
X0101660Y0027558D01*
X0101549Y0027565D01*
X0101437Y0027576D01*
X0101327Y0027591D01*
X0101216Y0027610D01*
X0101107Y0027632D01*
X0100998Y0027659D01*
X0100891Y0027689D01*
X0100784Y0027723D01*
X0100679Y0027761D01*
X0100575Y0027803D01*
X0100473Y0027848D01*
X0100372Y0027897D01*
X0100274Y0027949D01*
X0100177Y0028005D01*
X0100082Y0028065D01*
X0099989Y0028127D01*
X0099899Y0028193D01*
X0099811Y0028262D01*
X0099726Y0028334D01*
X0099643Y0028410D01*
X0099563Y0028488D01*
X0099485Y0028568D01*
X0099411Y0028652D01*
X0099340Y0028738D01*
X0099271Y0028826D01*
X0099206Y0028917D01*
X0099145Y0029011D01*
X0099086Y0029106D01*
X0099031Y0029203D01*
X0098980Y0029302D01*
X0098932Y0029403D01*
X0098887Y0029506D01*
X0098846Y0029610D01*
X0098809Y0029716D01*
X0098776Y0029822D01*
X0098747Y0029930D01*
X0098721Y0030039D01*
X0098699Y0030149D01*
X0098682Y0030259D01*
X0098668Y0030370D01*
X0098658Y0030482D01*
X0098652Y0030593D01*
X0098650Y0030705D01*
X0050726Y0072455D02*
X0047723Y0072455D01*
X0049224Y0072455D02*
X0049224Y0076959D01*
X0047723Y0075457D01*
X0046122Y0076208D02*
X0045371Y0076959D01*
X0043870Y0076959D01*
X0043119Y0076208D01*
X0043119Y0073205D01*
X0043870Y0072455D01*
X0045371Y0072455D01*
X0046122Y0073205D01*
X0041551Y0072455D02*
X0040050Y0072455D01*
X0040801Y0072455D02*
X0040801Y0076959D01*
X0041551Y0076959D02*
X0040050Y0076959D01*
X0015550Y0041561D02*
X0015550Y0038559D01*
X0015550Y0040060D02*
X0011046Y0040060D01*
X0012547Y0038559D01*
X0011797Y0036957D02*
X0011046Y0036207D01*
X0011046Y0033955D01*
X0015550Y0033955D01*
X0014049Y0033955D02*
X0014049Y0036207D01*
X0013298Y0036957D01*
X0011797Y0036957D01*
X0014049Y0035456D02*
X0015550Y0036957D01*
X0104729Y0090705D02*
X0104731Y0090879D01*
X0104738Y0091052D01*
X0104748Y0091225D01*
X0104763Y0091398D01*
X0104782Y0091571D01*
X0104806Y0091743D01*
X0104833Y0091914D01*
X0104865Y0092084D01*
X0104901Y0092254D01*
X0104941Y0092423D01*
X0104985Y0092591D01*
X0105033Y0092758D01*
X0105086Y0092923D01*
X0105142Y0093087D01*
X0105203Y0093250D01*
X0105267Y0093411D01*
X0105336Y0093570D01*
X0105408Y0093728D01*
X0105484Y0093884D01*
X0105564Y0094038D01*
X0105648Y0094190D01*
X0105735Y0094340D01*
X0105826Y0094488D01*
X0105921Y0094633D01*
X0106019Y0094777D01*
X0106121Y0094917D01*
X0106226Y0095055D01*
X0106334Y0095191D01*
X0106446Y0095324D01*
X0106561Y0095454D01*
X0106679Y0095581D01*
X0106800Y0095705D01*
X0106924Y0095826D01*
X0107051Y0095944D01*
X0107181Y0096059D01*
X0107314Y0096171D01*
X0107450Y0096279D01*
X0107588Y0096384D01*
X0107728Y0096486D01*
X0107872Y0096584D01*
X0108017Y0096679D01*
X0108165Y0096770D01*
X0108315Y0096857D01*
X0108467Y0096941D01*
X0108621Y0097021D01*
X0108777Y0097097D01*
X0108935Y0097169D01*
X0109094Y0097238D01*
X0109255Y0097302D01*
X0109418Y0097363D01*
X0109582Y0097419D01*
X0109747Y0097472D01*
X0109914Y0097520D01*
X0110082Y0097564D01*
X0110251Y0097604D01*
X0110421Y0097640D01*
X0110591Y0097672D01*
X0110762Y0097699D01*
X0110934Y0097723D01*
X0111107Y0097742D01*
X0111280Y0097757D01*
X0111453Y0097767D01*
X0111626Y0097774D01*
X0111800Y0097776D01*
X0111974Y0097774D01*
X0112147Y0097767D01*
X0112320Y0097757D01*
X0112493Y0097742D01*
X0112666Y0097723D01*
X0112838Y0097699D01*
X0113009Y0097672D01*
X0113179Y0097640D01*
X0113349Y0097604D01*
X0113518Y0097564D01*
X0113686Y0097520D01*
X0113853Y0097472D01*
X0114018Y0097419D01*
X0114182Y0097363D01*
X0114345Y0097302D01*
X0114506Y0097238D01*
X0114665Y0097169D01*
X0114823Y0097097D01*
X0114979Y0097021D01*
X0115133Y0096941D01*
X0115285Y0096857D01*
X0115435Y0096770D01*
X0115583Y0096679D01*
X0115728Y0096584D01*
X0115872Y0096486D01*
X0116012Y0096384D01*
X0116150Y0096279D01*
X0116286Y0096171D01*
X0116419Y0096059D01*
X0116549Y0095944D01*
X0116676Y0095826D01*
X0116800Y0095705D01*
X0116921Y0095581D01*
X0117039Y0095454D01*
X0117154Y0095324D01*
X0117266Y0095191D01*
X0117374Y0095055D01*
X0117479Y0094917D01*
X0117581Y0094777D01*
X0117679Y0094633D01*
X0117774Y0094488D01*
X0117865Y0094340D01*
X0117952Y0094190D01*
X0118036Y0094038D01*
X0118116Y0093884D01*
X0118192Y0093728D01*
X0118264Y0093570D01*
X0118333Y0093411D01*
X0118397Y0093250D01*
X0118458Y0093087D01*
X0118514Y0092923D01*
X0118567Y0092758D01*
X0118615Y0092591D01*
X0118659Y0092423D01*
X0118699Y0092254D01*
X0118735Y0092084D01*
X0118767Y0091914D01*
X0118794Y0091743D01*
X0118818Y0091571D01*
X0118837Y0091398D01*
X0118852Y0091225D01*
X0118862Y0091052D01*
X0118869Y0090879D01*
X0118871Y0090705D01*
X0118869Y0090531D01*
X0118862Y0090358D01*
X0118852Y0090185D01*
X0118837Y0090012D01*
X0118818Y0089839D01*
X0118794Y0089667D01*
X0118767Y0089496D01*
X0118735Y0089326D01*
X0118699Y0089156D01*
X0118659Y0088987D01*
X0118615Y0088819D01*
X0118567Y0088652D01*
X0118514Y0088487D01*
X0118458Y0088323D01*
X0118397Y0088160D01*
X0118333Y0087999D01*
X0118264Y0087840D01*
X0118192Y0087682D01*
X0118116Y0087526D01*
X0118036Y0087372D01*
X0117952Y0087220D01*
X0117865Y0087070D01*
X0117774Y0086922D01*
X0117679Y0086777D01*
X0117581Y0086633D01*
X0117479Y0086493D01*
X0117374Y0086355D01*
X0117266Y0086219D01*
X0117154Y0086086D01*
X0117039Y0085956D01*
X0116921Y0085829D01*
X0116800Y0085705D01*
X0116676Y0085584D01*
X0116549Y0085466D01*
X0116419Y0085351D01*
X0116286Y0085239D01*
X0116150Y0085131D01*
X0116012Y0085026D01*
X0115872Y0084924D01*
X0115728Y0084826D01*
X0115583Y0084731D01*
X0115435Y0084640D01*
X0115285Y0084553D01*
X0115133Y0084469D01*
X0114979Y0084389D01*
X0114823Y0084313D01*
X0114665Y0084241D01*
X0114506Y0084172D01*
X0114345Y0084108D01*
X0114182Y0084047D01*
X0114018Y0083991D01*
X0113853Y0083938D01*
X0113686Y0083890D01*
X0113518Y0083846D01*
X0113349Y0083806D01*
X0113179Y0083770D01*
X0113009Y0083738D01*
X0112838Y0083711D01*
X0112666Y0083687D01*
X0112493Y0083668D01*
X0112320Y0083653D01*
X0112147Y0083643D01*
X0111974Y0083636D01*
X0111800Y0083634D01*
X0111626Y0083636D01*
X0111453Y0083643D01*
X0111280Y0083653D01*
X0111107Y0083668D01*
X0110934Y0083687D01*
X0110762Y0083711D01*
X0110591Y0083738D01*
X0110421Y0083770D01*
X0110251Y0083806D01*
X0110082Y0083846D01*
X0109914Y0083890D01*
X0109747Y0083938D01*
X0109582Y0083991D01*
X0109418Y0084047D01*
X0109255Y0084108D01*
X0109094Y0084172D01*
X0108935Y0084241D01*
X0108777Y0084313D01*
X0108621Y0084389D01*
X0108467Y0084469D01*
X0108315Y0084553D01*
X0108165Y0084640D01*
X0108017Y0084731D01*
X0107872Y0084826D01*
X0107728Y0084924D01*
X0107588Y0085026D01*
X0107450Y0085131D01*
X0107314Y0085239D01*
X0107181Y0085351D01*
X0107051Y0085466D01*
X0106924Y0085584D01*
X0106800Y0085705D01*
X0106679Y0085829D01*
X0106561Y0085956D01*
X0106446Y0086086D01*
X0106334Y0086219D01*
X0106226Y0086355D01*
X0106121Y0086493D01*
X0106019Y0086633D01*
X0105921Y0086777D01*
X0105826Y0086922D01*
X0105735Y0087070D01*
X0105648Y0087220D01*
X0105564Y0087372D01*
X0105484Y0087526D01*
X0105408Y0087682D01*
X0105336Y0087840D01*
X0105267Y0087999D01*
X0105203Y0088160D01*
X0105142Y0088323D01*
X0105086Y0088487D01*
X0105033Y0088652D01*
X0104985Y0088819D01*
X0104941Y0088987D01*
X0104901Y0089156D01*
X0104865Y0089326D01*
X0104833Y0089496D01*
X0104806Y0089667D01*
X0104782Y0089839D01*
X0104763Y0090012D01*
X0104748Y0090185D01*
X0104738Y0090358D01*
X0104731Y0090531D01*
X0104729Y0090705D01*
D12*
X0113531Y0102588D02*
X0111996Y0104123D01*
X0113531Y0105658D01*
X0116600Y0105658D01*
X0116600Y0107192D02*
X0111996Y0107192D01*
X0111996Y0109494D01*
X0112763Y0110261D01*
X0114298Y0110261D01*
X0115065Y0109494D01*
X0115065Y0107192D01*
X0115065Y0108727D02*
X0116600Y0110261D01*
X0116600Y0111796D02*
X0111996Y0111796D01*
X0111996Y0114098D01*
X0112763Y0114865D01*
X0115833Y0114865D01*
X0116600Y0114098D01*
X0116600Y0111796D01*
X0115833Y0116400D02*
X0111996Y0116400D01*
X0115833Y0116400D02*
X0116600Y0117167D01*
X0116600Y0118702D01*
X0115833Y0119469D01*
X0111996Y0119469D01*
X0111996Y0121004D02*
X0111996Y0122539D01*
X0111996Y0121771D02*
X0116600Y0121771D01*
X0116600Y0121004D02*
X0116600Y0122539D01*
X0116600Y0124073D02*
X0111996Y0124073D01*
X0116600Y0127142D01*
X0111996Y0127142D01*
X0112763Y0128677D02*
X0115833Y0128677D01*
X0116600Y0129444D01*
X0116600Y0130979D01*
X0115833Y0131746D01*
X0112763Y0131746D01*
X0111996Y0130979D01*
X0111996Y0129444D01*
X0112763Y0128677D01*
X0117367Y0133281D02*
X0117367Y0136350D01*
X0116600Y0137885D02*
X0111996Y0137885D01*
X0116600Y0140954D01*
X0111996Y0140954D01*
X0113531Y0142489D02*
X0111996Y0144024D01*
X0113531Y0145558D01*
X0116600Y0145558D01*
X0116600Y0147093D02*
X0111996Y0147093D01*
X0116600Y0150162D01*
X0111996Y0150162D01*
X0112763Y0151697D02*
X0115833Y0151697D01*
X0116600Y0152464D01*
X0116600Y0153999D01*
X0115833Y0154766D01*
X0112763Y0154766D01*
X0111996Y0153999D01*
X0111996Y0152464D01*
X0112763Y0151697D01*
X0113531Y0156301D02*
X0111996Y0157835D01*
X0116600Y0157835D01*
X0116600Y0156301D02*
X0116600Y0159370D01*
X0114298Y0145558D02*
X0114298Y0142489D01*
X0113531Y0142489D02*
X0116600Y0142489D01*
X0114298Y0105658D02*
X0114298Y0102588D01*
X0113531Y0102588D02*
X0116600Y0102588D01*
X0174283Y0103816D02*
X0174283Y0099212D01*
X0174283Y0100746D02*
X0176585Y0100746D01*
X0177353Y0101514D01*
X0177353Y0103048D01*
X0176585Y0103816D01*
X0174283Y0103816D01*
X0175818Y0100746D02*
X0177353Y0099212D01*
X0178887Y0099979D02*
X0179655Y0099212D01*
X0181189Y0099212D01*
X0181957Y0099979D01*
X0181957Y0101514D01*
X0181189Y0102281D01*
X0180422Y0102281D01*
X0178887Y0101514D01*
X0178887Y0103816D01*
X0181957Y0103816D01*
X0067774Y0049446D02*
X0066239Y0048678D01*
X0064705Y0047144D01*
X0067007Y0047144D01*
X0067774Y0046376D01*
X0067774Y0045609D01*
X0067007Y0044842D01*
X0065472Y0044842D01*
X0064705Y0045609D01*
X0064705Y0047144D01*
X0063170Y0048678D02*
X0060101Y0045609D01*
X0060868Y0044842D01*
X0062403Y0044842D01*
X0063170Y0045609D01*
X0063170Y0048678D01*
X0062403Y0049446D01*
X0060868Y0049446D01*
X0060101Y0048678D01*
X0060101Y0045609D01*
X0058566Y0047144D02*
X0055497Y0047144D01*
X0053962Y0047911D02*
X0053962Y0048678D01*
X0053195Y0049446D01*
X0051660Y0049446D01*
X0050893Y0048678D01*
X0049358Y0048678D02*
X0049358Y0047911D01*
X0048591Y0047144D01*
X0049358Y0046376D01*
X0049358Y0045609D01*
X0048591Y0044842D01*
X0047056Y0044842D01*
X0046289Y0045609D01*
X0044754Y0045609D02*
X0043987Y0044842D01*
X0042452Y0044842D01*
X0041685Y0045609D01*
X0043220Y0047144D02*
X0043987Y0047144D01*
X0044754Y0046376D01*
X0044754Y0045609D01*
X0043987Y0047144D02*
X0044754Y0047911D01*
X0044754Y0048678D01*
X0043987Y0049446D01*
X0042452Y0049446D01*
X0041685Y0048678D01*
X0046289Y0048678D02*
X0047056Y0049446D01*
X0048591Y0049446D01*
X0049358Y0048678D01*
X0048591Y0047144D02*
X0047824Y0047144D01*
X0050893Y0044842D02*
X0053962Y0047911D01*
X0053962Y0044842D02*
X0050893Y0044842D01*
X0051685Y0039131D02*
X0054754Y0034527D01*
X0056289Y0034527D02*
X0059358Y0034527D01*
X0057824Y0034527D02*
X0057824Y0039131D01*
X0056289Y0037596D01*
X0054754Y0039131D02*
X0051685Y0034527D01*
D13*
X0091681Y0020555D02*
X0094150Y0020555D01*
X0092916Y0020555D02*
X0092916Y0016852D01*
X0094150Y0018086D01*
X0107341Y0037652D02*
X0106858Y0038136D01*
X0106858Y0039103D01*
X0107341Y0039587D01*
X0108793Y0039587D01*
X0108793Y0040555D02*
X0108793Y0037652D01*
X0107341Y0037652D01*
X0109804Y0038136D02*
X0110288Y0037652D01*
X0111255Y0037652D01*
X0111739Y0038136D01*
X0111739Y0038620D01*
X0111255Y0039103D01*
X0110288Y0039103D01*
X0109804Y0039587D01*
X0109804Y0040071D01*
X0110288Y0040555D01*
X0111255Y0040555D01*
X0111739Y0040071D01*
X0112751Y0040071D02*
X0113234Y0040555D01*
X0114202Y0040555D01*
X0114686Y0040071D01*
X0114686Y0038136D01*
X0114202Y0037652D01*
X0113234Y0037652D01*
X0112751Y0038136D01*
X0115683Y0037652D02*
X0116650Y0037652D01*
X0116166Y0037652D02*
X0116166Y0040555D01*
X0115683Y0040555D02*
X0116650Y0040555D01*
X0117828Y0079255D02*
X0117345Y0079738D01*
X0117345Y0081673D01*
X0116861Y0081190D02*
X0117828Y0081190D01*
X0115849Y0080706D02*
X0115366Y0081190D01*
X0114398Y0081190D01*
X0113914Y0080706D01*
X0113914Y0079738D01*
X0114398Y0079255D01*
X0115366Y0079255D01*
X0115849Y0080222D02*
X0113914Y0080222D01*
X0112903Y0079738D02*
X0112419Y0080222D01*
X0111452Y0080222D01*
X0110968Y0080706D01*
X0111452Y0081190D01*
X0112903Y0081190D01*
X0112903Y0079738D02*
X0112419Y0079255D01*
X0110968Y0079255D01*
X0109956Y0080222D02*
X0108021Y0080222D01*
X0108021Y0079738D02*
X0108021Y0080706D01*
X0108505Y0081190D01*
X0109473Y0081190D01*
X0109956Y0080706D01*
X0109956Y0080222D01*
X0109473Y0079255D02*
X0108505Y0079255D01*
X0108021Y0079738D01*
X0107010Y0079255D02*
X0106042Y0080222D01*
X0106526Y0080222D02*
X0105075Y0080222D01*
X0105075Y0079255D02*
X0105075Y0082157D01*
X0106526Y0082157D01*
X0107010Y0081673D01*
X0107010Y0080706D01*
X0106526Y0080222D01*
X0115849Y0080222D02*
X0115849Y0080706D01*
X0090650Y0167172D02*
X0090650Y0169640D01*
X0090650Y0168406D02*
X0086947Y0168406D01*
X0088181Y0167172D01*
D14*
X0106007Y0176405D02*
X0106007Y0178607D01*
X0106741Y0177873D01*
X0107475Y0178607D01*
X0107475Y0176405D01*
X0108217Y0176405D02*
X0108951Y0176405D01*
X0108584Y0176405D02*
X0108584Y0177873D01*
X0108217Y0177873D01*
X0108584Y0178607D02*
X0108584Y0178974D01*
X0109690Y0177873D02*
X0110791Y0177873D01*
X0111158Y0177506D01*
X0111158Y0176405D01*
X0111900Y0176405D02*
X0112634Y0176405D01*
X0112267Y0176405D02*
X0112267Y0177873D01*
X0111900Y0177873D01*
X0112267Y0178607D02*
X0112267Y0178974D01*
X0113373Y0177506D02*
X0114841Y0177506D01*
X0115583Y0177506D02*
X0116684Y0177506D01*
X0117051Y0177139D01*
X0117051Y0176772D01*
X0116684Y0176405D01*
X0115583Y0176405D01*
X0115583Y0178607D01*
X0116684Y0178607D01*
X0117051Y0178240D01*
X0117051Y0177873D01*
X0116684Y0177506D01*
X0114106Y0175007D02*
X0114473Y0174640D01*
X0114473Y0174273D01*
X0114106Y0173906D01*
X0113005Y0173906D01*
X0112263Y0173539D02*
X0112263Y0173172D01*
X0111896Y0172805D01*
X0111162Y0172805D01*
X0110795Y0173172D01*
X0110053Y0173172D02*
X0110053Y0175007D01*
X0110795Y0174640D02*
X0110795Y0174273D01*
X0111162Y0173906D01*
X0111896Y0173906D01*
X0112263Y0173539D01*
X0113005Y0172805D02*
X0114106Y0172805D01*
X0114473Y0173172D01*
X0114473Y0173539D01*
X0114106Y0173906D01*
X0114106Y0175007D02*
X0113005Y0175007D01*
X0113005Y0172805D01*
X0112263Y0174640D02*
X0111896Y0175007D01*
X0111162Y0175007D01*
X0110795Y0174640D01*
X0110053Y0173172D02*
X0109686Y0172805D01*
X0108952Y0172805D01*
X0108585Y0173172D01*
X0108585Y0175007D01*
X0109690Y0176405D02*
X0109690Y0177873D01*
D15*
X0108734Y0180705D02*
X0108734Y0180738D01*
X0108672Y0180738D02*
X0108672Y0180705D01*
X0108611Y0180705D02*
X0108611Y0180738D01*
X0108560Y0180705D02*
X0108560Y0180838D01*
X0108611Y0180805D02*
X0108611Y0180938D01*
X0108672Y0180938D02*
X0108672Y0180805D01*
X0108734Y0180805D02*
X0108734Y0180938D01*
X0108734Y0181005D02*
X0108734Y0181138D01*
X0108683Y0181105D02*
X0108650Y0181138D01*
X0108583Y0181138D01*
X0108549Y0181105D01*
X0108549Y0181038D01*
X0108583Y0181005D01*
X0108650Y0181005D01*
X0108683Y0181038D01*
X0108683Y0181105D01*
X0108734Y0181071D02*
X0108800Y0181138D01*
X0108834Y0181138D01*
X0108887Y0181138D02*
X0108954Y0181138D01*
X0108920Y0181172D02*
X0108920Y0181038D01*
X0108954Y0181005D01*
X0109194Y0181038D02*
X0109227Y0181071D01*
X0109327Y0181071D01*
X0109327Y0181105D02*
X0109327Y0181005D01*
X0109227Y0181005D01*
X0109194Y0181038D01*
X0109227Y0181138D02*
X0109294Y0181138D01*
X0109327Y0181105D01*
X0109378Y0181138D02*
X0109478Y0181138D01*
X0109512Y0181105D01*
X0109512Y0181005D01*
X0109562Y0181038D02*
X0109596Y0181005D01*
X0109696Y0181005D01*
X0109696Y0180971D02*
X0109662Y0180938D01*
X0109629Y0180938D01*
X0109696Y0180971D02*
X0109696Y0181138D01*
X0109562Y0181138D02*
X0109562Y0181038D01*
X0109378Y0181005D02*
X0109378Y0181138D01*
X0109417Y0181305D02*
X0109450Y0181338D01*
X0109417Y0181371D01*
X0109350Y0181371D01*
X0109317Y0181405D01*
X0109350Y0181438D01*
X0109450Y0181438D01*
X0109417Y0181305D02*
X0109317Y0181305D01*
X0109266Y0181305D02*
X0109166Y0181305D01*
X0109133Y0181338D01*
X0109166Y0181371D01*
X0109266Y0181371D01*
X0109266Y0181405D02*
X0109266Y0181305D01*
X0109266Y0181405D02*
X0109233Y0181438D01*
X0109166Y0181438D01*
X0109082Y0181438D02*
X0109082Y0181338D01*
X0109048Y0181305D01*
X0109015Y0181338D01*
X0108982Y0181305D01*
X0108948Y0181338D01*
X0108948Y0181438D01*
X0108714Y0181438D02*
X0108714Y0181271D01*
X0108680Y0181238D01*
X0108647Y0181238D01*
X0108613Y0181305D02*
X0108714Y0181305D01*
X0108613Y0181305D02*
X0108580Y0181338D01*
X0108580Y0181438D01*
X0108527Y0181438D02*
X0108493Y0181438D01*
X0108427Y0181371D01*
X0108376Y0181371D02*
X0108276Y0181371D01*
X0108243Y0181338D01*
X0108276Y0181305D01*
X0108376Y0181305D01*
X0108376Y0181405D01*
X0108343Y0181438D01*
X0108276Y0181438D01*
X0108189Y0181438D02*
X0108156Y0181438D01*
X0108089Y0181371D01*
X0108038Y0181338D02*
X0108038Y0181405D01*
X0108005Y0181438D01*
X0107905Y0181438D01*
X0107905Y0181505D02*
X0107905Y0181305D01*
X0108005Y0181305D01*
X0108038Y0181338D01*
X0108089Y0181305D02*
X0108089Y0181438D01*
X0107815Y0181438D02*
X0107815Y0181305D01*
X0107782Y0181305D02*
X0107849Y0181305D01*
X0107726Y0181305D02*
X0107659Y0181305D01*
X0107693Y0181305D02*
X0107693Y0181505D01*
X0107659Y0181505D01*
X0107782Y0181438D02*
X0107815Y0181438D01*
X0107815Y0181505D02*
X0107815Y0181538D01*
X0107425Y0181438D02*
X0107324Y0181438D01*
X0107291Y0181405D01*
X0107324Y0181371D01*
X0107391Y0181371D01*
X0107425Y0181338D01*
X0107391Y0181305D01*
X0107291Y0181305D01*
X0107235Y0181305D02*
X0107168Y0181305D01*
X0107202Y0181305D02*
X0107202Y0181438D01*
X0107168Y0181438D01*
X0107118Y0181405D02*
X0107118Y0181305D01*
X0107118Y0181405D02*
X0107084Y0181438D01*
X0107018Y0181438D01*
X0106984Y0181405D01*
X0106984Y0181505D02*
X0106984Y0181305D01*
X0106984Y0181205D02*
X0107018Y0181205D01*
X0107018Y0181005D01*
X0107051Y0181005D02*
X0106984Y0181005D01*
X0106984Y0180905D02*
X0106984Y0180705D01*
X0106984Y0180805D02*
X0107018Y0180838D01*
X0107084Y0180838D01*
X0107118Y0180805D01*
X0107118Y0180705D01*
X0107168Y0180738D02*
X0107202Y0180771D01*
X0107302Y0180771D01*
X0107302Y0180805D02*
X0107302Y0180705D01*
X0107202Y0180705D01*
X0107168Y0180738D01*
X0107202Y0180838D02*
X0107268Y0180838D01*
X0107302Y0180805D01*
X0107352Y0180838D02*
X0107453Y0180838D01*
X0107486Y0180805D01*
X0107486Y0180705D01*
X0107537Y0180705D02*
X0107537Y0180905D01*
X0107575Y0181005D02*
X0107609Y0181038D01*
X0107575Y0181071D01*
X0107509Y0181071D01*
X0107475Y0181105D01*
X0107509Y0181138D01*
X0107609Y0181138D01*
X0107659Y0181105D02*
X0107693Y0181138D01*
X0107759Y0181138D01*
X0107793Y0181105D01*
X0107793Y0181071D01*
X0107659Y0181071D01*
X0107659Y0181038D02*
X0107659Y0181105D01*
X0107659Y0181038D02*
X0107693Y0181005D01*
X0107759Y0181005D01*
X0107723Y0180838D02*
X0107824Y0180838D01*
X0107790Y0180771D02*
X0107723Y0180771D01*
X0107690Y0180805D01*
X0107723Y0180838D01*
X0107637Y0180838D02*
X0107537Y0180771D01*
X0107637Y0180705D01*
X0107690Y0180705D02*
X0107790Y0180705D01*
X0107824Y0180738D01*
X0107790Y0180771D01*
X0108058Y0180738D02*
X0108092Y0180705D01*
X0108192Y0180705D01*
X0108192Y0180671D02*
X0108158Y0180638D01*
X0108125Y0180638D01*
X0108192Y0180671D02*
X0108192Y0180838D01*
X0108243Y0180805D02*
X0108243Y0180738D01*
X0108276Y0180705D01*
X0108343Y0180705D01*
X0108376Y0180738D01*
X0108376Y0180805D01*
X0108343Y0180838D01*
X0108276Y0180838D01*
X0108243Y0180805D01*
X0108365Y0180938D02*
X0108365Y0181138D01*
X0108465Y0181138D01*
X0108499Y0181105D01*
X0108499Y0181038D01*
X0108465Y0181005D01*
X0108365Y0181005D01*
X0108315Y0181071D02*
X0108181Y0181071D01*
X0108181Y0181038D02*
X0108181Y0181105D01*
X0108214Y0181138D01*
X0108281Y0181138D01*
X0108315Y0181105D01*
X0108315Y0181071D01*
X0108281Y0181005D02*
X0108214Y0181005D01*
X0108181Y0181038D01*
X0108128Y0181138D02*
X0108094Y0181138D01*
X0108028Y0181071D01*
X0108028Y0181005D02*
X0108028Y0181138D01*
X0108058Y0180838D02*
X0108058Y0180738D01*
X0108427Y0180738D02*
X0108460Y0180705D01*
X0108560Y0180705D01*
X0108427Y0180738D02*
X0108427Y0180838D01*
X0108427Y0181305D02*
X0108427Y0181438D01*
X0107575Y0181005D02*
X0107475Y0181005D01*
X0107425Y0181005D02*
X0107324Y0181005D01*
X0107291Y0181038D01*
X0107324Y0181071D01*
X0107425Y0181071D01*
X0107425Y0181105D02*
X0107425Y0181005D01*
X0107425Y0181105D02*
X0107391Y0181138D01*
X0107324Y0181138D01*
X0107240Y0181105D02*
X0107240Y0181071D01*
X0107107Y0181071D01*
X0107107Y0181038D02*
X0107107Y0181105D01*
X0107140Y0181138D01*
X0107207Y0181138D01*
X0107240Y0181105D01*
X0107207Y0181005D02*
X0107140Y0181005D01*
X0107107Y0181038D01*
X0106933Y0181105D02*
X0106900Y0181071D01*
X0106800Y0181071D01*
X0106800Y0181005D02*
X0106800Y0181205D01*
X0106900Y0181205D01*
X0106933Y0181172D01*
X0106933Y0181105D01*
X0106933Y0180905D02*
X0106800Y0180905D01*
X0106867Y0180905D02*
X0106867Y0180705D01*
X0107352Y0180705D02*
X0107352Y0180838D01*
X0106867Y0181305D02*
X0106867Y0181505D01*
X0106933Y0181505D02*
X0106800Y0181505D01*
X0107202Y0181505D02*
X0107202Y0181538D01*
X0109685Y0181405D02*
X0109685Y0181338D01*
X0109718Y0181305D01*
X0109818Y0181305D01*
X0109869Y0181305D02*
X0109869Y0181438D01*
X0109818Y0181438D02*
X0109718Y0181438D01*
X0109685Y0181405D01*
X0109869Y0181371D02*
X0109936Y0181438D01*
X0109969Y0181438D01*
X0110023Y0181405D02*
X0110056Y0181438D01*
X0110123Y0181438D01*
X0110156Y0181405D01*
X0110156Y0181371D01*
X0110023Y0181371D01*
X0110023Y0181338D02*
X0110023Y0181405D01*
X0110023Y0181338D02*
X0110056Y0181305D01*
X0110123Y0181305D01*
X0110207Y0181338D02*
X0110240Y0181371D01*
X0110340Y0181371D01*
X0110340Y0181405D02*
X0110340Y0181305D01*
X0110240Y0181305D01*
X0110207Y0181338D01*
X0110240Y0181438D02*
X0110307Y0181438D01*
X0110340Y0181405D01*
X0110391Y0181438D02*
X0110458Y0181438D01*
X0110424Y0181472D02*
X0110424Y0181338D01*
X0110458Y0181305D01*
X0110514Y0181338D02*
X0110514Y0181405D01*
X0110547Y0181438D01*
X0110614Y0181438D01*
X0110647Y0181405D01*
X0110647Y0181371D01*
X0110514Y0181371D01*
X0110514Y0181338D02*
X0110547Y0181305D01*
X0110614Y0181305D01*
X0110698Y0181338D02*
X0110698Y0181405D01*
X0110731Y0181438D01*
X0110831Y0181438D01*
X0110831Y0181505D02*
X0110831Y0181305D01*
X0110731Y0181305D01*
X0110698Y0181338D01*
X0110706Y0181138D02*
X0110673Y0181138D01*
X0110606Y0181071D01*
X0110555Y0181038D02*
X0110555Y0181105D01*
X0110522Y0181138D01*
X0110455Y0181138D01*
X0110422Y0181105D01*
X0110422Y0181038D01*
X0110455Y0181005D01*
X0110522Y0181005D01*
X0110555Y0181038D01*
X0110606Y0181005D02*
X0110606Y0181138D01*
X0110759Y0181105D02*
X0110793Y0181138D01*
X0110893Y0181138D01*
X0110859Y0181071D02*
X0110793Y0181071D01*
X0110759Y0181105D01*
X0110759Y0181005D02*
X0110859Y0181005D01*
X0110893Y0181038D01*
X0110859Y0181071D01*
X0111128Y0181038D02*
X0111161Y0181005D01*
X0111228Y0181005D01*
X0111261Y0181038D01*
X0111261Y0181105D01*
X0111228Y0181138D01*
X0111161Y0181138D01*
X0111128Y0181105D01*
X0111128Y0181038D01*
X0111312Y0181005D02*
X0111312Y0181138D01*
X0111378Y0181138D02*
X0111412Y0181138D01*
X0111378Y0181138D02*
X0111312Y0181071D01*
X0111317Y0181238D02*
X0111350Y0181238D01*
X0111384Y0181271D01*
X0111384Y0181438D01*
X0111384Y0181305D02*
X0111284Y0181305D01*
X0111250Y0181338D01*
X0111250Y0181438D01*
X0111200Y0181405D02*
X0111166Y0181438D01*
X0111066Y0181438D01*
X0111066Y0181505D02*
X0111066Y0181305D01*
X0111166Y0181305D01*
X0111200Y0181338D01*
X0111200Y0181405D01*
X0111619Y0181405D02*
X0111685Y0181405D01*
X0111803Y0181405D02*
X0111836Y0181438D01*
X0111936Y0181438D01*
X0111987Y0181438D02*
X0112087Y0181438D01*
X0112120Y0181405D01*
X0112120Y0181338D01*
X0112087Y0181305D01*
X0111987Y0181305D01*
X0111936Y0181338D02*
X0111903Y0181371D01*
X0111836Y0181371D01*
X0111803Y0181405D01*
X0111803Y0181305D02*
X0111903Y0181305D01*
X0111936Y0181338D01*
X0111987Y0181238D02*
X0111987Y0181438D01*
X0112171Y0181338D02*
X0112204Y0181338D01*
X0112204Y0181305D01*
X0112171Y0181305D01*
X0112171Y0181338D01*
X0112151Y0181138D02*
X0112051Y0181138D01*
X0112018Y0181105D01*
X0112018Y0181038D01*
X0112051Y0181005D01*
X0112151Y0181005D01*
X0112151Y0180971D02*
X0112151Y0181138D01*
X0112202Y0181105D02*
X0112202Y0181038D01*
X0112235Y0181005D01*
X0112335Y0181005D01*
X0112335Y0180971D02*
X0112335Y0181138D01*
X0112235Y0181138D01*
X0112202Y0181105D01*
X0112151Y0180971D02*
X0112118Y0180938D01*
X0112084Y0180938D01*
X0111967Y0181005D02*
X0111967Y0181138D01*
X0111967Y0181005D02*
X0111867Y0181005D01*
X0111833Y0181038D01*
X0111833Y0181138D01*
X0111783Y0181138D02*
X0111683Y0181138D01*
X0111649Y0181105D01*
X0111683Y0181071D01*
X0111749Y0181071D01*
X0111783Y0181038D01*
X0111749Y0181005D01*
X0111649Y0181005D01*
X0111619Y0181305D02*
X0111752Y0181305D01*
X0111619Y0181305D02*
X0111619Y0181505D01*
X0111752Y0181505D01*
X0112447Y0181505D02*
X0112514Y0181438D01*
X0112581Y0181505D01*
X0112581Y0181305D01*
X0112631Y0181338D02*
X0112665Y0181371D01*
X0112765Y0181371D01*
X0112765Y0181405D02*
X0112765Y0181305D01*
X0112665Y0181305D01*
X0112631Y0181338D01*
X0112665Y0181438D02*
X0112732Y0181438D01*
X0112765Y0181405D01*
X0112816Y0181438D02*
X0112816Y0181305D01*
X0112816Y0181371D02*
X0112882Y0181438D01*
X0112916Y0181438D01*
X0112969Y0181405D02*
X0112969Y0181338D01*
X0113002Y0181305D01*
X0113103Y0181305D01*
X0113153Y0181338D02*
X0113187Y0181305D01*
X0113253Y0181305D01*
X0113287Y0181338D01*
X0113287Y0181405D01*
X0113253Y0181438D01*
X0113187Y0181438D01*
X0113153Y0181405D01*
X0113153Y0181338D01*
X0113103Y0181438D02*
X0113002Y0181438D01*
X0112969Y0181405D01*
X0112910Y0181238D02*
X0112910Y0181205D01*
X0112910Y0181138D02*
X0112910Y0181005D01*
X0112877Y0181005D02*
X0112944Y0181005D01*
X0113000Y0181038D02*
X0113033Y0181005D01*
X0113100Y0181005D01*
X0113133Y0181038D01*
X0113133Y0181105D01*
X0113100Y0181138D01*
X0113033Y0181138D01*
X0113000Y0181105D01*
X0113000Y0181038D01*
X0112910Y0181138D02*
X0112877Y0181138D01*
X0112821Y0181138D02*
X0112754Y0181138D01*
X0112788Y0181172D02*
X0112788Y0181038D01*
X0112821Y0181005D01*
X0112704Y0181038D02*
X0112670Y0181071D01*
X0112603Y0181071D01*
X0112570Y0181105D01*
X0112603Y0181138D01*
X0112704Y0181138D01*
X0112704Y0181038D02*
X0112670Y0181005D01*
X0112570Y0181005D01*
X0112519Y0181071D02*
X0112386Y0181071D01*
X0112386Y0181038D02*
X0112386Y0181105D01*
X0112419Y0181138D01*
X0112486Y0181138D01*
X0112519Y0181105D01*
X0112519Y0181071D01*
X0112486Y0181005D02*
X0112419Y0181005D01*
X0112386Y0181038D01*
X0112335Y0180971D02*
X0112302Y0180938D01*
X0112269Y0180938D01*
X0112447Y0181305D02*
X0112447Y0181505D01*
X0113184Y0181138D02*
X0113284Y0181138D01*
X0113317Y0181105D01*
X0113317Y0181005D01*
X0113368Y0181005D02*
X0113468Y0181005D01*
X0113502Y0181038D01*
X0113468Y0181071D01*
X0113401Y0181071D01*
X0113368Y0181105D01*
X0113401Y0181138D01*
X0113502Y0181138D01*
X0113522Y0181305D02*
X0113655Y0181305D01*
X0113706Y0181338D02*
X0113739Y0181305D01*
X0113839Y0181305D01*
X0113839Y0181438D01*
X0113890Y0181438D02*
X0113923Y0181438D01*
X0113923Y0181305D01*
X0113890Y0181305D02*
X0113957Y0181305D01*
X0114013Y0181305D02*
X0114113Y0181305D01*
X0114146Y0181338D01*
X0114113Y0181371D01*
X0114046Y0181371D01*
X0114013Y0181405D01*
X0114046Y0181438D01*
X0114146Y0181438D01*
X0113923Y0181505D02*
X0113923Y0181538D01*
X0113706Y0181438D02*
X0113706Y0181338D01*
X0113770Y0181172D02*
X0113770Y0181038D01*
X0113803Y0181005D01*
X0113859Y0181038D02*
X0113893Y0181005D01*
X0113959Y0181005D01*
X0113993Y0181038D01*
X0113993Y0181105D01*
X0113959Y0181138D01*
X0113893Y0181138D01*
X0113859Y0181105D01*
X0113859Y0181038D01*
X0113803Y0181138D02*
X0113736Y0181138D01*
X0113522Y0181305D02*
X0113522Y0181505D01*
X0113471Y0181405D02*
X0113337Y0181405D01*
X0113184Y0181138D02*
X0113184Y0181005D01*
X0114043Y0181005D02*
X0114043Y0181038D01*
X0114077Y0181038D01*
X0114077Y0181005D01*
X0114043Y0181005D01*
X0114043Y0181105D02*
X0114043Y0181138D01*
X0114077Y0181138D01*
X0114077Y0181105D01*
X0114043Y0181105D01*
X0114320Y0181172D02*
X0114386Y0181105D01*
X0114386Y0181005D01*
X0114386Y0181105D02*
X0114453Y0181172D01*
X0114453Y0181205D01*
X0114504Y0181205D02*
X0114504Y0181071D01*
X0114570Y0181005D01*
X0114637Y0181071D01*
X0114637Y0181205D01*
X0114688Y0181138D02*
X0114755Y0181205D01*
X0114755Y0181005D01*
X0114821Y0181005D02*
X0114688Y0181005D01*
X0114872Y0181005D02*
X0114872Y0181205D01*
X0114872Y0181105D02*
X0115005Y0181105D01*
X0115005Y0181205D02*
X0115005Y0181005D01*
X0115056Y0181005D02*
X0115190Y0181205D01*
X0115240Y0181172D02*
X0115274Y0181205D01*
X0115340Y0181205D01*
X0115374Y0181172D01*
X0115374Y0181105D01*
X0115340Y0181071D01*
X0115340Y0181138D01*
X0115274Y0181138D01*
X0115274Y0181071D01*
X0115340Y0181071D01*
X0115374Y0181038D02*
X0115340Y0181005D01*
X0115274Y0181005D01*
X0115240Y0181038D01*
X0115240Y0181172D01*
X0115251Y0181305D02*
X0115118Y0181305D01*
X0115118Y0181505D01*
X0115251Y0181505D01*
X0115302Y0181505D02*
X0115402Y0181505D01*
X0115435Y0181472D01*
X0115435Y0181338D01*
X0115402Y0181305D01*
X0115302Y0181305D01*
X0115302Y0181505D01*
X0115184Y0181405D02*
X0115118Y0181405D01*
X0115067Y0181472D02*
X0115033Y0181505D01*
X0114967Y0181505D01*
X0114933Y0181472D01*
X0114933Y0181338D01*
X0114967Y0181305D01*
X0115033Y0181305D01*
X0115067Y0181338D01*
X0115056Y0181205D02*
X0115190Y0181005D01*
X0115424Y0181038D02*
X0115458Y0181005D01*
X0115525Y0181005D01*
X0115558Y0181038D01*
X0115609Y0181005D02*
X0115609Y0181138D01*
X0115675Y0181205D01*
X0115742Y0181138D01*
X0115742Y0181005D01*
X0115793Y0181005D02*
X0115793Y0181205D01*
X0115926Y0181005D01*
X0115926Y0181205D01*
X0115977Y0181205D02*
X0116110Y0181205D01*
X0116161Y0181205D02*
X0116161Y0181071D01*
X0116228Y0181005D01*
X0116295Y0181071D01*
X0116295Y0181205D01*
X0116289Y0181305D02*
X0116356Y0181371D01*
X0116356Y0181505D01*
X0116407Y0181438D02*
X0116473Y0181505D01*
X0116540Y0181438D01*
X0116540Y0181305D01*
X0116591Y0181305D02*
X0116591Y0181505D01*
X0116691Y0181505D01*
X0116724Y0181472D01*
X0116724Y0181405D01*
X0116691Y0181371D01*
X0116591Y0181371D01*
X0116540Y0181405D02*
X0116407Y0181405D01*
X0116407Y0181438D02*
X0116407Y0181305D01*
X0116437Y0181205D02*
X0116571Y0181005D01*
X0116571Y0181205D01*
X0116621Y0181205D02*
X0116621Y0181005D01*
X0116755Y0181005D01*
X0116872Y0181005D02*
X0116872Y0181205D01*
X0116806Y0181205D02*
X0116939Y0181205D01*
X0116808Y0181305D02*
X0116775Y0181305D01*
X0116775Y0181338D01*
X0116808Y0181338D01*
X0116808Y0181305D01*
X0116724Y0181305D02*
X0116657Y0181371D01*
X0116621Y0181205D02*
X0116755Y0181205D01*
X0116688Y0181105D02*
X0116621Y0181105D01*
X0116437Y0181005D02*
X0116437Y0181205D01*
X0116379Y0181038D02*
X0116379Y0181005D01*
X0116345Y0181005D01*
X0116345Y0181038D01*
X0116379Y0181038D01*
X0116289Y0181305D02*
X0116222Y0181371D01*
X0116222Y0181505D01*
X0116172Y0181472D02*
X0116138Y0181505D01*
X0116072Y0181505D01*
X0116038Y0181472D01*
X0116038Y0181338D01*
X0116072Y0181305D01*
X0116138Y0181305D01*
X0116172Y0181338D01*
X0116172Y0181472D01*
X0115988Y0181505D02*
X0115854Y0181505D01*
X0115921Y0181505D02*
X0115921Y0181305D01*
X0116044Y0181205D02*
X0116044Y0181005D01*
X0115742Y0181105D02*
X0115609Y0181105D01*
X0115558Y0181172D02*
X0115525Y0181205D01*
X0115458Y0181205D01*
X0115424Y0181172D01*
X0115424Y0181038D01*
X0115519Y0181305D02*
X0115586Y0181305D01*
X0115619Y0181338D01*
X0115619Y0181472D01*
X0115586Y0181505D01*
X0115519Y0181505D01*
X0115486Y0181472D01*
X0115486Y0181338D01*
X0115519Y0181305D01*
X0114883Y0181305D02*
X0114749Y0181305D01*
X0114749Y0181505D01*
X0114699Y0181438D02*
X0114699Y0181305D01*
X0114699Y0181405D02*
X0114565Y0181405D01*
X0114565Y0181438D02*
X0114632Y0181505D01*
X0114699Y0181438D01*
X0114565Y0181438D02*
X0114565Y0181305D01*
X0114514Y0181338D02*
X0114481Y0181305D01*
X0114414Y0181305D01*
X0114381Y0181338D01*
X0114414Y0181405D02*
X0114481Y0181405D01*
X0114514Y0181371D01*
X0114514Y0181338D01*
X0114414Y0181405D02*
X0114381Y0181438D01*
X0114381Y0181472D01*
X0114414Y0181505D01*
X0114481Y0181505D01*
X0114514Y0181472D01*
X0114320Y0181205D02*
X0114320Y0181172D01*
X0110368Y0181138D02*
X0110335Y0181138D01*
X0110268Y0181071D01*
X0110268Y0181005D02*
X0110268Y0181138D01*
X0110215Y0181138D02*
X0110181Y0181138D01*
X0110115Y0181071D01*
X0110064Y0181071D02*
X0109931Y0181071D01*
X0109931Y0181038D02*
X0109931Y0181105D01*
X0109964Y0181138D01*
X0110031Y0181138D01*
X0110064Y0181105D01*
X0110064Y0181071D01*
X0110031Y0181005D02*
X0109964Y0181005D01*
X0109931Y0181038D01*
X0110115Y0181005D02*
X0110115Y0181138D01*
D16*
X0086800Y0180705D02*
X0076800Y0180705D01*
X0081800Y0185705D02*
X0081800Y0175705D01*
X0136800Y0180705D02*
X0146800Y0180705D01*
X0141800Y0185705D02*
X0141800Y0175705D01*
X0141800Y0025705D02*
X0141800Y0015705D01*
X0136800Y0020705D02*
X0146800Y0020705D01*
X0086800Y0020705D02*
X0076800Y0020705D01*
X0081800Y0025705D02*
X0081800Y0015705D01*
D17*
X0231800Y0031905D02*
X0234300Y0031905D01*
X0236800Y0031905D01*
X0236800Y0034405D02*
X0234300Y0034405D01*
X0231800Y0034405D01*
D18*
X0256800Y0026505D03*
X0256800Y0054905D03*
X0231800Y0066505D03*
X0256800Y0089005D03*
X0231800Y0094905D03*
X0256800Y0117405D03*
X0331800Y0069905D03*
X0331800Y0041505D03*
X0161800Y0031505D03*
X0161800Y0059905D03*
X0021800Y0054905D03*
X0021800Y0026505D03*
X0156800Y0161505D03*
X0156800Y0189905D03*
D19*
X0174674Y0096650D02*
X0208926Y0096650D01*
X0208926Y0073618D01*
X0174674Y0073618D01*
X0174674Y0096650D01*
D20*
X0202627Y0090547D03*
D21*
X0282600Y0090705D03*
X0311000Y0090705D03*
D22*
X0040580Y0024130D02*
X0040580Y0018224D01*
X0063020Y0018224D01*
X0063020Y0024130D01*
X0063020Y0024131D02*
X0062947Y0024167D01*
X0062876Y0024208D01*
X0062806Y0024251D01*
X0062739Y0024298D01*
X0062674Y0024348D01*
X0062612Y0024401D01*
X0062552Y0024456D01*
X0062495Y0024515D01*
X0062440Y0024576D01*
X0062389Y0024640D01*
X0062340Y0024706D01*
X0062295Y0024774D01*
X0062253Y0024844D01*
X0062214Y0024916D01*
X0062178Y0024990D01*
X0062147Y0025065D01*
X0062118Y0025142D01*
X0062094Y0025220D01*
X0062073Y0025299D01*
X0062056Y0025379D01*
X0062042Y0025460D01*
X0062033Y0025541D01*
X0062027Y0025623D01*
X0062025Y0025705D01*
X0062027Y0025787D01*
X0062033Y0025869D01*
X0062042Y0025950D01*
X0062056Y0026031D01*
X0062073Y0026111D01*
X0062094Y0026190D01*
X0062118Y0026268D01*
X0062147Y0026345D01*
X0062178Y0026420D01*
X0062214Y0026494D01*
X0062253Y0026566D01*
X0062295Y0026636D01*
X0062340Y0026704D01*
X0062389Y0026770D01*
X0062440Y0026834D01*
X0062495Y0026895D01*
X0062552Y0026954D01*
X0062612Y0027009D01*
X0062674Y0027062D01*
X0062739Y0027112D01*
X0062806Y0027159D01*
X0062876Y0027202D01*
X0062947Y0027243D01*
X0063020Y0027279D01*
X0063020Y0027280D02*
X0063020Y0033185D01*
X0040580Y0033185D01*
X0040580Y0027280D01*
X0040579Y0027279D02*
X0040652Y0027243D01*
X0040723Y0027202D01*
X0040793Y0027159D01*
X0040860Y0027112D01*
X0040925Y0027062D01*
X0040987Y0027009D01*
X0041047Y0026954D01*
X0041104Y0026895D01*
X0041159Y0026834D01*
X0041210Y0026770D01*
X0041259Y0026704D01*
X0041304Y0026636D01*
X0041346Y0026566D01*
X0041385Y0026494D01*
X0041421Y0026420D01*
X0041452Y0026345D01*
X0041481Y0026268D01*
X0041505Y0026190D01*
X0041526Y0026111D01*
X0041543Y0026031D01*
X0041557Y0025950D01*
X0041566Y0025869D01*
X0041572Y0025787D01*
X0041574Y0025705D01*
X0041572Y0025623D01*
X0041566Y0025541D01*
X0041557Y0025460D01*
X0041543Y0025379D01*
X0041526Y0025299D01*
X0041505Y0025220D01*
X0041481Y0025142D01*
X0041452Y0025065D01*
X0041421Y0024990D01*
X0041385Y0024916D01*
X0041346Y0024844D01*
X0041304Y0024774D01*
X0041259Y0024706D01*
X0041210Y0024640D01*
X0041159Y0024576D01*
X0041104Y0024515D01*
X0041047Y0024456D01*
X0040987Y0024401D01*
X0040925Y0024348D01*
X0040860Y0024298D01*
X0040793Y0024251D01*
X0040723Y0024208D01*
X0040652Y0024167D01*
X0040579Y0024131D01*
D23*
X0041784Y0019966D02*
X0041784Y0018865D01*
X0041417Y0018865D02*
X0042151Y0018865D01*
X0041417Y0019599D02*
X0041784Y0019966D01*
M02*
