%
M48
M72
T01C0.02400
T02C0.03150
T03C0.03200
T04C0.03543
T05C0.07000
%
T01
X181800Y80705
X191800Y80705
X201800Y80705
T02
X141800Y80705
X141800Y70705
X141800Y60705
X141800Y50705
X141800Y40705
X141800Y30705
X81800Y30705
X81800Y40705
X81800Y50705
X81800Y60705
X81800Y70705
X81800Y80705
X81800Y90705
X81800Y100705
X81800Y110705
X81800Y120705
X81800Y130705
X81800Y140705
X81800Y150705
X81800Y160705
X81800Y170705
X141800Y170705
X141800Y160705
X141800Y150705
X141800Y140705
X141800Y130705
X141800Y120705
X141800Y110705
X141800Y100705
X141800Y90705
T03
X21800Y20705
X21800Y60705
X26800Y85705
X26800Y95705
X26800Y105705
X26800Y115705
X26800Y125705
X26800Y135705
X26800Y145705
X56800Y145705
X56800Y135705
X56800Y125705
X56800Y115705
X56800Y105705
X56800Y95705
X56800Y85705
X161800Y65705
X176800Y55705
X176800Y45705
X176800Y35705
X176800Y25705
X161800Y25705
X206800Y25705
X206800Y35705
X206800Y45705
X206800Y55705
X231800Y60705
X256800Y60705
X281800Y55705
X281800Y45705
X281800Y35705
X281800Y25705
X256800Y20705
X234300Y23205
X234300Y43205
X256800Y83205
X276800Y90705
X316800Y90705
X331800Y75705
X311800Y55705
X311800Y45705
X311800Y35705
X311800Y25705
X331800Y35705
X231800Y100705
X206800Y120705
X206800Y130705
X206800Y140705
X206800Y150705
X206800Y160705
X206800Y170705
X206800Y180705
X176800Y180705
X176800Y170705
X176800Y160705
X176800Y150705
X176800Y140705
X176800Y130705
X176800Y120705
X156800Y155705
X156800Y195705
X256800Y123205
T04
X59674Y29642
X51800Y29642
X43926Y29642
X43926Y21768
X51800Y21768
X59674Y21768
T05
X81800Y20705
X141800Y20705
X141800Y180705
X81800Y180705
M30
