G75*
%MOIN*%
%OFA0B0*%
%FSLAX25Y25*%
%IPPOS*%
%LPD*%
%AMOC8*
5,1,8,0,0,1.08239X$1,22.5*
%
%ADD10C,0.07800*%
%ADD11R,0.05950X0.05950*%
%ADD12C,0.05950*%
%ADD13OC8,0.07100*%
%ADD14C,0.06000*%
%ADD15OC8,0.06000*%
%ADD16C,0.05200*%
%ADD17C,0.06343*%
D10*
X0081800Y0020705D03*
X0141800Y0020705D03*
X0141800Y0180705D03*
X0081800Y0180705D03*
D11*
X0081800Y0170705D03*
D12*
X0081800Y0160705D03*
X0081800Y0150705D03*
X0081800Y0140705D03*
X0081800Y0130705D03*
X0081800Y0120705D03*
X0081800Y0110705D03*
X0081800Y0100705D03*
X0081800Y0090705D03*
X0081800Y0080705D03*
X0081800Y0070705D03*
X0081800Y0060705D03*
X0081800Y0050705D03*
X0081800Y0040705D03*
X0081800Y0030705D03*
X0141800Y0030705D03*
X0141800Y0040705D03*
X0141800Y0050705D03*
X0141800Y0060705D03*
X0141800Y0070705D03*
X0141800Y0080705D03*
X0141800Y0090705D03*
X0141800Y0100705D03*
X0141800Y0110705D03*
X0141800Y0120705D03*
X0141800Y0130705D03*
X0141800Y0140705D03*
X0141800Y0150705D03*
X0141800Y0160705D03*
X0141800Y0170705D03*
D13*
X0234300Y0043205D03*
X0234300Y0023205D03*
D14*
X0209400Y0025705D02*
X0204200Y0025705D01*
X0204200Y0035705D02*
X0209400Y0035705D01*
X0209400Y0045705D02*
X0204200Y0045705D01*
X0204200Y0055705D02*
X0209400Y0055705D01*
X0179400Y0055705D02*
X0174200Y0055705D01*
X0174200Y0045705D02*
X0179400Y0045705D01*
X0179400Y0035705D02*
X0174200Y0035705D01*
X0174200Y0025705D02*
X0179400Y0025705D01*
X0279200Y0025705D02*
X0284400Y0025705D01*
X0284400Y0035705D02*
X0279200Y0035705D01*
X0279200Y0045705D02*
X0284400Y0045705D01*
X0284400Y0055705D02*
X0279200Y0055705D01*
X0309200Y0055705D02*
X0314400Y0055705D01*
X0314400Y0045705D02*
X0309200Y0045705D01*
X0309200Y0035705D02*
X0314400Y0035705D01*
X0314400Y0025705D02*
X0309200Y0025705D01*
X0209400Y0120705D02*
X0204200Y0120705D01*
X0204200Y0130705D02*
X0209400Y0130705D01*
X0209400Y0140705D02*
X0204200Y0140705D01*
X0204200Y0150705D02*
X0209400Y0150705D01*
X0209400Y0160705D02*
X0204200Y0160705D01*
X0204200Y0170705D02*
X0209400Y0170705D01*
X0209400Y0180705D02*
X0204200Y0180705D01*
X0179400Y0180705D02*
X0174200Y0180705D01*
X0174200Y0170705D02*
X0179400Y0170705D01*
X0179400Y0160705D02*
X0174200Y0160705D01*
X0174200Y0150705D02*
X0179400Y0150705D01*
X0179400Y0140705D02*
X0174200Y0140705D01*
X0174200Y0130705D02*
X0179400Y0130705D01*
X0179400Y0120705D02*
X0174200Y0120705D01*
X0059400Y0125705D02*
X0054200Y0125705D01*
X0054200Y0135705D02*
X0059400Y0135705D01*
X0059400Y0145705D02*
X0054200Y0145705D01*
X0029400Y0145705D02*
X0024200Y0145705D01*
X0024200Y0135705D02*
X0029400Y0135705D01*
X0029400Y0125705D02*
X0024200Y0125705D01*
X0024200Y0115705D02*
X0029400Y0115705D01*
X0029400Y0105705D02*
X0024200Y0105705D01*
X0024200Y0095705D02*
X0029400Y0095705D01*
X0029400Y0085705D02*
X0024200Y0085705D01*
X0054200Y0085705D02*
X0059400Y0085705D01*
X0059400Y0095705D02*
X0054200Y0095705D01*
X0054200Y0105705D02*
X0059400Y0105705D01*
X0059400Y0115705D02*
X0054200Y0115705D01*
D15*
X0021800Y0020705D03*
X0021800Y0060705D03*
X0161800Y0065705D03*
X0161800Y0025705D03*
X0231800Y0060705D03*
X0256800Y0060705D03*
X0256800Y0083205D03*
X0276800Y0090705D03*
X0316800Y0090705D03*
X0331800Y0075705D03*
X0331800Y0035705D03*
X0256800Y0020705D03*
X0231800Y0100705D03*
X0256800Y0123205D03*
X0156800Y0155705D03*
X0156800Y0195705D03*
D16*
X0181800Y0080705D03*
X0191800Y0080705D03*
X0201800Y0080705D03*
D17*
X0059674Y0029642D03*
X0051800Y0029642D03*
X0043926Y0029642D03*
X0043926Y0021768D03*
X0051800Y0021768D03*
X0059674Y0021768D03*
M02*
